<svg width="79" height="32" viewBox="0 0 79 32" fill="none" xmlns="http://www.w3.org/2000/svg">
<path d="M41.156 11.202H37.597L36.92 13.233H34.762L38.429 3.373H40.311L43.999 13.233H41.839L41.156 11.202ZM38.146 9.556H40.608L39.37 5.865L38.145 9.555L38.146 9.556ZM47.01 4.104V5.905H48.262V7.341H47.01V10.998C47.01 11.269 47.062 11.464 47.165 11.581C47.269 11.698 47.468 11.757 47.761 11.757C47.977 11.757 48.169 11.741 48.336 11.71V13.193C47.9523 13.3104 47.5533 13.3697 47.152 13.369C45.78 13.369 45.082 12.676 45.054 11.289V7.342H43.984V5.905H45.054V4.105H47.01V4.104ZM48.844 9.502C48.844 8.775 48.984 8.127 49.263 7.558C49.5254 7.00857 49.9447 6.54922 50.468 6.238C50.995 5.925 51.607 5.77 52.301 5.77C53.289 5.77 54.095 6.072 54.717 6.677C55.344 7.282 55.694 8.104 55.766 9.143L55.78 9.643C55.78 10.768 55.466 11.671 54.839 12.353C54.212 13.03 53.371 13.369 52.315 13.369C51.259 13.369 50.415 13.03 49.785 12.353C49.157 11.676 48.844 10.755 48.844 9.59V9.502ZM50.799 9.644C50.799 10.339 50.929 10.872 51.192 11.242C51.453 11.608 51.828 11.791 52.315 11.791C52.789 11.791 53.158 11.611 53.425 11.249C53.691 10.883 53.824 10.301 53.824 9.502C53.824 8.82 53.691 8.292 53.424 7.917C53.158 7.542 52.784 7.355 52.301 7.355C51.823 7.355 51.453 7.542 51.191 7.917C50.93 8.287 50.799 8.863 50.799 9.644ZM58.818 5.905L58.878 6.725C59.398 6.088 60.099 5.77 60.983 5.77C61.926 5.77 62.573 6.142 62.925 6.887C63.44 6.142 64.173 5.77 65.125 5.77C65.918 5.77 66.51 6.002 66.897 6.467C67.285 6.927 67.479 7.623 67.479 8.553V13.233H65.517V8.56C65.517 8.145 65.436 7.842 65.273 7.653C65.111 7.458 64.825 7.361 64.414 7.361C63.827 7.361 63.422 7.641 63.196 8.201L63.203 13.233H61.247V8.567C61.247 8.143 61.164 7.835 60.997 7.646C60.83 7.456 60.546 7.361 60.144 7.361C59.589 7.361 59.188 7.591 58.94 8.052V13.233H56.984V5.905H58.818ZM71.052 13.234H69.09V5.905H71.052V13.234ZM68.975 4.009C68.9705 3.87466 68.9939 3.74084 69.0438 3.61603C69.0938 3.49122 69.1691 3.37816 69.265 3.284C69.465 3.094 69.733 3 70.071 3C70.405 3 70.671 3.094 70.87 3.284C70.9677 3.37717 71.0447 3.4899 71.0958 3.61482C71.147 3.73975 71.1713 3.87406 71.167 4.009C71.1715 4.14549 71.1467 4.28135 71.0942 4.40745C71.0418 4.53354 70.963 4.64694 70.863 4.74C70.664 4.93 70.4 5.025 70.071 5.025C69.741 5.025 69.476 4.93 69.273 4.74C69.1747 4.64597 69.0974 4.53226 69.046 4.40629C68.9947 4.28033 68.9705 4.14495 68.975 4.009ZM75.715 11.791C76.075 11.791 76.369 11.691 76.595 11.493C76.82 11.294 76.937 11.03 76.946 10.7H78.78C78.7789 11.1859 78.638 11.6611 78.374 12.069C78.108 12.479 77.743 12.8 77.278 13.03C76.818 13.256 76.308 13.369 75.748 13.369C74.702 13.369 73.876 13.037 73.272 12.373C72.667 11.705 72.365 10.784 72.365 9.61V9.481C72.365 8.352 72.665 7.451 73.265 6.779C73.865 6.106 74.688 5.769 75.735 5.769C76.651 5.769 77.384 6.032 77.935 6.555C78.489 7.075 78.771 7.768 78.78 8.635H76.946C76.937 8.255 76.82 7.948 76.594 7.714C76.369 7.474 76.071 7.354 75.701 7.354C75.246 7.354 74.901 7.522 74.666 7.856C74.436 8.186 74.321 8.723 74.321 9.468V9.671C74.321 10.425 74.436 10.967 74.666 11.297C74.896 11.626 75.246 11.791 75.715 11.791ZM46.049 26.591L47.375 19.573H49.398L47.213 29.435H45.169L43.565 22.838L41.962 29.435H39.918L37.732 19.574H39.756L41.089 26.577L42.713 19.574H44.431L46.049 26.59V26.591ZM54.386 29.435C54.286 29.2278 54.2195 29.006 54.189 28.778C53.716 29.306 53.099 29.57 52.342 29.57C51.625 29.57 51.029 29.363 50.556 28.947C50.3296 28.7537 50.149 28.5124 50.0272 28.2407C49.9055 27.969 49.8456 27.6737 49.852 27.376C49.852 26.599 50.138 26.003 50.712 25.588C51.289 25.172 52.121 24.962 53.208 24.958H54.108V24.538C54.108 24.199 54.02 23.928 53.844 23.725C53.673 23.522 53.4 23.42 53.025 23.42C52.696 23.42 52.437 23.5 52.247 23.658C52.062 23.815 51.97 24.032 51.97 24.308H50.014C50.014 23.883 50.145 23.49 50.407 23.129C50.668 22.768 51.038 22.486 51.517 22.283C52.0264 22.069 52.5746 21.9628 53.127 21.971C54.029 21.971 54.744 22.199 55.272 22.655C55.804 23.107 56.071 23.743 56.071 24.565V27.742C56.075 28.437 56.172 28.963 56.361 29.32V29.435H54.386ZM52.768 28.074C53.058 28.074 53.323 28.01 53.567 27.884C53.81 27.753 53.991 27.579 54.108 27.362V26.102H53.378C52.398 26.102 51.878 26.442 51.814 27.119L51.807 27.234C51.807 27.478 51.893 27.679 52.065 27.837C52.236 27.994 52.471 28.073 52.768 28.073V28.074ZM59.637 29.434H57.674V19.033H59.637V29.435V29.434ZM63.317 29.434H61.355V19.033H63.318V29.435L63.317 29.434ZM68.305 29.57C67.231 29.57 66.356 29.24 65.679 28.581C65.007 27.922 64.671 27.044 64.671 25.947V25.757C64.671 25.021 64.813 24.364 65.097 23.787C65.3574 23.2305 65.7767 22.7636 66.302 22.445C66.825 22.129 67.421 21.971 68.088 21.971C69.09 21.971 69.878 22.287 70.45 22.919C71.028 23.551 71.316 24.448 71.316 25.609V26.407H66.654C66.717 26.886 66.906 27.27 67.222 27.559C67.542 27.848 67.946 27.992 68.434 27.992C69.187 27.992 69.776 27.719 70.2 27.172L71.16 28.25C70.867 28.665 70.47 28.99 69.97 29.225C69.4467 29.4597 68.8785 29.5774 68.305 29.57ZM68.082 23.556C67.694 23.556 67.378 23.686 67.134 23.949C66.895 24.211 66.742 24.585 66.674 25.073H69.394V24.917C69.385 24.484 69.268 24.15 69.043 23.915C68.817 23.675 68.497 23.555 68.082 23.555V23.556ZM74.774 20.305V22.107H76.026V23.542H74.774V27.2C74.774 27.47 74.826 27.665 74.93 27.782C75.033 27.9 75.232 27.958 75.525 27.958C75.742 27.958 75.933 27.943 76.1 27.911V29.394C75.7163 29.5114 75.3173 29.5707 74.916 29.57C73.545 29.57 72.846 28.877 72.819 27.491V23.542H71.749V22.107H72.819V20.305H74.774Z" fill="#262642"/>
<path fill-rule="evenodd" clip-rule="evenodd" d="M0 31.943L9.87 4.983C11.122 1.834 13.457 0.052 16.56 0H16.7V0.001C19.804 0.053 22.138 1.834 23.39 4.982L33.26 31.943L27.149 29.824L18.718 6.793C18.204 5.519 17.612 5.06 16.63 5.04C15.648 5.06 15.056 5.519 14.543 6.793L6.112 29.824L0 31.944V31.943ZM20.925 21.677C20.925 24.032 19.028 25.941 16.688 25.941C14.348 25.941 12.452 24.032 12.452 21.677C12.452 19.322 14.348 17.413 16.688 17.413C19.028 17.413 20.925 19.323 20.925 21.677Z" fill="#262642"/>
</svg>
