<svg width="69" height="26" viewBox="0 0 69 26" fill="none" xmlns="http://www.w3.org/2000/svg">
<path fill-rule="evenodd" clip-rule="evenodd" d="M4.53755 13.7019H8.12329C9.48328 13.7019 10.2996 13.0294 10.2996 11.8589C10.2996 10.6884 9.43396 9.991 8.12329 9.991H4.53755V13.7019ZM4.53755 6.75584H7.84842C8.93554 6.75584 9.62733 6.18178 9.62733 5.2585C9.62733 4.28512 8.93554 3.71098 7.84842 3.71098H4.53755V6.75584ZM0.113403 17.4128V0.0952148H8.49475C11.6384 0.0952148 13.8486 1.62912 13.8486 4.47414C13.8486 6.15622 12.8908 7.34379 11.8347 7.8387C12.6699 8.03653 13.4311 8.53144 14.0943 9.34781C14.7573 10.164 15.1012 11.1784 15.1012 12.4402C15.1012 13.9244 14.5363 15.1369 13.4066 16.052C12.3014 16.9674 10.8034 17.4128 8.96144 17.4128H0.113403Z" fill="#262642"/>
<path fill-rule="evenodd" clip-rule="evenodd" d="M21.0389 3.81602H16.6967C16.2443 3.81602 15.8776 3.45894 15.8776 3.0187V0.833303C15.8776 0.393137 16.2443 0.0361328 16.6967 0.0361328H29.8299C30.2823 0.0361328 30.6489 0.393137 30.6489 0.833303V3.0187C30.6489 3.45894 30.2823 3.81602 29.8299 3.81602H25.463V16.589C25.463 17.0294 25.0963 17.3861 24.6439 17.3861H21.858C21.4057 17.3861 21.0389 17.0294 21.0389 16.589V3.81602Z" fill="#262642"/>
<path fill-rule="evenodd" clip-rule="evenodd" d="M33.963 14.9755C32.1443 13.3487 31.2349 11.2675 31.2349 8.70775C31.2349 6.14813 32.1443 4.06692 33.9383 2.44007C35.7573 0.813306 38.043 0 40.7957 0C41.9789 0 43.0838 0.165547 44.1196 0.505718C44.7955 0.727662 45.2443 1.35347 45.2443 2.04785V4.21137C45.2443 4.63796 44.7879 4.9215 44.3921 4.73842C43.2862 4.22688 42.1119 3.97104 40.8449 3.97104C39.3947 3.97104 38.1905 4.42571 37.2318 5.31085C36.2733 6.19584 35.7817 7.34419 35.7817 8.70775C35.7817 10.0953 36.2733 11.2437 37.2565 12.1288C38.2641 13.0138 39.5176 13.4445 41.0169 13.4445C42.4379 13.4445 43.6639 13.167 44.7065 12.6236C45.0837 12.4268 45.5392 12.6917 45.5392 13.1082V15.3123C45.5392 15.987 45.1059 16.5909 44.4541 16.8209C43.3395 17.2139 42.1282 17.4156 40.8202 17.4156C38.0674 17.4156 35.7817 16.6023 33.963 14.9755Z" fill="#262642"/>
<path fill-rule="evenodd" clip-rule="evenodd" d="M1.79407 25.1075H2.22023C2.46073 25.1075 2.63823 25.0453 2.75299 24.9206C2.86775 24.7961 2.92517 24.6059 2.92517 24.3493V22.3313C2.92517 22.2638 2.94972 22.2058 2.9989 22.1578C3.04808 22.1097 3.10722 22.0859 3.17649 22.0859H3.67363C3.7465 22.0859 3.80752 22.1097 3.85671 22.1578C3.90589 22.2058 3.93044 22.2638 3.93044 22.3313V24.3441C3.93044 24.821 3.78752 25.1903 3.50162 25.4519C3.21554 25.7136 2.79754 25.8442 2.24761 25.8442H1.76678C1.21668 25.8442 0.798673 25.7136 0.512766 25.4519C0.226773 25.1903 0.0838623 24.821 0.0838623 24.3441V22.3313C0.0838623 22.2638 0.10841 22.2058 0.157592 22.1578C0.206774 22.1097 0.267801 22.0859 0.340587 22.0859H0.837899C0.906994 22.0859 0.966218 22.1097 1.01549 22.1578C1.06458 22.2058 1.08922 22.2638 1.08922 22.3313V24.3493C1.08922 24.6059 1.14655 24.7961 1.2614 24.9206C1.37607 25.0453 1.55365 25.1075 1.79407 25.1075Z" fill="#262642"/>
<path fill-rule="evenodd" clip-rule="evenodd" d="M5.91852 22.0859H6.42115C6.49042 22.0859 6.54964 22.1098 6.59874 22.1579C6.64792 22.206 6.67255 22.2658 6.67255 22.3367V25.0862H8.99466C9.06384 25.0862 9.12306 25.1104 9.17233 25.1584C9.22143 25.2064 9.24606 25.2643 9.24606 25.3318V25.5775C9.24606 25.645 9.22143 25.7028 9.17233 25.751C9.12306 25.7989 9.06384 25.8231 8.99466 25.8231H5.91852C5.84925 25.8231 5.79003 25.7999 5.74102 25.7536C5.69175 25.7074 5.66711 25.6505 5.66711 25.5828V22.3367C5.66711 22.2658 5.69175 22.206 5.74102 22.1579C5.79003 22.1098 5.84925 22.0859 5.91852 22.0859Z" fill="#262642"/>
<path fill-rule="evenodd" clip-rule="evenodd" d="M9.92734 22.0859H13.3151C13.3878 22.0859 13.4479 22.1091 13.4953 22.1552C13.5426 22.2016 13.5664 22.2603 13.5664 22.3316V22.5771C13.5664 22.6483 13.5426 22.707 13.4953 22.7532C13.4479 22.7996 13.3878 22.8227 13.3151 22.8227H12.1239V25.5828C12.1239 25.6505 12.0992 25.7074 12.0501 25.7536C12.001 25.7999 11.9417 25.8231 11.8726 25.8231H11.3698C11.3006 25.8231 11.2415 25.7999 11.1923 25.7536C11.1432 25.7074 11.1184 25.6505 11.1184 25.5828V22.8227H9.92734C9.85447 22.8227 9.79439 22.7996 9.74709 22.7532C9.69972 22.707 9.67603 22.6483 9.67603 22.5771V22.3316C9.67603 22.2603 9.69972 22.2016 9.74709 22.1552C9.79439 22.1091 9.85447 22.0859 9.92734 22.0859Z" fill="#262642"/>
<path fill-rule="evenodd" clip-rule="evenodd" d="M15.0298 25.5827V22.3313C15.0298 22.2638 15.0544 22.2058 15.1036 22.1578C15.1527 22.1097 15.2118 22.0859 15.2811 22.0859H15.7783C15.8512 22.0859 15.9122 22.1097 15.9614 22.1578C16.0105 22.2058 16.0351 22.2638 16.0351 22.3313V25.5774C16.0351 25.645 16.0096 25.7028 15.9587 25.7509C15.9076 25.7988 15.8475 25.8228 15.7783 25.8228H15.2811C15.2118 25.8228 15.1527 25.7999 15.1036 25.7536C15.0544 25.7072 15.0298 25.6505 15.0298 25.5827Z" fill="#262642"/>
<path fill-rule="evenodd" clip-rule="evenodd" d="M20.4601 25.823H20.0775C20.0083 25.823 19.9428 25.8001 19.8809 25.7538C19.8188 25.7074 19.7752 25.6522 19.7497 25.588L18.8099 23.0257V25.5722C18.8099 25.6434 18.7853 25.7028 18.7362 25.7511C18.6871 25.799 18.6277 25.823 18.5587 25.823H18.0777C18.0086 25.823 17.9493 25.799 17.9002 25.7511C17.851 25.7028 17.8264 25.6434 17.8264 25.5722V22.3369C17.8264 22.2657 17.8501 22.2059 17.8975 22.1581C17.9448 22.1099 18.0031 22.0859 18.0723 22.0859H19.1597C19.2288 22.0859 19.2944 22.1099 19.3564 22.1581C19.4183 22.2059 19.4601 22.2639 19.4819 22.3315L20.2688 24.5577L21.0556 22.3315C21.0774 22.2639 21.1194 22.2059 21.1813 22.1581C21.2431 22.1099 21.3087 22.0859 21.378 22.0859H22.4653C22.5345 22.0859 22.5929 22.1099 22.6401 22.1581C22.6874 22.2059 22.7113 22.2657 22.7113 22.3369V25.5722C22.7113 25.6434 22.6866 25.7028 22.6374 25.7511C22.5882 25.799 22.529 25.823 22.4599 25.823H21.9791C21.9098 25.823 21.8506 25.799 21.8015 25.7511C21.7523 25.7028 21.7278 25.6434 21.7278 25.5722V23.0257L20.7878 25.588C20.7623 25.6522 20.7187 25.7074 20.6567 25.7538C20.5948 25.8001 20.5292 25.823 20.4601 25.823Z" fill="#262642"/>
<path fill-rule="evenodd" clip-rule="evenodd" d="M25.8247 23.3458L25.5898 24.1838H27.2891V22.8227H26.5297C26.3584 22.8227 26.2091 22.8697 26.0816 22.9639C25.954 23.0584 25.8684 23.1855 25.8247 23.3458ZM24.1855 25.5827L24.8576 23.1001C25.0397 22.4241 25.6298 22.0859 26.6279 22.0859H28.065C28.1305 22.0859 28.1852 22.1098 28.2289 22.1578C28.2726 22.2058 28.2944 22.2618 28.2944 22.326V25.5827C28.2944 25.6503 28.2699 25.7072 28.2207 25.7536C28.1716 25.7999 28.1123 25.8228 28.0431 25.8228H27.5405C27.4676 25.8228 27.4073 25.7999 27.3601 25.7536C27.3127 25.7072 27.2891 25.6485 27.2891 25.5773V24.9206H25.3932L25.2128 25.5773C25.1945 25.6485 25.1544 25.7072 25.0926 25.7536C25.0305 25.7999 24.965 25.8228 24.8959 25.8228H24.3714C24.3021 25.8228 24.2493 25.7999 24.2129 25.7536C24.1764 25.7072 24.1672 25.6503 24.1855 25.5827Z" fill="#262642"/>
<path fill-rule="evenodd" clip-rule="evenodd" d="M30.0095 22.0859H33.3971C33.47 22.0859 33.53 22.1091 33.5773 22.1552C33.6246 22.2016 33.6484 22.2603 33.6484 22.3316V22.5771C33.6484 22.6483 33.6246 22.707 33.5773 22.7532C33.53 22.7996 33.47 22.8227 33.3971 22.8227H32.206V25.5828C32.206 25.6505 32.1814 25.7074 32.1322 25.7536C32.083 25.7999 32.0238 25.8231 31.9546 25.8231H31.452C31.3826 25.8231 31.3236 25.7999 31.2744 25.7536C31.2252 25.7074 31.2006 25.6505 31.2006 25.5828V22.8227H30.0095C29.9365 22.8227 29.8764 22.7996 29.8291 22.7532C29.7818 22.707 29.7581 22.6483 29.7581 22.5771V22.3316C29.7581 22.2603 29.7818 22.2016 29.8291 22.1552C29.8764 22.1091 29.9365 22.0859 30.0095 22.0859Z" fill="#262642"/>
<path fill-rule="evenodd" clip-rule="evenodd" d="M36.7675 25.1075H37.1937C37.4341 25.1075 37.6116 25.0453 37.7265 24.9206C37.8412 24.7961 37.8986 24.6059 37.8986 24.3493V22.3313C37.8986 22.2638 37.9231 22.2058 37.9723 22.1578C38.0215 22.1097 38.0807 22.0859 38.1499 22.0859H38.6471C38.7199 22.0859 38.781 22.1097 38.8301 22.1578C38.8793 22.2058 38.9039 22.2638 38.9039 22.3313V24.3441C38.9039 24.821 38.7609 25.1903 38.475 25.4519C38.189 25.7136 37.7709 25.8442 37.221 25.8442H36.7402C36.1901 25.8442 35.7721 25.7136 35.4862 25.4519C35.2002 25.1903 35.0573 24.821 35.0573 24.3441V22.3313C35.0573 22.2638 35.0818 22.2058 35.1311 22.1578C35.1802 22.1097 35.2412 22.0859 35.3141 22.0859H35.8113C35.8804 22.0859 35.9396 22.1097 35.9889 22.1578C36.0381 22.2058 36.0626 22.2638 36.0626 22.3313V24.3493C36.0626 24.6059 36.1199 24.7961 36.2348 24.9206C36.3495 25.0453 36.527 25.1075 36.7675 25.1075Z" fill="#262642"/>
<path fill-rule="evenodd" clip-rule="evenodd" d="M43.2742 25.823H42.8916C42.8224 25.823 42.7569 25.8001 42.695 25.7538C42.6329 25.7074 42.5893 25.6522 42.5638 25.588L41.624 23.0257V25.5722C41.624 25.6434 41.5994 25.7028 41.5503 25.7511C41.5011 25.799 41.4418 25.823 41.3727 25.823H40.8918C40.8226 25.823 40.7634 25.799 40.7143 25.7511C40.6651 25.7028 40.6405 25.6434 40.6405 25.5722V22.3369C40.6405 22.2657 40.6642 22.2059 40.7116 22.1581C40.7589 22.1099 40.8171 22.0859 40.8864 22.0859H41.9738C42.0429 22.0859 42.1085 22.1099 42.1705 22.1581C42.2323 22.2059 42.2742 22.2639 42.296 22.3315L43.0829 24.5577L43.8697 22.3315C43.8915 22.2639 43.9335 22.2059 43.9954 22.1581C44.0572 22.1099 44.1229 22.0859 44.1921 22.0859H45.2794C45.3486 22.0859 45.4069 22.1099 45.4542 22.1581C45.5015 22.2059 45.5254 22.2657 45.5254 22.3369V25.5722C45.5254 25.6434 45.5007 25.7028 45.4515 25.7511C45.4023 25.799 45.3431 25.823 45.274 25.823H44.7932C44.7239 25.823 44.6647 25.799 44.6156 25.7511C44.5664 25.7028 44.5418 25.6434 44.5418 25.5722V23.0257L43.6019 25.588C43.5764 25.6522 43.5328 25.7074 43.4708 25.7538C43.4089 25.8001 43.3433 25.823 43.2742 25.823Z" fill="#262642"/>
<mask id="mask0" mask-type="alpha" maskUnits="userSpaceOnUse" x="50" y="22" width="19" height="4">
<path fill-rule="evenodd" clip-rule="evenodd" d="M50.4564 22.0566C50.236 22.0566 50.0575 22.2313 50.0575 22.4468V25.4828C50.0575 25.6983 50.236 25.873 50.4564 25.873H68.3797C68.6 25.873 68.7785 25.6983 68.7785 25.4828V22.4468C68.7785 22.2313 68.6 22.0566 68.3797 22.0566H50.4564Z" fill="white"/>
</mask>
<g mask="url(#mask0)">
<path fill-rule="evenodd" clip-rule="evenodd" d="M50.4564 22.0566C50.236 22.0566 50.0575 22.2313 50.0575 22.4468V25.4828C50.0575 25.6983 50.236 25.873 50.4564 25.873H68.3797C68.6 25.873 68.7785 25.6983 68.7785 25.4828V22.4468C68.7785 22.2313 68.6 22.0566 68.3797 22.0566H50.4564Z" fill="url(#paint0_linear)"/>
</g>
<mask id="mask1" mask-type="alpha" maskUnits="userSpaceOnUse" x="50" y="0" width="19" height="18">
<path fill-rule="evenodd" clip-rule="evenodd" d="M64.7869 0.0361328C63.901 0.0361328 63.1832 0.734559 63.1832 1.59611V8.62436C63.1832 11.214 61.6277 12.465 59.3845 12.465C57.2009 12.465 55.5856 11.214 55.5856 8.62436V1.59611C55.5856 0.734559 54.8676 0.0361328 53.9819 0.0361328H51.8051C50.9194 0.0361328 50.2014 0.734559 50.2014 1.59611V8.36235C50.2014 11.1849 51.0689 13.3961 52.8038 14.9673C54.5386 16.5095 56.7223 17.2952 59.3845 17.2952C62.0466 17.2952 64.23 16.5095 65.9649 14.9673C67.6909 13.4043 68.5584 11.2077 68.5673 8.40588V1.58204C68.5595 0.726982 67.8445 0.0361328 66.9636 0.0361328H64.7869Z" fill="white"/>
</mask>
<g mask="url(#mask1)">
<path fill-rule="evenodd" clip-rule="evenodd" d="M64.7869 0.0361328C63.901 0.0361328 63.1832 0.734559 63.1832 1.59611V8.62436C63.1832 11.214 61.6277 12.465 59.3845 12.465C57.2009 12.465 55.5856 11.214 55.5856 8.62436V1.59611C55.5856 0.734559 54.8676 0.0361328 53.9819 0.0361328H51.8051C50.9194 0.0361328 50.2014 0.734559 50.2014 1.59611V8.36235C50.2014 11.1849 51.0689 13.3961 52.8038 14.9673C54.5386 16.5095 56.7223 17.2952 59.3845 17.2952C62.0466 17.2952 64.23 16.5095 65.9649 14.9673C67.6909 13.4043 68.5584 11.2077 68.5673 8.40588V1.58204C68.5595 0.726982 67.8445 0.0361328 66.9636 0.0361328H64.7869Z" fill="url(#paint1_linear)"/>
</g>
<defs>
<linearGradient id="paint0_linear" x1="-18.2882" y1="1.40423" x2="-18.2882" y2="33.0854" gradientUnits="userSpaceOnUse">
<stop stop-color="#FF421D"/>
<stop offset="1" stop-color="#FF0400"/>
</linearGradient>
<linearGradient id="paint1_linear" x1="42.6821" y1="-0.235578" x2="42.6821" y2="31.1559" gradientUnits="userSpaceOnUse">
<stop stop-color="#FF421D"/>
<stop offset="1" stop-color="#FF0400"/>
</linearGradient>
</defs>
</svg>
