<svg width="201" height="33" viewBox="0 0 201 33" fill="none" xmlns="http://www.w3.org/2000/svg">
<path fill-rule="evenodd" clip-rule="evenodd" d="M48.1717 31.1794C56.7082 31.1794 63.6285 24.2284 63.6285 15.6539C63.6285 7.07941 56.7082 0.128418 48.1717 0.128418C39.6351 0.128418 32.7148 7.07941 32.7148 15.6539C32.7148 24.2284 39.6351 31.1794 48.1717 31.1794Z" fill="#9C7C4D"/>
<path fill-rule="evenodd" clip-rule="evenodd" d="M48.1717 31.1794C56.7082 31.1794 63.6285 24.2284 63.6285 15.6539C63.6285 7.07941 56.7082 0.128418 48.1717 0.128418C39.6351 0.128418 32.7148 7.07941 32.7148 15.6539C32.7148 24.2284 39.6351 31.1794 48.1717 31.1794Z" fill="#EEB35D"/>
<path fill-rule="evenodd" clip-rule="evenodd" d="M40.448 29.1012C33.0037 24.9005 30.3592 15.4336 34.5413 7.9562C38.7234 0.47882 48.1485 -2.17745 55.5928 2.02325C55.756 2.11486 55.9192 2.20647 56.0728 2.3029" fill="#E89F35"/>
<path fill-rule="evenodd" clip-rule="evenodd" d="M37.0429 20.287C38.9103 24.8025 43.3038 27.7416 48.1717 27.7319C54.7907 27.7107 60.1512 22.3263 60.1723 15.6779C60.182 10.7884 57.2559 6.37543 52.7604 4.49979C48.2649 2.62416 43.0871 3.65597 39.645 7.11337C36.2029 10.5708 35.1756 15.7716 37.0429 20.287ZM38.3071 15.6538C38.3071 10.1816 42.7236 5.74548 48.1717 5.74548C53.6175 5.75079 58.0309 10.1838 58.0362 15.6538C58.0362 21.126 53.6197 25.5622 48.1717 25.5622C42.7236 25.5622 38.3071 21.126 38.3071 15.6538Z" fill="white"/>
<rect x="47.178" y="10.0752" width="2.16011" height="10.8775" fill="white"/>
<path fill-rule="evenodd" clip-rule="evenodd" d="M7.89259 29.4727C5.51921 28.162 3.54608 26.2268 2.18508 23.8748C0.782056 21.4385 0.0621337 18.666 0.101773 15.8517C0.0622839 13.039 0.782226 10.2681 2.18508 7.83342C3.54608 5.48141 5.51921 3.54618 7.89259 2.23557C10.3906 0.857309 13.2034 0.157632 16.053 0.205688C18.1449 0.18579 20.2227 0.551871 22.183 1.28572C24.0054 1.9685 25.6476 3.06212 26.9832 4.48243L25.5767 5.9289C23.103 3.49883 19.9508 2.28218 16.1202 2.27897C13.6675 2.24858 11.2485 2.85476 9.09746 4.03884C7.0307 5.17609 5.31523 6.86248 4.13879 8.91346C2.92845 11.0215 2.30658 13.4184 2.33869 15.8517C2.30667 18.2865 2.9285 20.6849 4.13879 22.7948C5.31415 24.8454 7.03 26.5305 9.09746 27.6646C11.2473 28.8524 13.6668 29.4604 16.1202 29.4293C19.922 29.4293 23.0662 28.1949 25.5527 25.7263L26.9592 27.1728C25.6217 28.5954 23.9805 29.6949 22.159 30.3888C20.2028 31.1335 18.1257 31.5063 16.0338 31.4881C13.1922 31.535 10.3871 30.8406 7.89259 29.4727Z" fill="#262642"/>
<path fill-rule="evenodd" clip-rule="evenodd" d="M97.6574 0.42749V31.2856H95.8141L74.885 4.48244V31.2808H72.6481V0.42749H74.5346L95.4205 27.2258V0.42749H97.6574Z" fill="#262642"/>
<path fill-rule="evenodd" clip-rule="evenodd" d="M110.028 30.3308C108.217 29.7101 106.574 28.6771 105.227 27.3125L106.259 25.649C107.491 26.8922 108.981 27.8471 110.623 28.4456C112.458 29.1676 114.412 29.534 116.383 29.5256C119.311 29.5256 121.521 28.9679 123.012 27.8525C124.431 26.8702 125.269 25.2434 125.249 23.5131C125.31 22.2956 124.883 21.1043 124.064 20.2055C123.237 19.3619 122.233 18.7144 121.126 18.3106C119.574 17.759 117.99 17.3033 116.383 16.9461C114.553 16.5008 112.751 15.9437 110.988 15.2778C109.648 14.7658 108.456 13.9255 107.522 12.8333C106.562 11.734 106.082 10.257 106.082 8.40227C106.071 6.94319 106.483 5.51239 107.268 4.28464C108.154 2.95509 109.414 1.91975 110.887 1.30973C112.812 0.514966 114.883 0.138668 116.964 0.205586C118.659 0.205083 120.345 0.458595 121.966 0.957752C123.485 1.39794 124.923 2.08352 126.224 2.98764L125.389 4.79091C124.148 3.93462 122.778 3.28349 121.332 2.86228C119.916 2.42801 118.445 2.20385 116.964 2.1969C114.125 2.1969 111.975 2.77067 110.513 3.9182C109.105 4.95592 108.287 6.61531 108.319 8.36852C108.262 9.58236 108.689 10.7689 109.504 11.6665C110.325 12.5109 111.324 13.1585 112.428 13.5614C114 14.1209 115.603 14.591 117.228 14.9693C119.06 15.4001 120.864 15.946 122.628 16.6038C123.951 17.119 125.132 17.9458 126.07 19.0146C127.03 20.0849 127.51 21.5362 127.51 23.354C127.523 24.81 127.103 26.2368 126.305 27.4523C125.385 28.7825 124.094 29.8105 122.595 30.4079C120.645 31.1938 118.555 31.568 116.455 31.5073C114.259 31.5156 112.08 31.1168 110.028 30.3308Z" fill="#262642"/>
<path fill-rule="evenodd" clip-rule="evenodd" d="M158.366 17.9684C159.525 19.2895 160.102 21.0092 160.099 23.1275C160.099 25.7408 159.149 27.753 157.248 29.1641C155.347 30.5752 152.524 31.2808 148.78 31.2808H135.09V0.42749H147.902C151.24 0.42749 153.836 1.11055 155.693 2.47666C157.549 3.84277 158.477 5.78908 158.477 8.31559C158.53 9.91332 158.043 11.482 157.094 12.7659C156.136 13.9979 154.827 14.9063 153.34 15.3696C155.536 15.7939 157.211 16.6601 158.366 17.9684ZM137.327 2.36576V14.6656H147.815C150.503 14.6656 152.572 14.1433 154.022 13.0986C155.472 12.0539 156.197 10.5191 156.197 8.49399C156.197 6.49143 155.472 4.97102 154.022 3.93278C152.572 2.89453 150.503 2.37219 147.815 2.36576H137.327ZM157.872 22.9539C157.872 25.1268 157.104 26.734 155.568 27.7755H155.558C154.006 28.8201 151.747 29.3425 148.78 29.3425H137.327V16.5894H148.79C151.772 16.5862 154.032 17.1005 155.568 18.1323C157.104 19.1738 157.872 20.781 157.872 22.9539Z" fill="#262642"/>
<path fill-rule="evenodd" clip-rule="evenodd" d="M168.111 0.42749H170.348V31.2856H168.111V0.42749Z" fill="#262642"/>
<path fill-rule="evenodd" clip-rule="evenodd" d="M186.913 2.45255H175.873V0.42749H200.225V2.45255H189.184V31.2808H186.947L186.913 2.45255Z" fill="#262642"/>
</svg>
