<svg width="167" height="40" viewBox="0 0 167 40" fill="none" xmlns="http://www.w3.org/2000/svg">
<g clip-path="url(#clip0)">
<path fill-rule="evenodd" clip-rule="evenodd" d="M4.08493 9.15943C3.77289 8.87575 3.17717 8.70554 2.29777 8.70554C1.41838 8.70554 0.794293 8.87575 0.482249 9.15943C0.170206 9.47147 0 10.0105 0 10.8047C0 11.5707 0.141838 12.1097 0.453881 12.3933C0.765925 12.677 1.36164 12.8188 2.24104 12.8188C3.12043 12.8188 3.71615 12.677 4.0282 12.365C4.36861 12.0529 4.51045 11.5139 4.51045 10.7196C4.53881 10.0105 4.39698 9.47147 4.08493 9.15943ZM4.53881 15.3436C4.53881 15.2301 4.51045 15.145 4.42534 15.0883C4.36861 15.0031 4.25514 14.9464 4.08493 14.8897C3.94309 14.8329 3.71615 14.7762 3.46085 14.7478C3.20554 14.7195 2.86513 14.6911 2.46798 14.6911C2.07083 14.6911 1.73042 14.7195 1.47511 14.7478C1.21981 14.7762 0.992866 14.8329 0.851028 14.8897C0.680822 14.9464 0.567352 15.0315 0.510617 15.0883C0.453881 15.1734 0.425514 15.2585 0.425514 15.3436V29.2153C0.425514 29.3288 0.453881 29.4139 0.510617 29.499C0.567352 29.5841 0.680822 29.6408 0.851028 29.6976C1.02123 29.7543 1.21981 29.7827 1.47511 29.811C1.73042 29.8394 2.07083 29.8394 2.46798 29.8394C2.86513 29.8394 3.20554 29.8394 3.46085 29.811C3.71615 29.7827 3.94309 29.7543 4.08493 29.6976C4.25514 29.6408 4.36861 29.5841 4.42534 29.499C4.48208 29.4139 4.53881 29.3288 4.53881 29.2153V15.3436Z" fill="#262642"/>
<path fill-rule="evenodd" clip-rule="evenodd" d="M20.7084 20.535C20.7084 19.5137 20.6233 18.6343 20.453 17.9252C20.2828 17.1876 19.9992 16.5635 19.602 16.0245C19.2049 15.4855 18.6943 15.06 18.0702 14.7196C17.4177 14.4076 16.6518 14.2374 15.744 14.2374C14.893 14.2374 14.0987 14.4643 13.3044 14.9182C12.5385 15.3721 11.7726 16.0245 11.0066 16.9323V15.3153C11.0066 15.2019 10.9783 15.1168 10.9215 15.0317C10.8648 14.9466 10.7797 14.8898 10.6662 14.8331C10.5244 14.7764 10.3542 14.748 10.1272 14.7196C9.90031 14.6912 9.61663 14.6629 9.27622 14.6629C8.93581 14.6629 8.65213 14.6912 8.42519 14.7196C8.19825 14.748 8.02804 14.7764 7.88621 14.8331C7.74437 14.8898 7.65927 14.9466 7.60253 15.0317C7.5458 15.1168 7.51743 15.2019 7.51743 15.3153V29.2155C7.51743 29.3289 7.5458 29.414 7.60253 29.4991C7.65927 29.5842 7.77274 29.641 7.94294 29.6977C8.11315 29.7544 8.31172 29.7828 8.56703 29.8112C8.82234 29.8395 9.16275 29.8395 9.5599 29.8395C9.95704 29.8395 10.2975 29.8395 10.5528 29.8112C10.8081 29.7828 11.035 29.7544 11.1768 29.6977C11.3471 29.641 11.4605 29.5842 11.5173 29.4991C11.574 29.414 11.6307 29.3289 11.6307 29.2155V19.6556C12.1413 18.9464 12.6236 18.379 13.1058 18.0103C13.5881 17.6415 14.042 17.4429 14.4959 17.4429C14.8646 17.4429 15.1767 17.528 15.4604 17.6698C15.744 17.84 15.971 18.0386 16.1412 18.3223C16.3114 18.606 16.4532 18.9464 16.5383 19.3435C16.6234 19.7407 16.6802 20.2797 16.6802 20.9889V29.1871C16.6802 29.3006 16.7085 29.3857 16.7936 29.4708C16.8504 29.5559 16.9638 29.6126 17.134 29.6693C17.2759 29.7261 17.5028 29.7544 17.7581 29.7828C18.0134 29.8112 18.3538 29.8112 18.751 29.8112C19.1481 29.8112 19.4602 29.8112 19.7439 29.7828C19.9992 29.7544 20.2261 29.7261 20.3679 29.6693C20.5098 29.6126 20.6233 29.5559 20.7084 29.4708C20.7651 29.3857 20.7935 29.3006 20.7935 29.1871V20.535H20.7084Z" fill="#262642"/>
<path fill-rule="evenodd" clip-rule="evenodd" d="M32.254 27.4565C32.2256 27.2863 32.1972 27.1445 32.1689 27.031C32.1405 26.9175 32.0838 26.8608 32.027 26.8041C31.9703 26.7757 31.9136 26.7473 31.8568 26.7473C31.7717 26.7473 31.6866 26.7757 31.6015 26.8041C31.5164 26.8324 31.4029 26.8892 31.2895 26.9175C31.1476 26.9743 31.0058 27.0026 30.8356 27.0594C30.6654 27.0877 30.4668 27.1161 30.2682 27.1161C29.6442 27.1161 29.2186 26.9175 28.9917 26.5204C28.7364 26.1233 28.6229 25.5275 28.6229 24.7332V17.925H31.6582C31.8568 17.925 31.9987 17.8115 32.1121 17.5562C32.2256 17.3009 32.254 16.9038 32.254 16.3081C32.254 15.996 32.254 15.7407 32.2256 15.5421C32.1972 15.3436 32.1689 15.1734 32.1121 15.0599C32.0554 14.9464 31.9987 14.8613 31.9136 14.8046C31.8285 14.7478 31.7434 14.7195 31.6299 14.7195H28.6229V11.6558C28.6229 11.5423 28.5946 11.4572 28.5378 11.3721C28.4527 11.287 28.3676 11.2303 28.1974 11.1735C28.0272 11.1168 27.8286 11.0884 27.5733 11.0601C27.2896 11.0317 26.9776 11.0033 26.5805 11.0033C26.1833 11.0033 25.8429 11.0033 25.5876 11.0601C25.3039 11.0884 25.1053 11.1168 24.9351 11.1735C24.7649 11.2303 24.6515 11.287 24.5947 11.3721C24.538 11.4572 24.5096 11.5423 24.5096 11.6558V14.6911H22.8643C22.7508 14.6911 22.6657 14.7195 22.5806 14.7762C22.4955 14.833 22.4388 14.9181 22.382 15.0315C22.3253 15.145 22.2969 15.3152 22.2686 15.5138C22.2402 15.7407 22.2402 15.996 22.2402 16.2797C22.2402 16.847 22.2969 17.2726 22.4104 17.5279C22.5239 17.7832 22.6657 17.8966 22.8643 17.8966H24.538V25.2155C24.538 26.0949 24.6231 26.8324 24.8217 27.4849C24.9919 28.1374 25.2755 28.648 25.6727 29.0735C26.0698 29.499 26.5521 29.811 27.1194 30.0096C27.7152 30.2082 28.396 30.3217 29.1903 30.3217C29.5023 30.3217 29.786 30.2933 30.0697 30.2649C30.3533 30.2365 30.637 30.1798 30.8923 30.1231C31.1476 30.0663 31.3746 29.9812 31.5448 29.9245C31.7434 29.8394 31.8852 29.7543 31.9703 29.6692C32.0554 29.5841 32.1405 29.4139 32.1972 29.1586C32.254 28.9316 32.2823 28.5912 32.2823 28.1373C32.3107 27.882 32.2823 27.6267 32.254 27.4565Z" fill="#262642"/>
<path fill-rule="evenodd" clip-rule="evenodd" d="M37.0765 20.6767C37.0765 20.1661 37.1616 19.6839 37.3034 19.2583C37.4452 18.8045 37.6155 18.4073 37.8708 18.0953C38.1261 17.7549 38.4381 17.4995 38.8069 17.301C39.1757 17.1024 39.6295 17.0173 40.1118 17.0173C41.1047 17.0173 41.8422 17.3577 42.3245 18.0102C42.8067 18.6626 43.0337 19.5704 43.0053 20.7051H37.0765V20.6767ZM46.6363 21.3292C46.6363 20.3079 46.4945 19.3718 46.2676 18.5208C46.0123 17.6698 45.6151 16.9038 45.1045 16.2797C44.5655 15.6557 43.8847 15.1734 43.062 14.8046C42.2394 14.4358 41.2465 14.2656 40.0834 14.2656C38.9771 14.2656 37.9842 14.4642 37.1048 14.833C36.2254 15.2018 35.4879 15.7408 34.8638 16.4499C34.2397 17.1591 33.7858 18.0102 33.4738 19.0314C33.1334 20.0526 32.9915 21.1873 32.9915 22.4639C32.9915 23.7971 33.1334 24.9602 33.4454 25.9531C33.7575 26.946 34.2397 27.7686 34.8638 28.4211C35.4879 29.0735 36.2822 29.5558 37.2183 29.8678C38.1544 30.1799 39.2608 30.3501 40.5373 30.3501C41.2181 30.3501 41.8706 30.2933 42.4947 30.2366C43.1188 30.1515 43.6577 30.0664 44.14 29.9529C44.6222 29.8394 44.991 29.726 45.3031 29.6125C45.6151 29.499 45.7853 29.4139 45.8704 29.3288C45.9555 29.2437 46.0123 29.187 46.0406 29.1019C46.0974 29.0168 46.1257 28.9317 46.1257 28.8182C46.1541 28.7047 46.1541 28.5913 46.1825 28.4211C46.1825 28.2792 46.1825 28.0807 46.1825 27.8537C46.1825 27.5984 46.1825 27.3998 46.1541 27.2296C46.1541 27.0594 46.1257 26.946 46.069 26.8608C46.0123 26.7757 45.9839 26.719 45.8988 26.6623C45.8421 26.6339 45.7569 26.6055 45.6718 26.6055C45.5016 26.6055 45.3031 26.6623 45.0478 26.7474C44.7925 26.8608 44.4804 26.946 44.0833 27.0594C43.6861 27.1729 43.2322 27.2864 42.7216 27.3715C42.1826 27.4849 41.5869 27.5133 40.9061 27.5133C40.2253 27.5133 39.6295 27.4282 39.1473 27.2296C38.6651 27.0311 38.2679 26.7757 37.9559 26.407C37.6438 26.0382 37.4169 25.6127 37.275 25.1021C37.1332 24.5914 37.0481 24.0241 37.0481 23.3716H45.4165C45.7853 23.3716 46.069 23.2582 46.2959 23.0312C46.5229 22.8043 46.608 22.4355 46.608 21.9249V21.3292H46.6363Z" fill="#262642"/>
<path fill-rule="evenodd" clip-rule="evenodd" d="M52.7921 8.93252C52.7921 8.81905 52.7637 8.73394 52.6786 8.64884C52.6219 8.56374 52.5084 8.507 52.3382 8.45027C52.168 8.39353 51.9694 8.3368 51.7141 8.30843C51.4588 8.28006 51.1184 8.25169 50.7212 8.25169C50.3241 8.25169 49.9837 8.28006 49.7284 8.30843C49.4731 8.3368 49.2461 8.39353 49.1043 8.45027C48.9341 8.507 48.8206 8.5921 48.7639 8.64884C48.7071 8.73394 48.6788 8.81905 48.6788 8.93252V29.2437C48.6788 29.3572 48.7071 29.4423 48.7639 29.5274C48.8206 29.6125 48.9341 29.6692 49.1043 29.726C49.2745 29.7827 49.4731 29.8111 49.7284 29.8394C49.9837 29.8678 50.3241 29.8678 50.7212 29.8678C51.1184 29.8678 51.4588 29.8678 51.7141 29.8394C51.9694 29.8111 52.1964 29.7827 52.3382 29.726C52.5084 29.6692 52.6219 29.6125 52.6786 29.5274C52.7353 29.4423 52.7921 29.3572 52.7921 29.2437V8.93252Z" fill="#262642"/>
<path fill-rule="evenodd" clip-rule="evenodd" d="M59.8272 8.93252C59.8272 8.81905 59.7989 8.73394 59.7138 8.64884C59.657 8.56374 59.5436 8.507 59.3734 8.45027C59.2032 8.39353 59.0046 8.3368 58.7493 8.30843C58.494 8.28006 58.1536 8.25169 57.7564 8.25169C57.3593 8.25169 57.0188 8.28006 56.7635 8.30843C56.5082 8.3368 56.2813 8.39353 56.1394 8.45027C55.9692 8.507 55.8558 8.5921 55.799 8.64884C55.7423 8.73394 55.7139 8.81905 55.7139 8.93252V29.2437C55.7139 29.3572 55.7423 29.4423 55.799 29.5274C55.8558 29.6125 55.9692 29.6692 56.1394 29.726C56.3097 29.7827 56.5082 29.8111 56.7635 29.8394C57.0188 29.8678 57.3593 29.8678 57.7564 29.8678C58.1536 29.8678 58.494 29.8678 58.7493 29.8394C59.0046 29.8111 59.2315 29.7827 59.3734 29.726C59.5152 29.6692 59.657 29.6125 59.7138 29.5274C59.7705 29.4423 59.8272 29.3572 59.8272 29.2437V8.93252Z" fill="#262642"/>
<path fill-rule="evenodd" clip-rule="evenodd" d="M66.4085 9.15943C66.0965 8.87575 65.5007 8.70554 64.6213 8.70554C63.7419 8.70554 63.1179 8.87575 62.8058 9.15943C62.4938 9.47147 62.3236 10.0105 62.3236 10.8047C62.3236 11.5707 62.4654 12.1097 62.7774 12.3933C63.0895 12.677 63.6852 12.8188 64.5646 12.8188C65.444 12.8188 66.0397 12.677 66.3518 12.365C66.6922 12.0529 66.834 11.5139 66.834 10.7196C66.8908 10.0105 66.7205 9.47147 66.4085 9.15943ZM66.8907 15.3436C66.8907 15.2301 66.8624 15.145 66.8056 15.0883C66.7489 15.0031 66.6354 14.9464 66.4652 14.8897C66.295 14.8329 66.0965 14.7762 65.8412 14.7478C65.5858 14.7195 65.2454 14.6911 64.8483 14.6911C64.4511 14.6911 64.1107 14.7195 63.8554 14.7478C63.6001 14.7762 63.3732 14.8329 63.2313 14.8897C63.0611 14.9464 62.9477 15.0315 62.8909 15.0883C62.8342 15.1734 62.8058 15.2585 62.8058 15.3436V29.2153C62.8058 29.3288 62.8342 29.4139 62.8909 29.499C62.9477 29.5841 63.0611 29.6408 63.2313 29.6976C63.4015 29.7543 63.6001 29.7827 63.8554 29.811C64.1107 29.8394 64.4511 29.8394 64.8483 29.8394C65.2454 29.8394 65.5858 29.8394 65.8412 29.811C66.0965 29.7827 66.3234 29.7543 66.4652 29.6976C66.6354 29.6408 66.7489 29.5841 66.8056 29.499C66.8624 29.4139 66.8907 29.3288 66.8907 29.2153V15.3436Z" fill="#262642"/>
<path fill-rule="evenodd" clip-rule="evenodd" d="M78.2378 31.5699C78.1243 31.8535 77.9541 32.0805 77.6988 32.3358C77.4435 32.5627 77.1315 32.7329 76.7343 32.8748C76.3372 33.0166 75.8266 33.0734 75.2309 33.0734C74.2664 33.0734 73.5288 32.9031 73.0182 32.6195C72.4792 32.3074 72.2239 31.8535 72.2239 31.2862C72.2239 31.0876 72.2523 30.9174 72.2806 30.7472C72.309 30.577 72.3657 30.3784 72.4792 30.2082C72.5927 30.0097 72.7061 29.8111 72.8763 29.6125C73.0465 29.4139 73.2451 29.187 73.5288 28.9601L76.3088 29.0452C76.9613 29.0735 77.4719 29.2154 77.8407 29.499C78.2094 29.7827 78.408 30.1799 78.408 30.7188C78.3797 31.0025 78.3229 31.2862 78.2378 31.5699ZM77.3301 20.1661C77.2166 20.4498 77.0747 20.6767 76.8762 20.9037C76.6776 21.1306 76.4507 21.2724 76.167 21.4143C75.8833 21.5277 75.5429 21.5845 75.1458 21.5845C74.4082 21.5845 73.8125 21.3859 73.4153 20.9888C72.9898 20.5916 72.7912 20.0526 72.7912 19.3718C72.7912 19.0598 72.8196 18.7477 72.9331 18.464C73.0182 18.1804 73.16 17.9251 73.3586 17.6981C73.5572 17.4712 73.7841 17.301 74.0962 17.1875C74.3798 17.0457 74.7202 16.9889 75.1174 16.9889C75.8833 16.9889 76.4507 17.1875 76.8762 17.613C77.3017 18.0102 77.5003 18.5775 77.5003 19.3151C77.4719 19.5987 77.4152 19.8824 77.3301 20.1661ZM82.3228 15.0316C82.2093 14.8046 82.0674 14.7195 81.8972 14.7195H77.5003C77.1599 14.5777 76.7911 14.4642 76.3939 14.3791C75.9968 14.294 75.5713 14.2656 75.1458 14.2656C74.2947 14.2656 73.5004 14.3791 72.8196 14.6061C72.1104 14.833 71.5147 15.1734 71.0041 15.5989C70.4935 16.0528 70.0963 16.5918 69.8126 17.2159C69.529 17.8683 69.3871 18.5775 69.3871 19.3718C69.3871 20.1377 69.5006 20.7618 69.7275 21.2724C69.9545 21.7831 70.2382 22.2086 70.6069 22.5773C70.1531 23.0312 69.7843 23.5135 69.5006 24.0525C69.2169 24.5914 69.0751 25.2155 69.0751 25.868C69.0751 26.407 69.1886 26.8892 69.4439 27.3431C69.6992 27.797 70.0396 28.1374 70.4935 28.3927C70.1531 28.648 69.8694 28.9033 69.6424 29.1586C69.3871 29.4423 69.1886 29.726 69.0184 30.0097C68.8481 30.2933 68.7063 30.6054 68.6212 30.9458C68.5361 31.2578 68.5077 31.5982 68.5077 31.967C68.5077 32.5344 68.6212 33.045 68.8765 33.5272C69.1318 33.9811 69.5006 34.4066 70.0396 34.747C70.5786 35.0875 71.2594 35.3428 72.0821 35.5413C72.9047 35.7399 73.9259 35.825 75.1174 35.825C76.3372 35.825 77.3868 35.6832 78.2946 35.4279C79.2023 35.1442 79.9682 34.7754 80.564 34.3215C81.1597 33.8393 81.6136 33.3003 81.9256 32.6478C82.2376 31.9954 82.3795 31.3146 82.3795 30.6054C82.3795 29.9529 82.266 29.3572 82.0391 28.8466C81.8121 28.336 81.5001 27.8821 81.0746 27.5133C80.6491 27.1445 80.1384 26.8609 79.5144 26.6623C78.8903 26.4637 78.1811 26.3502 77.4152 26.2935L74.0394 26.1517C73.5572 26.1233 73.1884 26.0098 72.9331 25.8112C72.6494 25.6127 72.5359 25.329 72.5359 24.9886C72.5359 24.7333 72.5927 24.5063 72.6778 24.3078C72.7912 24.1092 72.8763 23.939 73.0182 23.7688C73.2451 23.9106 73.5572 24.0525 73.9543 24.1376C74.3515 24.251 74.777 24.3078 75.2309 24.3078C76.1103 24.3078 76.8762 24.1943 77.5854 23.9674C78.2946 23.7404 78.8903 23.4284 79.4009 23.0029C79.9115 22.5773 80.2803 22.0384 80.564 21.4143C80.8476 20.7902 80.9611 20.081 80.9611 19.2583C80.9611 18.9179 80.9044 18.5775 80.8193 18.2655C80.7058 17.9534 80.564 17.6698 80.337 17.4144H81.954C82.1242 17.4144 82.266 17.301 82.3795 17.074C82.493 16.8471 82.5497 16.5067 82.5497 16.0528C82.493 15.5705 82.4362 15.2301 82.3228 15.0316Z" fill="#262642"/>
<path fill-rule="evenodd" clip-rule="evenodd" d="M87.3721 20.6767C87.3721 20.1661 87.4572 19.6839 87.5991 19.2583C87.7409 18.8045 87.9111 18.4073 88.1664 18.0953C88.4217 17.7549 88.7338 17.4995 89.1026 17.301C89.4714 17.1024 89.9252 17.0173 90.4075 17.0173C91.4003 17.0173 92.1379 17.3577 92.6202 18.0102C93.1024 18.6626 93.3293 19.5704 93.301 20.7051H87.3721V20.6767ZM96.932 21.3292C96.932 20.3079 96.7902 19.3718 96.5632 18.5208C96.3079 17.6698 95.9108 16.9038 95.4002 16.2797C94.8612 15.6557 94.1804 15.1734 93.3577 14.8046C92.5351 14.4358 91.5422 14.2656 90.3791 14.2656C89.2728 14.2656 88.2799 14.4642 87.4005 14.833C86.5211 15.2018 85.7836 15.7408 85.1595 16.4499C84.5354 17.1591 84.0815 18.0102 83.7695 19.0314C83.429 20.0526 83.2872 21.1873 83.2872 22.4639C83.2872 23.7971 83.4291 24.9602 83.7411 25.9531C84.0531 26.946 84.5354 27.7686 85.1595 28.4211C85.7836 29.0735 86.5779 29.5558 87.514 29.8678C88.4501 30.1799 89.5565 30.3501 90.833 30.3501C91.5138 30.3501 92.1663 30.2933 92.7904 30.2366C93.4144 30.1515 93.9534 30.0664 94.4357 29.9529C94.9179 29.8394 95.2867 29.726 95.5987 29.6125C95.9108 29.499 96.081 29.4139 96.1661 29.3288C96.2512 29.2437 96.3079 29.187 96.3363 29.1019C96.3647 29.0168 96.4214 28.9317 96.4214 28.8182C96.4498 28.7047 96.4498 28.5913 96.4781 28.4211C96.4781 28.2792 96.4781 28.0807 96.4781 27.8537C96.4781 27.5984 96.4781 27.3998 96.4498 27.2296C96.4498 27.0594 96.4214 26.946 96.3647 26.8608C96.3363 26.7757 96.2796 26.719 96.2228 26.6623C96.1661 26.6339 96.081 26.6055 95.9959 26.6055C95.8257 26.6055 95.6271 26.6623 95.3718 26.7474C95.1165 26.8608 94.8045 26.946 94.4073 27.0594C94.0102 27.1729 93.5563 27.2864 93.0457 27.3715C92.5067 27.4849 91.911 27.5133 91.2301 27.5133C90.5493 27.5133 89.9536 27.4282 89.4713 27.2296C88.9891 27.0311 88.592 26.7757 88.2799 26.407C87.9679 26.0382 87.7409 25.6127 87.5991 25.1021C87.4572 24.5914 87.3721 24.0241 87.3721 23.3716H95.7406C96.1094 23.3716 96.393 23.2582 96.62 23.0312C96.8469 22.8043 96.932 22.4355 96.932 21.9249V21.3292Z" fill="#262642"/>
<path fill-rule="evenodd" clip-rule="evenodd" d="M112.165 20.535C112.165 19.5137 112.08 18.6343 111.91 17.9252C111.74 17.1876 111.456 16.5635 111.059 16.0245C110.662 15.4855 110.151 15.06 109.527 14.7196C108.875 14.4076 108.109 14.2374 107.201 14.2374C106.35 14.2374 105.556 14.4643 104.762 14.9182C103.996 15.3721 103.23 16.0245 102.464 16.9323V15.3153C102.464 15.2019 102.435 15.1168 102.379 15.0317C102.322 14.9466 102.237 14.8898 102.123 14.8331C101.981 14.7764 101.811 14.748 101.584 14.7196C101.357 14.6912 101.074 14.6629 100.733 14.6629C100.393 14.6629 100.109 14.6912 99.8823 14.7196C99.6554 14.748 99.4851 14.7764 99.3433 14.8331C99.2015 14.8898 99.1164 14.9466 99.0596 15.0317C99.0029 15.1168 98.9745 15.2019 98.9745 15.3153V29.2155C98.9745 29.3289 99.0029 29.414 99.0596 29.4991C99.1164 29.5842 99.2298 29.641 99.4 29.6977C99.5702 29.7544 99.7688 29.7828 100.024 29.8112C100.279 29.8395 100.62 29.8395 101.017 29.8395C101.414 29.8395 101.755 29.8395 102.01 29.8112C102.265 29.7828 102.492 29.7544 102.634 29.6977C102.804 29.641 102.918 29.5842 102.974 29.4991C103.031 29.414 103.088 29.3289 103.088 29.2155V19.6556C103.598 18.9464 104.081 18.379 104.563 18.0103C105.045 17.6415 105.499 17.4429 105.953 17.4429C106.322 17.4429 106.634 17.528 106.917 17.6698C107.201 17.84 107.428 18.0386 107.598 18.3223C107.768 18.606 107.91 18.9464 107.995 19.3435C108.081 19.7407 108.137 20.2797 108.137 20.9889V29.1871C108.137 29.3006 108.166 29.3857 108.251 29.4708C108.307 29.5559 108.421 29.6126 108.591 29.6693C108.733 29.7261 108.96 29.7544 109.215 29.7828C109.471 29.8112 109.811 29.8112 110.208 29.8112C110.605 29.8112 110.917 29.8112 111.201 29.7828C111.456 29.7544 111.683 29.7261 111.825 29.6693C111.967 29.6126 112.08 29.5559 112.165 29.4708C112.222 29.3857 112.279 29.3006 112.279 29.1871V20.535H112.165Z" fill="#262642"/>
<path fill-rule="evenodd" clip-rule="evenodd" d="M123.739 27.4565C123.711 27.2863 123.683 27.1445 123.654 27.031C123.626 26.9175 123.598 26.8608 123.541 26.8041C123.484 26.7757 123.427 26.7473 123.371 26.7473C123.286 26.7473 123.2 26.7757 123.115 26.8041C123.03 26.8324 122.917 26.8892 122.803 26.9175C122.661 26.9743 122.52 27.0026 122.349 27.0594C122.179 27.0877 121.981 27.1161 121.782 27.1161C121.158 27.1161 120.732 26.9175 120.506 26.5204C120.25 26.1233 120.137 25.5275 120.137 24.7332V17.925H123.172C123.371 17.925 123.512 17.8115 123.626 17.5562C123.711 17.3009 123.768 16.9038 123.768 16.3081C123.768 15.996 123.768 15.7407 123.739 15.5421C123.711 15.3436 123.683 15.1734 123.626 15.0599C123.569 14.9464 123.512 14.8613 123.427 14.8046C123.342 14.7478 123.257 14.7195 123.144 14.7195H120.137V11.6558C120.137 11.5423 120.108 11.4572 120.052 11.3721C119.967 11.287 119.881 11.2303 119.711 11.1735C119.541 11.1168 119.342 11.0884 119.087 11.0601C118.803 11.0317 118.491 11.0033 118.094 11.0033C117.697 11.0033 117.357 11.0033 117.101 11.0601C116.818 11.0884 116.619 11.1168 116.449 11.1735C116.279 11.2303 116.165 11.287 116.109 11.3721C116.052 11.4572 116.023 11.5423 116.023 11.6558V14.6911H114.378C114.265 14.6911 114.18 14.7195 114.094 14.7762C114.009 14.833 113.953 14.9181 113.896 15.0315C113.839 15.145 113.811 15.3152 113.782 15.5138C113.754 15.7407 113.754 15.996 113.754 16.2797C113.754 16.847 113.811 17.2726 113.924 17.5279C114.038 17.7832 114.18 17.8966 114.378 17.8966H116.052V25.2155C116.052 26.0949 116.137 26.8324 116.335 27.4849C116.506 28.1374 116.789 28.648 117.187 29.0735C117.584 29.499 118.066 29.811 118.633 30.0096C119.229 30.2082 119.91 30.3217 120.704 30.3217C121.016 30.3217 121.3 30.2933 121.583 30.2649C121.867 30.2365 122.151 30.1798 122.406 30.1231C122.661 30.0663 122.888 29.9812 123.059 29.9245C123.257 29.8394 123.399 29.7543 123.484 29.6692C123.569 29.5841 123.654 29.4139 123.711 29.1586C123.768 28.9316 123.796 28.5912 123.796 28.1373C123.768 27.882 123.768 27.6267 123.739 27.4565Z" fill="#262642"/>
<path fill-rule="evenodd" clip-rule="evenodd" d="M155.88 13.7832C154.291 13.7832 153.1 14.3222 152.249 15.4285C151.398 16.5349 150.972 18.0951 150.972 20.1376C150.972 22.18 151.398 23.7402 152.249 24.7898C153.1 25.8962 154.291 26.4352 155.88 26.4352C156.391 26.4352 156.759 26.4068 157.015 26.3217C157.383 26.2082 157.724 26.0947 157.979 25.9529L156.164 24.109L156.759 23.4282C157.015 23.1161 157.383 22.9176 157.866 22.8608C158.32 22.8041 158.717 22.8608 159.029 23.0594L160.078 23.9104C160.334 23.4566 160.532 22.8892 160.702 22.2084C160.731 21.8963 160.787 21.5559 160.844 21.2155C160.901 20.8751 160.929 20.5347 160.929 20.1376C160.929 18.1518 160.475 16.5916 159.596 15.4285C158.632 14.3222 157.412 13.7832 155.88 13.7832Z" fill="#262642"/>
<path fill-rule="evenodd" clip-rule="evenodd" d="M147.199 0.450668C136.278 0.450668 127.399 9.30136 127.399 20.1945C127.399 31.116 136.25 39.9384 147.199 39.9384C158.149 39.9384 167 31.0877 167 20.1945C167 9.30136 158.149 0.450668 147.199 0.450668ZM146.15 29.3289H142.575V21.1306H135.398V29.3289H131.824V12.8189C131.824 12.28 131.994 11.8261 132.363 11.4573C132.704 11.0885 133.157 10.8899 133.64 10.8899H135.398V17.7265H142.575V10.8899H146.15V29.3289ZM163.482 29.3572C163.142 29.6977 162.802 29.8679 162.404 29.8111C162.036 29.7544 161.724 29.6126 161.497 29.414L160.475 28.4495C159.851 28.9034 159.199 29.2154 158.433 29.3572C157.61 29.5558 156.759 29.6693 155.852 29.6693C153.213 29.6693 151.114 28.8183 149.611 27.1446C148.107 25.4425 147.37 23.1164 147.37 20.1661C147.37 17.2159 148.107 14.8614 149.611 13.131C151.199 11.4006 153.298 10.5495 155.88 10.5495C158.433 10.5495 160.532 11.4289 162.149 13.131C163.681 14.8898 164.447 17.2443 164.447 20.1661C164.447 21.4427 164.305 22.6058 163.993 23.6554C163.681 24.7617 163.227 25.6695 162.575 26.4637L164.447 28.3644L163.482 29.3572Z" fill="#262642"/>
</g>
<defs>
<clipPath id="clip0">
<rect width="167" height="39.5161" fill="white" transform="translate(0 0.450684)"/>
</clipPath>
</defs>
</svg>
