<svg width="79" height="34" viewBox="0 0 79 34" fill="none" xmlns="http://www.w3.org/2000/svg">
<path fill-rule="evenodd" clip-rule="evenodd" d="M0 0V33.4673H11.1804V0H0ZM67.5051 0V33.4673H78.6855V0H67.5051ZM40.6432 33.4673C43.284 33.4673 45.4248 31.3268 45.4248 28.6863C45.4248 26.0458 43.284 23.9052 40.6432 23.9052C38.0024 23.9052 35.8617 26.0458 35.8617 28.6863C35.8617 31.3268 38.0024 33.4673 40.6432 33.4673ZM53.6852 25.1509L59.9792 13.4222L52.7333 0.221941H40.0012L53.6852 25.1509ZM35.1066 11.9848C35.1066 5.36579 29.7005 0 23.0317 0V23.9697C29.7005 23.9697 35.1066 18.6039 35.1066 11.9848Z" fill="#262642"/>
</svg>
