<svg width="176" height="54" viewBox="0 0 176 54" fill="none" xmlns="http://www.w3.org/2000/svg">
<path fill-rule="evenodd" clip-rule="evenodd" d="M78.6537 27.5403C78.9927 27.1538 79.2106 26.6232 79.2106 26.0182C79.2106 25.4384 78.9927 24.931 78.7021 24.5445C78.3147 24.1105 77.7337 23.8438 77.0557 23.8438H73.8356V28.1694H77.2252C77.8305 28.1694 78.339 27.9269 78.6537 27.5403M80.5906 29.0383C79.7674 29.909 78.5084 30.4637 77.1526 30.4637H73.8356V33.6297H71.244V21.5486H77.1526C78.4842 21.5486 79.6948 22.056 80.5422 22.9508C81.317 23.7239 81.8012 24.8102 81.8012 26.0182C81.8012 27.1779 81.3412 28.241 80.5906 29.0383" fill="#262642"/>
<path fill-rule="evenodd" clip-rule="evenodd" d="M91.1702 28.1694H94.4881C95.166 28.1694 95.7471 27.9037 96.1345 27.4446C96.4493 27.0581 96.6429 26.5507 96.6429 25.9941C96.6429 25.391 96.425 24.8344 96.0619 24.4478C95.6978 24.0613 95.166 23.8447 94.4881 23.8447H91.1702V28.1694ZM98.4094 28.6043C98.0221 29.1117 97.4661 29.594 96.885 29.909L99.0641 33.6297H96.1103L94.3912 30.4647H91.1702V33.6297H88.5804V21.5486H94.6082C96.0851 21.5486 97.3935 22.1526 98.2409 23.1673C98.8704 23.9172 99.2578 24.9069 99.2578 25.9941C99.2578 26.9605 98.943 27.8795 98.4094 28.6043V28.6043Z" fill="#262642"/>
<path fill-rule="evenodd" clip-rule="evenodd" d="M109.233 30.44C109.935 31.1648 110.903 31.5514 111.993 31.5514C113.058 31.5514 113.979 31.1648 114.656 30.4892C115.382 29.8118 115.795 28.7729 115.795 27.59C115.795 26.3811 115.382 25.3422 114.656 24.6657C113.979 24.0133 113.034 23.6268 111.993 23.6268C110.903 23.6268 109.911 24.0133 109.208 24.7623C108.555 25.4146 108.143 26.4052 108.143 27.59C108.143 28.7729 108.555 29.7635 109.233 30.44M116.642 23.216C117.755 24.3516 118.409 25.8978 118.409 27.59C118.409 29.3295 117.732 30.9474 116.52 32.1071C115.407 33.1952 113.833 33.8466 111.993 33.8466C110.128 33.8466 108.506 33.1459 107.368 32.0355C106.23 30.899 105.552 29.3045 105.552 27.59C105.552 25.8254 106.279 24.1825 107.514 23.0228C108.627 21.9597 110.153 21.3315 111.993 21.3315C113.857 21.3315 115.503 22.0564 116.642 23.216" fill="#262642"/>
<path fill-rule="evenodd" clip-rule="evenodd" d="M134.558 21.5486V23.868H127.779V26.599H133.808V28.8933H127.779V33.6297H125.187V21.5486H134.558Z" fill="#262642"/>
<path fill-rule="evenodd" clip-rule="evenodd" d="M147.798 25.3477L148.33 27.3316L141.244 29.2263L140.711 27.2424L147.798 25.3477Z" fill="#262642"/>
<mask id="mask0" mask-type="alpha" maskUnits="userSpaceOnUse" x="0" y="0" width="176" height="54">
<path fill-rule="evenodd" clip-rule="evenodd" d="M0 53.9949H175.475V0.000244141H0V53.9949Z" fill="white"/>
</mask>
<g mask="url(#mask0)">
<path fill-rule="evenodd" clip-rule="evenodd" d="M154.968 33.6297H157.583V21.5486H154.968V33.6297Z" fill="#262642"/>
<path fill-rule="evenodd" clip-rule="evenodd" d="M164.241 21.5486H175.475V23.8447H171.141V33.6297H168.55V23.8447H164.241V21.5486Z" fill="#262642"/>
<path fill-rule="evenodd" clip-rule="evenodd" d="M22.5806 32.9254L21.1149 31.4627L31.5287 21.0701L32.9953 22.5327L22.5806 32.9254Z" fill="#262642"/>
<path fill-rule="evenodd" clip-rule="evenodd" d="M21.7731 31.4627L22.5804 32.2684L32.3368 22.5327L31.5294 21.727L21.7731 31.4627ZM22.5804 33.5823L20.4563 31.4627L31.5294 20.4131L33.6535 22.5327L22.5804 33.5823Z" fill="#262642"/>
<path fill-rule="evenodd" clip-rule="evenodd" d="M3.59028 26.9973L28.5208 2.11961L27.0551 0.656982L0.658813 26.9973L14.5898 40.8988L16.0556 39.4362L3.59028 26.9973Z" fill="#262642"/>
<path fill-rule="evenodd" clip-rule="evenodd" d="M1.31689 26.9973L14.5895 40.2419L15.3978 39.4362L2.93162 26.9973L27.8622 2.11962L27.0548 1.31397L1.31689 26.9973ZM14.5895 41.5558L0.00012207 26.9973L27.0548 0L29.1789 2.11961L4.24833 26.9973L16.7145 39.4362L14.5895 41.5558Z" fill="#262642"/>
<path fill-rule="evenodd" clip-rule="evenodd" d="M39.5458 13.1213L38.0801 14.584L50.5193 26.9977L25.5887 51.8755L27.0545 53.3381L53.4517 26.9977L39.5458 13.1213Z" fill="#262642"/>
<path fill-rule="evenodd" clip-rule="evenodd" d="M26.2473 51.8752L27.0547 52.6809L52.7935 26.9975L39.546 13.7781L38.7386 14.5846L51.1778 26.9975L26.2473 51.8752ZM27.0546 53.9948L24.9305 51.8752L49.8611 26.9975L37.4219 14.5846L39.546 12.4641L54.1102 26.9975L27.0546 53.9948Z" fill="#262642"/>
</g>
</svg>
