<svg width="106" height="81" viewBox="0 0 106 81" fill="none" xmlns="http://www.w3.org/2000/svg">
<path d="M1.272 13.8107C1.60936 13.8107 1.93289 13.6767 2.17144 13.4382C2.40999 13.1996 2.544 12.8761 2.544 12.5387V2.544H12.5387C12.8761 2.544 13.1996 2.40999 13.4382 2.17144C13.6767 1.93289 13.8107 1.60936 13.8107 1.272C13.8107 0.934645 13.6767 0.611107 13.4382 0.372561C13.1996 0.134015 12.8761 0 12.5387 0H1.3498C0.99649 0.0145945 0.661577 0.161491 0.411534 0.411535C0.16149 0.661578 0.0145945 0.99649 0 1.3498V12.5387C0 12.8761 0.134014 13.1996 0.37256 13.4382C0.611106 13.6767 0.934645 13.8107 1.272 13.8107Z" fill="#BDBDC7"/>
<path d="M104.65 -1.52588e-05H93.461C93.1236 -1.52588e-05 92.8001 0.133999 92.5615 0.372546C92.323 0.611092 92.189 0.934629 92.189 1.27198C92.189 1.60934 92.323 1.93288 92.5615 2.17142C92.8001 2.40997 93.1236 2.54399 93.461 2.54399H103.456V12.5387C103.456 12.8761 103.59 13.1996 103.828 13.4382C104.067 13.6767 104.39 13.8107 104.728 13.8107C105.065 13.8107 105.389 13.6767 105.627 13.4382C105.866 13.1996 106 12.8761 106 12.5387V1.34979C105.985 0.996475 105.838 0.661563 105.588 0.411519C105.338 0.161476 105.003 0.0145792 104.65 -1.52588e-05Z" fill="#BDBDC7"/>
<path d="M104.728 66.7493C104.39 66.7493 104.067 66.8833 103.828 67.1218C103.59 67.3604 103.456 67.6839 103.456 68.0213V78.016H93.461C93.1236 78.016 92.8001 78.15 92.5615 78.3886C92.323 78.6271 92.189 78.9507 92.189 79.288C92.189 79.6254 92.323 79.9489 92.5615 80.1874C92.8001 80.426 93.1236 80.56 93.461 80.56H104.65C105.003 80.5454 105.338 80.3985 105.588 80.1485C105.838 79.8984 105.985 79.5635 106 79.2102V68.0213C106 67.6839 105.866 67.3604 105.627 67.1218C105.389 66.8833 105.065 66.7493 104.728 66.7493Z" fill="#BDBDC7"/>
<path d="M1.3498 80.56H12.5387C12.8761 80.56 13.1996 80.426 13.4382 80.1874C13.6767 79.9489 13.8107 79.6254 13.8107 79.288C13.8107 78.9507 13.6767 78.6271 13.4382 78.3886C13.1996 78.15 12.8761 78.016 12.5387 78.016H2.544V68.0213C2.544 67.6839 2.40999 67.3604 2.17144 67.1218C1.93289 66.8833 1.60936 66.7493 1.272 66.7493C0.934645 66.7493 0.611106 66.8833 0.37256 67.1218C0.134014 67.3604 0 67.6839 0 68.0213V79.2102C0.0145945 79.5635 0.16149 79.8984 0.411534 80.1485C0.661577 80.3985 0.99649 80.5454 1.3498 80.56Z" fill="#BDBDC7"/>
<path d="M49.0396 32.4382V35.8204C49.0396 37.7946 49.8238 39.688 51.2198 41.084C52.6158 42.48 54.5092 43.2643 56.4834 43.2643C58.4576 43.2643 60.351 42.48 61.747 41.084C63.143 39.688 63.9273 37.7946 63.9273 35.8204V32.4382C63.9273 31.4607 63.7347 30.4927 63.3606 29.5896C62.9865 28.6865 62.4382 27.8659 61.747 27.1746C61.0558 26.4834 60.2352 25.9351 59.3321 25.561C58.4289 25.1869 57.461 24.9944 56.4834 24.9944C55.5059 24.9944 54.5379 25.1869 53.6348 25.561C52.7316 25.9351 51.911 26.4834 51.2198 27.1746C50.5286 27.8659 49.9803 28.6865 49.6062 29.5896C49.2321 30.4927 49.0396 31.4607 49.0396 32.4382ZM56.4834 26.3536C58.0966 26.3555 59.6431 26.9972 60.7838 28.1378C61.9245 29.2785 62.5661 30.8251 62.568 32.4382V35.8204C62.568 37.4342 61.927 38.9818 60.7859 40.1229C59.6448 41.264 58.0971 41.905 56.4834 41.905C54.8697 41.905 53.322 41.264 52.1809 40.1229C51.0399 38.9818 50.3988 37.4342 50.3988 35.8204V32.4382C50.4007 30.8251 51.0423 29.2785 52.183 28.1378C53.3237 26.9972 54.8702 26.3555 56.4834 26.3536Z" fill="#262642"/>
<path d="M36.6712 29.317C34.9213 29.319 33.2436 30.015 32.0062 31.2524C30.7688 32.4898 30.0728 34.1675 30.0708 35.9175V38.8778C30.0708 40.6283 30.7662 42.3072 32.004 43.545C33.2418 44.7828 34.9207 45.4782 36.6712 45.4782C38.4218 45.4782 40.1006 44.7828 41.3385 43.545C42.5763 42.3072 43.2717 40.6283 43.2717 38.8778V35.9175C43.2697 34.1675 42.5737 32.4898 41.3363 31.2524C40.0989 30.015 38.4212 29.319 36.6712 29.317ZM41.9124 38.8778C41.9124 40.2679 41.3602 41.601 40.3773 42.5839C39.3944 43.5668 38.0613 44.119 36.6712 44.119C35.2812 44.119 33.9481 43.5668 32.9652 42.5839C31.9823 41.601 31.4301 40.2679 31.4301 38.8778V35.9175C31.4301 34.5274 31.9823 33.1943 32.9652 32.2114C33.9481 31.2285 35.2812 30.6763 36.6712 30.6763C38.0613 30.6763 39.3944 31.2285 40.3773 32.2114C41.3602 33.1943 41.9124 34.5274 41.9124 35.9175V38.8778Z" fill="#262642"/>
<path d="M81.1821 56.827H76.9836V52.6284C76.9836 52.4482 76.912 52.2753 76.7846 52.1478C76.6571 52.0204 76.4842 51.9488 76.304 51.9488C76.1237 51.9488 75.9509 52.0204 75.8234 52.1478C75.696 52.2753 75.6244 52.4482 75.6244 52.6284V56.827H71.4257C71.2455 56.827 71.0726 56.8987 70.9452 57.0261C70.8177 57.1536 70.7461 57.3264 70.7461 57.5067C70.7461 57.6869 70.8177 57.8598 70.9452 57.9872C71.0726 58.1147 71.2455 58.1863 71.4257 58.1863H75.6244V62.3848C75.6244 62.5651 75.696 62.7379 75.8234 62.8654C75.9509 62.9929 76.1237 63.0645 76.304 63.0645C76.4842 63.0645 76.6571 62.9929 76.7846 62.8654C76.912 62.7379 76.9836 62.5651 76.9836 62.3848V58.1863H81.1821C81.3624 58.1863 81.5352 58.1147 81.6627 57.9872C81.7902 57.8598 81.8618 57.6869 81.8618 57.5067C81.8618 57.3264 81.7902 57.1536 81.6627 57.0261C81.5352 56.8987 81.3624 56.827 81.1821 56.827Z" fill="#262642"/>
<path d="M47.6884 50.5433C47.5082 50.5433 47.3353 50.6149 47.2078 50.7424C47.0804 50.8698 47.0088 51.0427 47.0088 51.223V51.9366C47.0088 52.1168 47.0804 52.2897 47.2078 52.4171C47.3353 52.5446 47.5082 52.6162 47.6884 52.6162C47.8687 52.6162 48.0415 52.5446 48.169 52.4171C48.2964 52.2897 48.368 52.1168 48.368 51.9366V51.223C48.368 51.0427 48.2964 50.8698 48.169 50.7424C48.0415 50.6149 47.8687 50.5433 47.6884 50.5433Z" fill="#262642"/>
<path d="M47.6884 53.8616C47.5082 53.8616 47.3353 53.9332 47.2078 54.0606C47.0804 54.1881 47.0088 54.361 47.0088 54.5412V61.2242C47.0088 61.4045 47.0804 61.5773 47.2078 61.7048C47.3353 61.8322 47.5082 61.9038 47.6884 61.9038C47.8687 61.9038 48.0415 61.8322 48.169 61.7048C48.2964 61.5773 48.368 61.4045 48.368 61.2242V54.5412C48.368 54.361 48.2964 54.1881 48.169 54.0606C48.0415 53.9332 47.8687 53.8616 47.6884 53.8616Z" fill="#262642"/>
<path d="M61.9346 44.4551C61.5751 44.4363 61.4008 44.6494 61.1584 44.9451C60.6089 45.6197 59.9156 46.1632 59.1293 46.5357C58.343 46.9083 57.4834 47.1006 56.6133 47.0986C56.5625 47.0986 56.5113 47.0979 56.4601 47.0966C55.5672 47.0767 54.6908 46.8518 53.8986 46.4394C53.1064 46.0269 52.4196 45.4379 51.8912 44.7179C51.8265 44.6299 51.7414 44.5589 51.6433 44.5109C51.5451 44.463 51.4369 44.4394 51.3277 44.4424C49.1456 44.4929 47.0726 45.4065 45.563 46.9829C45.3847 47.1681 45.2169 47.3616 45.0584 47.5613C43.9842 46.8468 42.74 46.4293 41.4522 46.3513C41.0945 46.3319 40.9181 46.542 40.6977 46.8109C40.2102 47.4065 39.5932 47.883 38.8936 48.204C38.1941 48.5251 37.4305 48.6821 36.661 48.6633C35.8915 48.6444 35.1365 48.4502 34.4535 48.0953C33.7705 47.7404 33.1775 47.2343 32.7198 46.6155C32.6549 46.5276 32.5699 46.4567 32.4717 46.4088C32.3736 46.3608 32.2654 46.3372 32.1563 46.34C30.2419 46.3887 28.4223 47.1834 27.0854 48.5545C25.7486 49.9256 25.0002 51.7648 25 53.6798V62.6068C25 62.7871 25.0716 62.9599 25.1991 63.0874C25.3265 63.2148 25.4994 63.2864 25.6796 63.2864H43.2464V64.6502C43.2464 64.8305 43.318 65.0033 43.4455 65.1308C43.573 65.2583 43.7458 65.3299 43.9261 65.3299H69.0413C69.2215 65.3299 69.3944 65.2583 69.5219 65.1308C69.6493 65.0033 69.7209 64.8305 69.7209 64.6502V52.7308C69.7186 50.6199 68.9122 48.5892 67.4658 47.0518C66.0193 45.5144 64.0415 44.5859 61.9346 44.4551ZM68.3617 63.9706H44.6057V58.9588C44.6057 58.7785 44.5341 58.6057 44.4066 58.4782C44.2792 58.3508 44.1063 58.2792 43.9261 58.2792C43.7458 58.2792 43.573 58.3508 43.4455 58.4782C43.318 58.6057 43.2464 58.7785 43.2464 58.9588V61.9272H26.3593V53.6798C26.3596 52.1773 26.9252 50.7299 27.9435 49.6251C28.9619 48.5203 30.3586 47.8391 31.8561 47.7166C32.4568 48.4372 33.2082 49.0173 34.0574 49.416C34.9066 49.8147 35.8329 50.0224 36.771 50.0244C37.7091 50.0263 38.6363 49.8225 39.4871 49.4274C40.338 49.0322 41.0918 48.4553 41.6955 47.7372C42.6287 47.8459 43.5229 48.1741 44.3048 48.6949C43.6079 49.9648 43.2438 51.3905 43.2464 52.8391V54.4279C43.2464 54.6082 43.318 54.7811 43.4455 54.9085C43.573 55.036 43.7458 55.1076 43.9261 55.1076C44.1063 55.1076 44.2792 55.036 44.4066 54.9085C44.5341 54.7811 44.6057 54.6082 44.6057 54.4279V52.833C44.5933 51.0309 45.27 49.2923 46.4973 47.9728C47.6825 46.7115 49.2988 45.9422 51.0251 45.8178C51.7022 46.6414 52.5529 47.3051 53.5164 47.7615C54.48 48.2178 55.5325 48.4556 56.5986 48.4577C57.6648 48.4597 58.7182 48.2261 59.6835 47.7735C60.6488 47.3209 61.5021 46.6605 62.1824 45.8396C63.8797 46.0268 65.4485 46.8332 66.5885 48.1046C67.7286 49.376 68.3598 51.0231 68.3614 52.7308L68.3617 63.9706Z" fill="#262642"/>
<path d="M74.488 26.9406H70.4102V26.4136C70.4102 24.8186 74.904 23.8477 74.904 20.8656C74.904 19.2013 73.5448 18.1057 71.9363 18.1057C70.4246 18.1057 69.0932 19.0765 69.0932 20.5606C69.0932 21.1847 69.3705 21.3789 69.759 21.3789C70.2444 21.3789 70.5356 21.1015 70.5356 20.8238C70.5356 19.8807 71.1597 19.4508 71.9364 19.4508C72.9905 19.4508 73.4343 20.2275 73.4343 20.9071C73.4343 23.0431 68.8989 24.1665 68.8989 26.4133V27.759C68.8989 28.0502 69.2734 28.2445 69.5508 28.2445H74.488C74.7372 28.2445 74.9733 27.9254 74.9733 27.5787C74.9733 27.2319 74.7372 26.9406 74.488 26.9406Z" fill="#FF2911"/>
<path d="M71.9357 14C70.1211 14 68.3472 14.5381 66.8384 15.5463C65.3296 16.5545 64.1536 17.9874 63.4592 19.6639C62.7647 21.3404 62.583 23.1852 62.937 24.965C63.2911 26.7447 64.1649 28.3796 65.448 29.6627C66.7312 30.9459 68.366 31.8197 70.1458 32.1737C71.9256 32.5277 73.7703 32.346 75.4468 31.6516C77.1234 30.9572 78.5563 29.7812 79.5645 28.2724C80.5726 26.7635 81.1107 24.9897 81.1107 23.175C81.108 20.7425 80.1404 18.4104 78.4204 16.6904C76.7003 14.9703 74.3682 14.0028 71.9357 14ZM71.9357 30.9907C70.3899 30.9907 68.8788 30.5324 67.5935 29.6736C66.3083 28.8148 65.3065 27.5941 64.7149 26.166C64.1234 24.7378 63.9686 23.1663 64.2702 21.6502C64.5718 20.1341 65.3161 18.7415 66.4092 17.6485C67.5022 16.5554 68.8949 15.811 70.411 15.5095C71.9271 15.2079 73.4985 15.3627 74.9267 15.9542C76.3548 16.5458 77.5755 17.5475 78.4343 18.8328C79.2931 20.1181 79.7515 21.6292 79.7515 23.175C79.7543 24.2022 79.5541 25.2198 79.1623 26.1693C78.7706 27.1189 78.195 27.9816 77.4687 28.7079C76.7423 29.4343 75.8796 30.0099 74.9301 30.4016C73.9805 30.7934 72.9629 30.9936 71.9357 30.9907Z" fill="#FF2911"/>
</svg>
