<svg width="106" height="81" viewBox="0 0 106 81" fill="none" xmlns="http://www.w3.org/2000/svg">
<path d="M76.9303 21.3931L53.042 8.09797C52.9265 8.03372 52.7966 8 52.6645 8C52.5324 8 52.4025 8.03372 52.287 8.09797L28.3987 21.3931C28.2778 21.4604 28.1771 21.5587 28.107 21.6779C28.0369 21.7972 28 21.933 28 22.0713V39.4441C27.999 46.0026 29.9147 52.4185 33.5116 57.9027C37.1084 63.387 42.2297 67.7005 48.2455 70.3128L52.0695 71.911C52.1659 71.9513 52.2694 71.9717 52.3739 71.971C52.4783 71.9703 52.5816 71.9486 52.6774 71.907L56.6715 70.1756C62.7913 67.6131 68.0172 63.299 71.6926 57.7754C75.3679 52.2518 77.3287 45.7651 77.3286 39.1305V22.0713C77.3287 21.933 77.2918 21.7973 77.2217 21.678C77.1517 21.5588 77.0511 21.4604 76.9303 21.3931ZM75.7767 39.1306C75.7769 45.4609 73.9056 51.65 70.398 56.9197C66.8904 62.1894 61.9031 66.3045 56.0632 68.7476L52.3636 70.3516L48.8544 68.885C43.1183 66.3924 38.2354 62.278 34.8062 57.0476C31.377 51.8172 29.5509 45.6988 29.5523 39.4444V22.5277L52.6645 9.6641L75.7767 22.5274V39.1306Z" fill="#262642"/>
<path d="M52.2867 12.0314L31.8352 23.4137C31.7144 23.481 31.6137 23.5793 31.5436 23.6985C31.4735 23.8177 31.4365 23.9535 31.4365 24.0918V39.4445C31.4356 45.3293 33.1535 51.0862 36.3792 56.0082C39.6049 60.9302 44.1979 64.8029 49.5941 67.1507L49.6046 67.1552L52.0448 68.1751C52.1412 68.2154 52.2447 68.2358 52.3492 68.2351C52.4536 68.2344 52.5569 68.2126 52.6527 68.1711L55.3345 67.0087C60.8315 64.7093 65.5261 60.8361 68.828 55.876C72.1298 50.916 73.8916 45.0904 73.8917 39.1318V24.0922C73.8917 23.9539 73.8547 23.8181 73.7846 23.6989C73.7146 23.5797 73.6139 23.4813 73.493 23.4141L53.0416 12.0314C52.9262 11.9671 52.7962 11.9334 52.6641 11.9334C52.532 11.9334 52.4021 11.9671 52.2867 12.0314ZM72.3394 39.1318C72.3394 44.7861 70.6672 50.3141 67.5331 55.0203C64.3991 59.7266 59.9432 63.4009 54.7261 65.5809L53.127 66.274L53.2098 51.8905L51.6575 51.8816L51.5745 66.2969L50.208 65.7257C45.0903 63.4978 40.7346 59.8239 37.6757 55.1552C34.6168 50.4865 32.9878 45.0261 32.9888 39.4445V24.5485L51.8801 14.0344L51.801 28.1429L53.3533 28.1517L53.4325 14.0258L72.3394 24.5485V39.1318Z" fill="#262642"/>
<path d="M36.7403 33.647H35.188V37.7628C35.1907 42.8744 36.4868 47.9022 38.9555 52.378L40.3138 51.6278C37.9719 47.3816 36.7425 42.6119 36.7403 37.7628V33.647Z" fill="#BDBDC7"/>
<path d="M35.1885 29.7011H36.7408V31.3256H35.1885V29.7011Z" fill="#BDBDC7"/>
<path d="M1.272 13.8107C1.60936 13.8107 1.93289 13.6767 2.17144 13.4382C2.40999 13.1996 2.544 12.8761 2.544 12.5387V2.544H12.5387C12.8761 2.544 13.1996 2.40999 13.4382 2.17144C13.6767 1.93289 13.8107 1.60936 13.8107 1.272C13.8107 0.934645 13.6767 0.611107 13.4382 0.372561C13.1996 0.134015 12.8761 0 12.5387 0H1.3498C0.99649 0.0145945 0.661577 0.161491 0.411534 0.411535C0.16149 0.661578 0.0145945 0.99649 0 1.3498V12.5387C0 12.8761 0.134014 13.1996 0.37256 13.4382C0.611106 13.6767 0.934645 13.8107 1.272 13.8107Z" fill="#BDBDC7"/>
<path d="M104.65 -1.52588e-05H93.461C93.1236 -1.52588e-05 92.8001 0.133999 92.5615 0.372546C92.323 0.611092 92.189 0.934629 92.189 1.27198C92.189 1.60934 92.323 1.93288 92.5615 2.17142C92.8001 2.40997 93.1236 2.54399 93.461 2.54399H103.456V12.5387C103.456 12.8761 103.59 13.1996 103.828 13.4382C104.067 13.6767 104.39 13.8107 104.728 13.8107C105.065 13.8107 105.389 13.6767 105.627 13.4382C105.866 13.1996 106 12.8761 106 12.5387V1.34979C105.985 0.996475 105.838 0.661563 105.588 0.411519C105.338 0.161476 105.003 0.0145792 104.65 -1.52588e-05Z" fill="#BDBDC7"/>
<path d="M104.728 66.7493C104.39 66.7493 104.067 66.8833 103.828 67.1218C103.59 67.3604 103.456 67.6839 103.456 68.0213V78.016H93.461C93.1236 78.016 92.8001 78.15 92.5615 78.3886C92.323 78.6271 92.189 78.9507 92.189 79.288C92.189 79.6254 92.323 79.9489 92.5615 80.1874C92.8001 80.426 93.1236 80.56 93.461 80.56H104.65C105.003 80.5454 105.338 80.3985 105.588 80.1485C105.838 79.8984 105.985 79.5635 106 79.2102V68.0213C106 67.6839 105.866 67.3604 105.627 67.1218C105.389 66.8833 105.065 66.7493 104.728 66.7493Z" fill="#BDBDC7"/>
<path d="M1.3498 80.56H12.5387C12.8761 80.56 13.1996 80.426 13.4382 80.1874C13.6767 79.9489 13.8107 79.6254 13.8107 79.288C13.8107 78.9507 13.6767 78.6271 13.4382 78.3886C13.1996 78.15 12.8761 78.016 12.5387 78.016H2.544V68.0213C2.544 67.6839 2.40999 67.3604 2.17144 67.1218C1.93289 66.8833 1.60936 66.7493 1.272 66.7493C0.934645 66.7493 0.611106 66.8833 0.37256 67.1218C0.134014 67.3604 0 67.6839 0 68.0213V79.2102C0.0145945 79.5635 0.16149 79.8984 0.411534 80.1485C0.661577 80.3985 0.99649 80.5454 1.3498 80.56Z" fill="#BDBDC7"/>
<path d="M50.5316 42.8849L46.9156 39.1564L45.8013 40.237L49.9666 44.5317C50.0382 44.6056 50.1238 44.6644 50.2185 44.7049C50.3131 44.7454 50.4148 44.7666 50.5177 44.7674H50.5236C50.7294 44.7674 50.9268 44.6856 51.0723 44.5401L59.002 36.6105L57.9045 35.5129L50.5316 42.8849Z" fill="#FF2911"/>
<path d="M52.664 27.3791C50.1707 27.3791 47.7334 28.1185 45.6603 29.5037C43.5872 30.8889 41.9714 32.8578 41.0172 35.1613C40.0631 37.4648 39.8134 39.9995 40.2999 42.4449C40.7863 44.8903 41.9869 47.1366 43.75 48.8996C45.513 50.6627 47.7593 51.8633 50.2047 52.3497C52.6501 52.8362 55.1848 52.5865 57.4883 51.6324C59.7918 50.6782 61.7607 49.0624 63.1459 46.9893C64.5311 44.9162 65.2705 42.4789 65.2705 39.9855C65.2667 36.6433 63.9373 33.439 61.5739 31.0757C59.2106 28.7123 56.0063 27.3829 52.664 27.3791ZM52.664 51.0397C50.4777 51.0397 48.3405 50.3914 46.5227 49.1767C44.7049 47.9621 43.288 46.2357 42.4514 44.2158C41.6147 42.1959 41.3958 39.9733 41.8223 37.829C42.2488 35.6847 43.3016 33.715 44.8476 32.1691C46.3935 30.6231 48.3632 29.5703 50.5075 29.1438C52.6518 28.7173 54.8744 28.9362 56.8943 29.7729C58.9142 30.6095 60.6406 32.0264 61.8552 33.8442C63.0699 35.662 63.7182 37.7992 63.7182 39.9855C63.7149 42.9163 62.5492 45.726 60.4768 47.7983C58.4045 49.8707 55.5948 51.0364 52.664 51.0397Z" fill="#FF2911"/>
</svg>
