<svg width="106" height="82" viewBox="0 0 106 82" fill="none" xmlns="http://www.w3.org/2000/svg">
<path d="M1.272 14.5507C1.60936 14.5507 1.93289 14.4167 2.17144 14.1782C2.40999 13.9396 2.544 13.6161 2.544 13.2787V3.28399H12.5387C12.8761 3.28399 13.1996 3.14998 13.4382 2.91143C13.6767 2.67288 13.8107 2.34935 13.8107 2.01199C13.8107 1.67463 13.6767 1.3511 13.4382 1.11255C13.1996 0.874005 12.8761 0.73999 12.5387 0.73999H1.3498C0.99649 0.754585 0.661577 0.901481 0.411534 1.15152C0.16149 1.40157 0.0145945 1.73648 0 2.08979V13.2787C0 13.6161 0.134014 13.9396 0.37256 14.1782C0.611106 14.4167 0.934645 14.5507 1.272 14.5507Z" fill="#BDBDC7"/>
<path d="M104.65 0.73996H93.461C93.1236 0.73996 92.8001 0.873974 92.5615 1.11252C92.323 1.35107 92.189 1.6746 92.189 2.01196C92.189 2.34932 92.323 2.67285 92.5615 2.9114C92.8001 3.14995 93.1236 3.28396 93.461 3.28396H103.456V13.2787C103.456 13.6161 103.59 13.9396 103.828 14.1781C104.067 14.4167 104.39 14.5507 104.728 14.5507C105.065 14.5507 105.389 14.4167 105.627 14.1781C105.866 13.9396 106 13.6161 106 13.2787V2.08976C105.985 1.73645 105.838 1.40154 105.588 1.15149C105.338 0.901451 105.003 0.754554 104.65 0.73996Z" fill="#BDBDC7"/>
<path d="M104.728 67.4893C104.39 67.4893 104.067 67.6233 103.828 67.8618C103.59 68.1004 103.456 68.4239 103.456 68.7613V78.756H93.461C93.1236 78.756 92.8001 78.89 92.5615 79.1286C92.323 79.3671 92.189 79.6906 92.189 80.028C92.189 80.3654 92.323 80.6889 92.5615 80.9274C92.8001 81.166 93.1236 81.3 93.461 81.3H104.65C105.003 81.2854 105.338 81.1385 105.588 80.8885C105.838 80.6384 105.985 80.3035 106 79.9502V68.7613C106 68.4239 105.866 68.1004 105.627 67.8618C105.389 67.6233 105.065 67.4893 104.728 67.4893Z" fill="#BDBDC7"/>
<path d="M1.3498 81.3H12.5387C12.8761 81.3 13.1996 81.166 13.4382 80.9274C13.6767 80.6889 13.8107 80.3654 13.8107 80.028C13.8107 79.6906 13.6767 79.3671 13.4382 79.1286C13.1996 78.89 12.8761 78.756 12.5387 78.756H2.544V68.7613C2.544 68.4239 2.40999 68.1004 2.17144 67.8618C1.93289 67.6233 1.60936 67.4893 1.272 67.4893C0.934645 67.4893 0.611106 67.6233 0.37256 67.8618C0.134014 68.1004 0 68.4239 0 68.7613V79.9502C0.0145945 80.3035 0.16149 80.6384 0.411534 80.8885C0.661577 81.1385 0.99649 81.2854 1.3498 81.3Z" fill="#BDBDC7"/>
<path d="M23.787 62.8757H27.2019V67.213C27.2019 67.4217 27.2848 67.6219 27.4324 67.7695C27.58 67.9171 27.7802 68 27.9889 68H39.954C40.1628 68 40.3629 67.9171 40.5105 67.7695C40.6581 67.6219 40.741 67.4217 40.741 67.213V62.8757H65.9311V67.213C65.9311 67.4217 66.014 67.6219 66.1616 67.7695C66.3092 67.9171 66.5093 68 66.7181 68H78.6832C78.8919 68 79.0921 67.9171 79.2397 67.7695C79.3873 67.6219 79.4702 67.4217 79.4702 67.213V62.8757H82.8851C83.0938 62.8757 83.294 62.7928 83.4416 62.6452C83.5892 62.4976 83.6721 62.2975 83.6721 62.0887V15.787C83.6721 15.5783 83.5892 15.3781 83.4416 15.2305C83.294 15.0829 83.0938 15 82.8851 15H23.787C23.5783 15 23.3781 15.0829 23.2305 15.2305C23.0829 15.3781 23 15.5783 23 15.787V62.0887C23 62.2975 23.0829 62.4976 23.2305 62.6452C23.3781 62.7928 23.5783 62.8757 23.787 62.8757ZM39.167 66.426H28.7759V62.8757H39.167V66.426ZM77.8962 66.426H67.5051V62.8757H77.8962V66.426ZM24.574 16.574H82.0981V61.3017H24.574V16.574Z" fill="#262642"/>
<path d="M76.1079 21.777H30.5638C30.3551 21.777 30.1549 21.8599 30.0073 22.0075C29.8597 22.1551 29.7768 22.3553 29.7768 22.564V25.5381H28.2978C28.089 25.5381 27.8888 25.621 27.7413 25.7686C27.5937 25.9162 27.5107 26.1164 27.5107 26.3251V33.6096C27.5107 33.8184 27.5937 34.0185 27.7413 34.1661C27.8888 34.3137 28.089 34.3966 28.2978 34.3966H29.7768V43.4792H28.2978C28.089 43.4792 27.8888 43.5621 27.7413 43.7097C27.5937 43.8573 27.5107 44.0575 27.5107 44.2662V51.5507C27.5107 51.7594 27.5937 51.9596 27.7413 52.1072C27.8888 52.2548 28.089 52.3377 28.2978 52.3377H29.7768V55.3121C29.7768 55.5208 29.8597 55.721 30.0073 55.8686C30.1549 56.0162 30.3551 56.0991 30.5638 56.0991H76.1079C76.3167 56.0991 76.5168 56.0162 76.6644 55.8686C76.812 55.721 76.8949 55.5208 76.8949 55.3121V41.7211H75.3209V54.5251H31.3509V52.3377H32.6552C32.8639 52.3377 33.0641 52.2548 33.2117 52.1072C33.3593 51.9596 33.4422 51.7594 33.4422 51.5507V44.2662C33.4422 44.0575 33.3593 43.8573 33.2117 43.7097C33.0641 43.5621 32.8639 43.4792 32.6552 43.4792H31.3509V34.3966H32.6552C32.8639 34.3966 33.0641 34.3137 33.2117 34.1661C33.3593 34.0185 33.4422 33.8184 33.4422 33.6096V26.3251C33.4422 26.1164 33.3593 25.9162 33.2117 25.7686C33.0641 25.621 32.8639 25.5381 32.6552 25.5381H31.3509V23.351H75.3209V36.2318H76.8949V22.564C76.8949 22.3553 76.812 22.1551 76.6644 22.0075C76.5168 21.8599 76.3167 21.777 76.1079 21.777ZM31.8682 50.7637H29.0848V45.0532H31.8682V50.7637ZM31.8682 32.8226H29.0848V27.1122H31.8682V32.8226Z" fill="#262642"/>
<path d="M53.336 30.3921C55.3887 30.3992 57.3709 31.142 58.9229 32.4855C60.4749 33.829 61.4939 35.6843 61.7951 37.7148L63.3532 37.4919C62.9875 34.9579 61.675 32.6568 59.6801 31.052C57.6853 29.4473 55.1563 28.6583 52.6029 28.8439C50.0494 29.0295 47.6612 30.176 45.9194 32.0524C44.1776 33.9288 43.2117 36.3956 43.2163 38.9558C43.2209 41.516 44.1956 43.9793 45.9441 45.8494C47.6926 47.7195 50.0849 48.8575 52.639 49.0339C55.1931 49.2104 57.7192 48.4123 59.7083 46.8005C61.6974 45.1886 63.0017 42.8828 63.3584 40.3475L61.7994 40.1302C61.5708 41.7536 60.8801 43.2769 59.8097 44.5186C58.7392 45.7603 57.3343 46.6679 55.7623 47.1333C54.1903 47.5986 52.5177 47.6019 50.9438 47.1429C49.37 46.684 47.9614 45.782 46.886 44.5446C45.8106 43.3072 45.1138 41.7867 44.8786 40.1642C44.6435 38.5418 44.8799 36.8859 45.5598 35.3941C46.2397 33.9024 47.3343 32.6376 48.713 31.7507C50.0918 30.8638 51.6966 30.3922 53.336 30.3921Z" fill="#262642"/>
<path d="M35.918 26.8381H37.492V28.7766H35.918V26.8381Z" fill="#262642"/>
<path d="M35.918 30.3274H37.492V49.3702H35.918V30.3274Z" fill="#262642"/>
<path d="M78.7965 35.4137H64.424C64.2153 35.4137 64.0151 35.4967 63.8675 35.6442C63.7199 35.7918 63.637 35.992 63.637 36.2008V36.8172H57.0296C56.5621 36.003 55.8388 35.3659 54.972 35.005C54.1051 34.6441 53.1434 34.5796 52.2362 34.8215C51.3289 35.0634 50.527 35.5982 49.9549 36.3427C49.3829 37.0873 49.0728 38 49.0728 38.9389C49.0728 39.8779 49.3829 40.7905 49.9549 41.5351C50.527 42.2796 51.3289 42.8144 52.2362 43.0563C53.1434 43.2983 54.1051 43.2338 54.972 42.8729C55.8388 42.512 56.5621 41.8749 57.0296 41.0606H63.637V41.6771C63.637 41.8858 63.7199 42.086 63.8675 42.2336C64.0151 42.3812 64.2153 42.4641 64.424 42.4641H78.7965C79.0052 42.4641 79.2054 42.3812 79.353 42.2336C79.5006 42.086 79.5835 41.8858 79.5835 41.6771V36.2008C79.5835 35.992 79.5006 35.7918 79.353 35.6442C79.2054 35.4967 79.0052 35.4137 78.7965 35.4137ZM53.3365 41.6251C52.805 41.6252 52.2855 41.4676 51.8435 41.1723C51.4016 40.877 51.0572 40.4574 50.8537 39.9663C50.6503 39.4753 50.5971 38.935 50.7008 38.4137C50.8044 37.8924 51.0604 37.4136 51.4362 37.0377C51.812 36.6619 52.2908 36.4059 52.8121 36.3022C53.3334 36.1985 53.8737 36.2518 54.3648 36.4551C54.8558 36.6585 55.2755 37.003 55.5708 37.4449C55.8661 37.8868 56.0237 38.4064 56.0237 38.9379C56.0229 39.6503 55.7396 40.3334 55.2358 40.8372C54.732 41.3409 54.049 41.6243 53.3365 41.6251ZM57.5614 39.4855C57.6098 39.122 57.6098 38.7537 57.5614 38.3902H63.637V39.4855H57.5614ZM65.211 36.9878H73.6809V40.889H65.211V36.9878ZM78.0095 40.8885H75.2549V36.9878H78.0095V40.8885Z" fill="#FF2911"/>
</svg>
