<svg width="106" height="81" viewBox="0 0 106 81" fill="none" xmlns="http://www.w3.org/2000/svg">
<path d="M69.133 33.7675C69.133 33.6308 69.2438 33.52 69.3805 33.52C69.5172 33.52 69.628 33.6308 69.628 33.7675V34.0288C69.628 34.2913 69.8293 34.5069 70.0845 34.5687C70.1243 34.5784 70.1642 34.5888 70.204 34.6C70.323 34.6298 70.4419 34.6675 70.5608 34.7134C70.686 34.7617 70.7423 34.9041 70.6936 35.0292C70.6388 35.1702 70.4742 35.2315 70.3336 35.1756C70.2094 35.1263 70.0852 35.0874 69.961 35.059C69.757 35.011 69.553 34.987 69.349 34.987C69.013 34.987 68.743 35.065 68.539 35.221C68.341 35.371 68.242 35.575 68.242 35.833C68.242 35.965 68.263 36.079 68.305 36.175C68.347 36.265 68.41 36.346 68.494 36.418C68.584 36.484 68.692 36.547 68.818 36.607C68.944 36.661 69.094 36.715 69.268 36.769L69.79 36.949C70.222 37.087 70.543 37.276 70.753 37.516C70.969 37.75 71.077 38.044 71.077 38.398C71.077 38.812 70.933 39.148 70.645 39.406C70.4601 39.5752 70.2314 39.6979 69.9589 39.7742C69.7009 39.8464 69.493 40.0617 69.493 40.3297V40.5985C69.493 40.7352 69.3822 40.846 69.2455 40.846C69.1088 40.846 68.998 40.7352 68.998 40.5985V40.3395C68.998 40.0689 68.784 39.8512 68.5179 39.8022C68.4357 39.7871 68.3558 39.769 68.278 39.748C68.134 39.7052 67.9913 39.6523 67.8498 39.5893C67.7201 39.5315 67.6698 39.3767 67.7314 39.2487C67.7981 39.1102 67.9681 39.0592 68.1086 39.1217C68.2557 39.1871 68.4052 39.2368 68.557 39.271C68.797 39.325 69.022 39.352 69.232 39.352C69.604 39.352 69.898 39.274 70.114 39.118C70.33 38.956 70.438 38.737 70.438 38.461C70.438 38.221 70.363 38.023 70.213 37.867C70.063 37.711 69.787 37.567 69.385 37.435L68.872 37.273C68.692 37.213 68.524 37.144 68.368 37.066C68.212 36.988 68.077 36.895 67.963 36.787C67.849 36.673 67.759 36.544 67.693 36.4C67.633 36.256 67.603 36.088 67.603 35.896C67.603 35.488 67.738 35.161 68.008 34.915C68.1868 34.7518 68.407 34.6352 68.6688 34.5651C68.9244 34.4966 69.133 34.286 69.133 34.0214V33.7675Z" fill="#FF2911"/>
<path d="M1.272 13.8107C1.60936 13.8107 1.93289 13.6767 2.17144 13.4382C2.40999 13.1996 2.544 12.8761 2.544 12.5387V2.544H12.5387C12.8761 2.544 13.1996 2.40999 13.4382 2.17144C13.6767 1.93289 13.8107 1.60936 13.8107 1.272C13.8107 0.934645 13.6767 0.611107 13.4382 0.372561C13.1996 0.134015 12.8761 0 12.5387 0H1.3498C0.99649 0.0145945 0.661577 0.161491 0.411534 0.411535C0.16149 0.661578 0.0145945 0.99649 0 1.3498V12.5387C0 12.8761 0.134014 13.1996 0.37256 13.4382C0.611106 13.6767 0.934645 13.8107 1.272 13.8107Z" fill="#BDBDC7"/>
<path d="M104.65 -3.05176e-05H93.461C93.1236 -3.05176e-05 92.8001 0.133984 92.5615 0.37253C92.323 0.611077 92.189 0.934614 92.189 1.27197C92.189 1.60933 92.323 1.93286 92.5615 2.17141C92.8001 2.40996 93.1236 2.54397 93.461 2.54397H103.456V12.5387C103.456 12.8761 103.59 13.1996 103.828 13.4381C104.067 13.6767 104.39 13.8107 104.728 13.8107C105.065 13.8107 105.389 13.6767 105.627 13.4381C105.866 13.1996 106 12.8761 106 12.5387V1.34977C105.985 0.996459 105.838 0.661548 105.588 0.411504C105.338 0.16146 105.003 0.014564 104.65 -3.05176e-05Z" fill="#BDBDC7"/>
<path d="M104.728 66.7493C104.39 66.7493 104.067 66.8833 103.828 67.1218C103.59 67.3604 103.456 67.6839 103.456 68.0213V78.016H93.461C93.1236 78.016 92.8001 78.15 92.5615 78.3886C92.323 78.6271 92.189 78.9507 92.189 79.288C92.189 79.6254 92.323 79.9489 92.5615 80.1874C92.8001 80.426 93.1236 80.56 93.461 80.56H104.65C105.003 80.5454 105.338 80.3985 105.588 80.1485C105.838 79.8984 105.985 79.5635 106 79.2102V68.0213C106 67.6839 105.866 67.3604 105.627 67.1218C105.389 66.8833 105.065 66.7493 104.728 66.7493Z" fill="#BDBDC7"/>
<path d="M1.3498 80.56H12.5387C12.8761 80.56 13.1996 80.426 13.4382 80.1874C13.6767 79.9489 13.8107 79.6254 13.8107 79.288C13.8107 78.9507 13.6767 78.6271 13.4382 78.3886C13.1996 78.15 12.8761 78.016 12.5387 78.016H2.544V68.0213C2.544 67.6839 2.40999 67.3604 2.17144 67.1218C1.93289 66.8833 1.60936 66.7493 1.272 66.7493C0.934645 66.7493 0.611106 66.8833 0.37256 67.1218C0.134014 67.3604 0 67.6839 0 68.0213V79.2102C0.0145945 79.5635 0.16149 79.8984 0.411534 80.1485C0.661577 80.3985 0.99649 80.5454 1.3498 80.56Z" fill="#BDBDC7"/>
<path d="M36 16.5294V59.8539C36.0018 61.343 36.5941 62.7706 37.6471 63.8235C38.7001 64.8764 40.1277 65.4687 41.6168 65.4704H61.4216C62.9108 65.4687 64.3384 64.8764 65.3914 63.8234C66.4443 62.7705 67.0366 61.3428 67.0383 59.8537V43.9165H65.7076V55.2273H37.3307V19.6704H40.7887C40.9651 19.6704 41.1343 19.6003 41.2591 19.4756C41.3839 19.3508 41.454 19.1816 41.454 19.0051C41.454 18.8286 41.3839 18.6594 41.2591 18.5346C41.1343 18.4099 40.9651 18.3398 40.7887 18.3398H37.3307V16.5294C37.3321 15.3931 37.7841 14.3038 38.5876 13.5003C39.3911 12.6968 40.4805 12.2448 41.6168 12.2434H61.4216C62.558 12.2447 63.6474 12.6966 64.4509 13.5001C65.2544 14.3036 65.7064 15.3931 65.7076 16.5294V18.3398H45.2242C45.0478 18.3398 44.8785 18.4099 44.7538 18.5346C44.629 18.6594 44.5589 18.8286 44.5589 19.0051C44.5589 19.1816 44.629 19.3508 44.7538 19.4756C44.8785 19.6003 45.0478 19.6704 45.2242 19.6704H65.7081V30.725H67.0388V16.5294C67.0371 15.0403 66.4448 13.6126 65.3918 12.5597C64.3389 11.5067 62.9112 10.9144 61.4221 10.9127H41.6172C40.128 10.9143 38.7002 11.5065 37.6472 12.5595C36.5941 13.6125 36.0017 15.0402 36 16.5294ZM65.7081 56.5579V59.8537C65.7068 60.99 65.2549 62.0794 64.4513 62.883C63.6478 63.6865 62.5584 64.1384 61.4221 64.1397H41.6172C40.4809 64.1383 39.3916 63.6863 38.5881 62.8828C37.7846 62.0793 37.3326 60.99 37.3311 59.8537V56.5579H65.7081Z" fill="#262642"/>
<path d="M51.5201 62.871C52.019 62.871 52.5066 62.7231 52.9214 62.446C53.3362 62.1689 53.6595 61.775 53.8504 61.3141C54.0413 60.8533 54.0913 60.3462 53.994 59.8569C53.8967 59.3676 53.6565 58.9182 53.3038 58.5655C52.951 58.2127 52.5016 57.9725 52.0124 57.8751C51.5231 57.7778 51.016 57.8277 50.5551 58.0186C50.0943 58.2095 49.7003 58.5327 49.4232 58.9475C49.146 59.3623 48.9981 59.8499 48.998 60.3487C48.9988 61.0174 49.2647 61.6585 49.7375 62.1314C50.2104 62.6042 50.8514 62.8702 51.5201 62.871ZM51.5201 59.1573C51.7558 59.1573 51.9862 59.2272 52.1821 59.3581C52.3781 59.489 52.5308 59.6751 52.621 59.8928C52.7112 60.1105 52.7348 60.3501 52.6888 60.5813C52.6429 60.8124 52.5294 61.0247 52.3628 61.1914C52.1961 61.358 51.9838 61.4715 51.7527 61.5175C51.5215 61.5634 51.2819 61.5398 51.0642 61.4496C50.8465 61.3594 50.6604 61.2067 50.5295 61.0107C50.3986 60.8148 50.3287 60.5844 50.3287 60.3487C50.3291 60.0329 50.4547 59.7301 50.6781 59.5067C50.9014 59.2834 51.2043 59.1577 51.5201 59.1573Z" fill="#262642"/>
<path d="M39.6858 25.9215H43.8449C44.0213 25.9215 44.1906 25.8514 44.3153 25.7266C44.4401 25.6018 44.5102 25.4326 44.5102 25.2562C44.5102 25.0797 44.4401 24.9105 44.3153 24.7857C44.1906 24.6609 44.0213 24.5908 43.8449 24.5908H39.6858C39.5094 24.5908 39.3402 24.6609 39.2154 24.7857C39.0906 24.9105 39.0205 25.0797 39.0205 25.2562C39.0205 25.4326 39.0906 25.6018 39.2154 25.7266C39.3402 25.8514 39.5094 25.9215 39.6858 25.9215Z" fill="#262642"/>
<path d="M49.9347 24.5908H47.261C47.0846 24.5908 46.9154 24.6609 46.7906 24.7857C46.6658 24.9105 46.5957 25.0797 46.5957 25.2562C46.5957 25.4326 46.6658 25.6018 46.7906 25.7266C46.9154 25.8514 47.0846 25.9215 47.261 25.9215H49.9347C50.1112 25.9215 50.2804 25.8514 50.4052 25.7266C50.5299 25.6018 50.6 25.4326 50.6 25.2562C50.6 25.0797 50.5299 24.9105 50.4052 24.7857C50.2804 24.6609 50.1112 24.5908 49.9347 24.5908Z" fill="#262642"/>
<path d="M58.8977 25.9215C59.0742 25.9215 59.2434 25.8514 59.3682 25.7266C59.493 25.6018 59.5631 25.4326 59.5631 25.2562C59.5631 25.0797 59.493 24.9105 59.3682 24.7857C59.2434 24.6609 59.0742 24.5908 58.8977 24.5908H54.2435C54.067 24.5908 53.8978 24.6609 53.773 24.7857C53.6482 24.9105 53.5781 25.0797 53.5781 25.2562C53.5781 25.4326 53.6482 25.6018 53.773 25.7266C53.8978 25.8514 54.067 25.9215 54.2435 25.9215H58.8977Z" fill="#262642"/>
<path d="M39.6858 32.8533H46.816C46.9925 32.8533 47.1617 32.7832 47.2865 32.6584C47.4113 32.5336 47.4814 32.3644 47.4814 32.1879C47.4814 32.0115 47.4113 31.8422 47.2865 31.7175C47.1617 31.5927 46.9925 31.5226 46.816 31.5226H39.6858C39.5094 31.5226 39.3402 31.5927 39.2154 31.7175C39.0906 31.8422 39.0205 32.0115 39.0205 32.1879C39.0205 32.3644 39.0906 32.5336 39.2154 32.6584C39.3402 32.7832 39.5094 32.8533 39.6858 32.8533Z" fill="#262642"/>
<path d="M49.5674 32.1879C49.5674 32.3644 49.6375 32.5336 49.7623 32.6584C49.887 32.7832 50.0563 32.8533 50.2327 32.8533H52.6589C52.8353 32.8533 53.0046 32.7832 53.1293 32.6584C53.2541 32.5336 53.3242 32.3644 53.3242 32.1879C53.3242 32.0115 53.2541 31.8422 53.1293 31.7175C53.0046 31.5927 52.8353 31.5226 52.6589 31.5226H50.2327C50.0563 31.5226 49.887 31.5927 49.7623 31.7175C49.6375 31.8422 49.5674 32.0115 49.5674 32.1879Z" fill="#262642"/>
<path d="M39.6858 39.7853H41.4683C41.6447 39.7853 41.814 39.7152 41.9387 39.5904C42.0635 39.4656 42.1336 39.2964 42.1336 39.1199C42.1336 38.9435 42.0635 38.7742 41.9387 38.6495C41.814 38.5247 41.6447 38.4546 41.4683 38.4546H39.6858C39.5094 38.4546 39.3402 38.5247 39.2154 38.6495C39.0906 38.7742 39.0205 38.9435 39.0205 39.1199C39.0205 39.2964 39.0906 39.4656 39.2154 39.5904C39.3402 39.7152 39.5094 39.7853 39.6858 39.7853Z" fill="#262642"/>
<path d="M53.4845 39.7853C53.661 39.7853 53.8302 39.7152 53.955 39.5904C54.0797 39.4656 54.1498 39.2964 54.1498 39.1199C54.1498 38.9435 54.0797 38.7742 53.955 38.6495C53.8302 38.5247 53.661 38.4546 53.4845 38.4546H44.8846C44.7081 38.4546 44.5389 38.5247 44.4141 38.6495C44.2893 38.7742 44.2192 38.9435 44.2192 39.1199C44.2192 39.2964 44.2893 39.4656 44.4141 39.5904C44.5389 39.7152 44.7081 39.7853 44.8846 39.7853H53.4845Z" fill="#262642"/>
<path d="M39.6858 46.7171H43.2219C43.3983 46.7171 43.5676 46.6471 43.6924 46.5223C43.8171 46.3975 43.8872 46.2283 43.8872 46.0518C43.8872 45.8754 43.8171 45.7061 43.6924 45.5813C43.5676 45.4566 43.3983 45.3865 43.2219 45.3865H39.6858C39.5094 45.3865 39.3402 45.4566 39.2154 45.5813C39.0906 45.7061 39.0205 45.8754 39.0205 46.0518C39.0205 46.2283 39.0906 46.3975 39.2154 46.5223C39.3402 46.6471 39.5094 46.7171 39.6858 46.7171Z" fill="#262642"/>
<path d="M60.0503 45.3865H57.5848C57.4083 45.3865 57.2391 45.4566 57.1143 45.5813C56.9895 45.7061 56.9194 45.8754 56.9194 46.0518C56.9194 46.2283 56.9895 46.3975 57.1143 46.5223C57.2391 46.6471 57.4083 46.7171 57.5848 46.7171H60.0503C60.2267 46.7171 60.396 46.6471 60.5208 46.5223C60.6455 46.3975 60.7156 46.2283 60.7156 46.0518C60.7156 45.8754 60.6455 45.7061 60.5208 45.5813C60.396 45.4566 60.2267 45.3865 60.0503 45.3865Z" fill="#262642"/>
<path d="M54.7293 46.0518C54.7293 45.8754 54.6592 45.7061 54.5344 45.5813C54.4097 45.4566 54.2404 45.3865 54.064 45.3865H46.6385C46.462 45.3865 46.2928 45.4566 46.168 45.5813C46.0432 45.7061 45.9731 45.8754 45.9731 46.0518C45.9731 46.2283 46.0432 46.3975 46.168 46.5223C46.2928 46.6471 46.462 46.7171 46.6385 46.7171H54.064C54.2404 46.7171 54.4097 46.6471 54.5344 46.5223C54.6592 46.3975 54.7293 46.2283 54.7293 46.0518Z" fill="#262642"/>
<path d="M39.6858 51.9161H44.2018C44.3783 51.9161 44.5475 51.846 44.6723 51.7213C44.7971 51.5965 44.8672 51.4272 44.8672 51.2508C44.8672 51.0743 44.7971 50.9051 44.6723 50.7803C44.5475 50.6555 44.3783 50.5854 44.2018 50.5854H39.6858C39.5094 50.5854 39.3402 50.6555 39.2154 50.7803C39.0906 50.9051 39.0205 51.0743 39.0205 51.2508C39.0205 51.4272 39.0906 51.5965 39.2154 51.7213C39.3402 51.846 39.5094 51.9161 39.6858 51.9161Z" fill="#262642"/>
<path d="M54.9026 51.9161H60.0498C60.2263 51.9161 60.3955 51.846 60.5203 51.7213C60.645 51.5965 60.7151 51.4272 60.7151 51.2508C60.7151 51.0743 60.645 50.9051 60.5203 50.7803C60.3955 50.6555 60.2263 50.5854 60.0498 50.5854H54.9026C54.7262 50.5854 54.557 50.6555 54.4322 50.7803C54.3074 50.9051 54.2373 51.0743 54.2373 51.2508C54.2373 51.4272 54.3074 51.5965 54.4322 51.7213C54.557 51.846 54.7262 51.9161 54.9026 51.9161Z" fill="#262642"/>
<path d="M47.6185 50.5854C47.442 50.5854 47.2728 50.6555 47.148 50.7803C47.0232 50.9051 46.9531 51.0743 46.9531 51.2508C46.9531 51.4272 47.0232 51.5965 47.148 51.7213C47.2728 51.846 47.442 51.9161 47.6185 51.9161H51.3859C51.5624 51.9161 51.7316 51.846 51.8564 51.7213C51.9812 51.5965 52.0513 51.4272 52.0513 51.2508C52.0513 51.0743 51.9812 50.9051 51.8564 50.7803C51.7316 50.6555 51.5624 50.5854 51.3859 50.5854H47.6185Z" fill="#262642"/>
<path d="M79.6087 43.3962C79.8767 42.9262 80.0117 42.3922 79.9993 41.8514C79.9869 41.3105 79.8275 40.7833 79.5382 40.3262L72.1326 28.4322C71.8617 27.997 71.4844 27.6381 71.0363 27.3893C70.5882 27.1404 70.0841 27.0098 69.5715 27.0098C69.059 27.0098 68.5549 27.1404 68.1068 27.3893C67.6587 27.6381 67.2814 27.997 67.0104 28.4322L64.0608 33.1694C63.9814 33.2969 63.9475 33.4476 63.9646 33.5969C63.9817 33.7462 64.0489 33.8853 64.1551 33.9915C64.226 34.0623 64.3119 34.1162 64.4065 34.1492C64.5011 34.1822 64.6019 34.1934 64.7014 34.182C64.8009 34.1706 64.8965 34.1368 64.9812 34.0833C65.0659 34.0297 65.1373 33.9578 65.1903 33.8727L68.14 29.1355C68.2914 28.8923 68.5022 28.6917 68.7527 28.5526C69.0032 28.4135 69.2849 28.3405 69.5714 28.3405C69.8579 28.3405 70.1397 28.4135 70.3902 28.5526C70.6406 28.6917 70.8515 28.8923 71.0029 29.1355L78.4084 41.0294C78.5694 41.2835 78.6585 41.5765 78.6663 41.8772C78.6741 42.1778 78.6003 42.475 78.4528 42.7371C78.2996 43.0045 78.0778 43.2262 77.8103 43.3792C77.5428 43.5323 77.2393 43.6111 76.9312 43.6076H62.2112C61.9031 43.6111 61.5997 43.5322 61.3322 43.3791C61.0648 43.226 60.843 43.0043 60.69 42.7369C60.5426 42.4749 60.469 42.1778 60.4768 41.8773C60.4846 41.5768 60.5736 41.284 60.7343 41.03L62.7833 37.739C62.8309 37.6648 62.8632 37.582 62.8784 37.4952C62.8937 37.4084 62.8916 37.3195 62.8722 37.2335C62.8528 37.1476 62.8165 37.0664 62.7654 36.9945C62.7144 36.9227 62.6496 36.8618 62.5748 36.8152C62.5 36.7686 62.4167 36.7374 62.3298 36.7233C62.2428 36.7092 62.1539 36.7125 62.0682 36.733C61.9825 36.7535 61.9018 36.7908 61.8306 36.8428C61.7595 36.8948 61.6994 36.9604 61.6538 37.0357L59.6375 40.2737C59.3452 40.7341 59.1805 41.2639 59.1603 41.8089C59.1401 42.3538 59.2651 42.8944 59.5224 43.3752C59.7797 43.8511 60.1617 44.248 60.6274 44.5233C61.0931 44.7986 61.6249 44.9419 62.1659 44.938H76.9149C77.4602 44.9427 77.9971 44.8025 78.4704 44.5315C78.9437 44.2606 79.3366 43.8688 79.6087 43.3962Z" fill="#FF2911"/>
</svg>
