<svg width="106" height="81" viewBox="0 0 106 81" fill="none" xmlns="http://www.w3.org/2000/svg">
<path d="M1.272 13.8107C1.60936 13.8107 1.93289 13.6767 2.17144 13.4382C2.40999 13.1996 2.544 12.8761 2.544 12.5387V2.544H12.5387C12.8761 2.544 13.1996 2.40999 13.4382 2.17144C13.6767 1.93289 13.8107 1.60936 13.8107 1.272C13.8107 0.934645 13.6767 0.611107 13.4382 0.372561C13.1996 0.134015 12.8761 0 12.5387 0H1.3498C0.99649 0.0145945 0.661577 0.161491 0.411534 0.411535C0.16149 0.661578 0.0145945 0.99649 0 1.3498V12.5387C0 12.8761 0.134014 13.1996 0.37256 13.4382C0.611106 13.6767 0.934645 13.8107 1.272 13.8107Z" fill="#BDBDC7"/>
<path d="M104.65 0H93.461C93.1236 0 92.8001 0.134015 92.5615 0.372561C92.323 0.611107 92.189 0.934645 92.189 1.272C92.189 1.60936 92.323 1.93289 92.5615 2.17144C92.8001 2.40999 93.1236 2.544 93.461 2.544H103.456V12.5387C103.456 12.8761 103.59 13.1996 103.828 13.4382C104.067 13.6767 104.39 13.8107 104.728 13.8107C105.065 13.8107 105.389 13.6767 105.627 13.4382C105.866 13.1996 106 12.8761 106 12.5387V1.3498C105.985 0.99649 105.838 0.661578 105.588 0.411535C105.338 0.161491 105.003 0.0145945 104.65 0Z" fill="#BDBDC7"/>
<path d="M104.728 66.7493C104.39 66.7493 104.067 66.8833 103.828 67.1218C103.59 67.3604 103.456 67.6839 103.456 68.0213V78.016H93.461C93.1236 78.016 92.8001 78.15 92.5615 78.3886C92.323 78.6271 92.189 78.9507 92.189 79.288C92.189 79.6254 92.323 79.9489 92.5615 80.1874C92.8001 80.426 93.1236 80.56 93.461 80.56H104.65C105.003 80.5454 105.338 80.3985 105.588 80.1485C105.838 79.8984 105.985 79.5635 106 79.2102V68.0213C106 67.6839 105.866 67.3604 105.627 67.1218C105.389 66.8833 105.065 66.7493 104.728 66.7493Z" fill="#BDBDC7"/>
<path d="M1.3498 80.56H12.5387C12.8761 80.56 13.1996 80.426 13.4382 80.1874C13.6767 79.9489 13.8107 79.6254 13.8107 79.288C13.8107 78.9507 13.6767 78.6271 13.4382 78.3886C13.1996 78.15 12.8761 78.016 12.5387 78.016H2.544V68.0213C2.544 67.6839 2.40999 67.3604 2.17144 67.1218C1.93289 66.8833 1.60936 66.7493 1.272 66.7493C0.934645 66.7493 0.611106 66.8833 0.37256 67.1218C0.134014 67.3604 0 67.6839 0 68.0213V79.2102C0.0145945 79.5635 0.16149 79.8984 0.411534 80.1485C0.661577 80.3985 0.99649 80.5454 1.3498 80.56Z" fill="#BDBDC7"/>
<path d="M27.3625 40.0733C27.3653 35.7545 28.401 31.4989 30.3832 27.6618C32.3653 23.8246 35.2364 20.5172 38.7569 18.0154C42.2774 15.5137 46.3452 13.8902 50.6208 13.2805C54.8964 12.6707 59.2559 13.0924 63.3353 14.5103C63.5059 14.5698 63.6932 14.5591 63.8559 14.4805C64.0186 14.402 64.1435 14.262 64.203 14.0914C64.2625 13.9208 64.2518 13.7335 64.1732 13.5708C64.0947 13.4081 63.9547 13.2832 63.7841 13.2237C58.7035 11.4578 53.2263 11.1686 47.988 12.3896C42.7496 13.6106 37.9648 16.2918 34.1887 20.1221C30.4125 23.9525 27.7997 28.775 26.6534 34.0302C25.5072 39.2854 25.8744 44.7579 27.7125 49.8128C27.7424 49.8978 27.7889 49.9761 27.8492 50.043C27.9096 50.11 27.9826 50.1643 28.0641 50.2028C28.1456 50.2413 28.2339 50.2632 28.3239 50.2674C28.414 50.2715 28.5039 50.2577 28.5886 50.2269C28.6733 50.196 28.751 50.1486 28.8172 50.0875C28.8834 50.0264 28.9369 49.9527 28.9745 49.8708C29.012 49.7889 29.033 49.7003 29.0361 49.6102C29.0391 49.5201 29.0243 49.4303 28.9925 49.346C27.91 46.3745 27.3583 43.2359 27.3625 40.0733Z" fill="#FF2911"/>
<path d="M79.7742 28.7562C79.6075 28.8259 79.4753 28.959 79.4067 29.1261C79.3381 29.2933 79.3387 29.4808 79.4084 29.6475C81.124 33.7612 81.7973 38.2348 81.3686 42.6711C80.9398 47.1075 79.4223 51.3694 76.9507 55.0784C74.4792 58.7874 71.13 61.8287 67.2007 63.9324C63.2713 66.036 58.8833 67.1369 54.4263 67.1373C48.775 67.1545 43.2628 65.3861 38.6763 62.0845L41.4205 57.9144C41.4882 57.8117 41.5268 57.6926 41.5322 57.5698C41.5376 57.4469 41.5097 57.3249 41.4513 57.2166C41.393 57.1083 41.3064 57.0179 41.2008 56.9548C41.0952 56.8918 40.9746 56.8585 40.8516 56.8585L33.0436 56.8638C32.9349 56.8639 32.8278 56.89 32.7312 56.9399C32.6346 56.9898 32.5514 57.0621 32.4885 57.1508C32.4256 57.2395 32.3848 57.3419 32.3695 57.4495C32.3543 57.5572 32.365 57.6669 32.4008 57.7696L35.1046 65.5198C35.1465 65.6398 35.221 65.7456 35.3199 65.8254C35.4187 65.9052 35.5379 65.9558 35.664 65.9714C35.6918 65.9749 35.7199 65.9767 35.7479 65.9766C35.8607 65.9766 35.9717 65.9486 36.071 65.8951C36.1703 65.8416 36.2548 65.7642 36.3168 65.6701L37.9272 63.2231C42.1786 66.2529 47.1823 68.0535 52.3894 68.4274C57.5965 68.8013 62.8061 67.7341 67.4468 65.3428C72.0874 62.9515 75.98 59.3284 78.6976 54.871C81.4152 50.4135 82.8529 45.2938 82.853 40.0733C82.8602 36.3135 82.1164 32.5902 80.6654 29.1218C80.5957 28.9552 80.4626 28.823 80.2955 28.7545C80.1283 28.6859 79.9408 28.6865 79.7742 28.7562ZM35.9364 63.769L34.0025 58.2258L39.587 58.2218L35.9364 63.769Z" fill="#FF2911"/>
<path d="M82.3183 17.5146H76.9851V12.1814C76.9851 12.0007 76.9133 11.8274 76.7855 11.6997C76.6578 11.5719 76.4845 11.5001 76.3038 11.5001C76.1231 11.5001 75.9498 11.5719 75.8221 11.6997C75.6943 11.8274 75.6225 12.0007 75.6225 12.1814V17.5146H69.9479C69.7672 17.5146 69.5939 17.5864 69.4661 17.7142C69.3384 17.8419 69.2666 18.0152 69.2666 18.1959C69.2666 18.3766 69.3384 18.5499 69.4661 18.6776C69.5939 18.8054 69.7672 18.8772 69.9479 18.8772H75.6225V24.5519C75.6225 24.7326 75.6943 24.9059 75.8221 25.0337C75.9498 25.1614 76.1231 25.2332 76.3038 25.2332C76.4845 25.2332 76.6578 25.1614 76.7855 25.0337C76.9133 24.9059 76.9851 24.7326 76.9851 24.5519V18.8772H82.3183C82.499 18.8772 82.6723 18.8054 82.8 18.6776C82.9278 18.5499 82.9996 18.3766 82.9996 18.1959C82.9996 18.0152 82.9278 17.8419 82.8 17.7142C82.6723 17.5864 82.499 17.5146 82.3183 17.5146Z" fill="#FF2911"/>
<path d="M55.0789 24.8303C52.1931 24.8303 49.3722 25.686 46.9728 27.2892C44.5734 28.8925 42.7033 31.1712 41.5989 33.8373C40.4946 36.5034 40.2057 39.437 40.7686 42.2673C41.3316 45.0976 42.7212 47.6974 44.7618 49.738C46.8023 51.7785 49.4021 53.1681 52.2324 53.7311C55.0627 54.2941 57.9964 54.0051 60.6625 52.9008C63.3285 51.7965 65.6073 49.9264 67.2105 47.527C68.8138 45.1275 69.6695 42.3066 69.6695 39.4209C69.6651 35.5525 68.1265 31.8439 65.3911 29.1086C62.6558 26.3733 58.9472 24.8346 55.0789 24.8303ZM55.0789 48.0124C53.3796 48.0123 51.7186 47.5083 50.3057 46.5642C48.8929 45.6201 47.7918 44.2782 47.1415 42.7083C46.4913 41.1383 46.3213 39.4109 46.6528 37.7443C46.9844 36.0777 47.8027 34.5468 49.0043 33.3453C50.2059 32.1438 51.7368 31.3256 53.4034 30.9941C55.07 30.6627 56.7975 30.8329 58.3674 31.4832C59.9373 32.1335 61.2791 33.2347 62.2231 34.6476C63.1671 36.0605 63.671 37.7216 63.671 39.4209C63.6683 41.6987 62.7621 43.8825 61.1514 45.493C59.5406 47.1036 57.3567 48.0095 55.0789 48.0119V48.0124ZM61.6159 31.9204C59.9826 30.4912 57.9254 29.6376 55.7602 29.4905V26.2097C58.7943 26.3643 61.6819 27.5627 63.9338 29.602L61.6159 31.9204ZM54.3976 29.4905C52.2323 29.6376 50.1752 30.4913 48.5418 31.9204L46.224 29.6026C48.4759 27.5631 51.3634 26.3645 54.3976 26.2097V29.4905ZM47.5784 32.8839C46.1492 34.5172 45.2956 36.5744 45.1485 38.7397H41.8682C42.0229 35.7056 43.2213 32.8181 45.2606 30.5661L47.5784 32.8839ZM45.1485 40.1022C45.2956 42.2675 46.1492 44.3247 47.5784 45.958L45.2605 48.2758C43.2214 46.0238 42.0232 43.1362 41.8687 40.1021L45.1485 40.1022ZM48.5418 46.9213C50.1751 48.3505 52.2323 49.2041 54.3976 49.3512V52.6315C51.3635 52.4768 48.476 51.2784 46.224 49.2391L48.5418 46.9213ZM55.7602 49.3512C57.9254 49.2041 59.9826 48.3505 61.6159 46.9213L63.9337 49.2392C61.6817 51.2783 58.7942 52.4765 55.7602 52.6311V49.3512ZM62.5794 45.9578C64.0085 44.3245 64.8621 42.2674 65.0092 40.1021H68.2897C68.135 43.1363 66.9366 46.0238 64.8973 48.2757L62.5794 45.9578ZM65.0092 38.7396C64.8622 36.5743 64.0085 34.5171 62.5794 32.8838L64.8973 30.566C66.9367 32.8179 68.1353 35.7054 68.2901 38.7396H65.0092Z" fill="#262642"/>
<path d="M55.7602 38.7407V34.4347C56.1056 34.5479 56.4168 34.7469 56.6646 35.013V35.2084C56.6646 35.3891 56.7363 35.5623 56.8641 35.6901C56.9919 35.8179 57.1651 35.8896 57.3458 35.8896C57.5265 35.8896 57.6998 35.8179 57.8276 35.6901C57.9553 35.5623 58.0271 35.3891 58.0271 35.2084V34.8403C58.032 34.7934 58.032 34.7461 58.0271 34.6992V34.0729C58.0271 33.9494 57.9935 33.8282 57.93 33.7223C57.8665 33.6165 57.7753 33.5298 57.6664 33.4717C57.5574 33.4136 57.4347 33.3862 57.3113 33.3925C57.188 33.3987 57.0687 33.4384 56.9661 33.5072C56.5974 33.2744 56.1884 33.1126 55.7602 33.0303V32.6443C55.7602 32.4636 55.6884 32.2903 55.5606 32.1626C55.4329 32.0348 55.2596 31.963 55.0789 31.963C54.8982 31.963 54.7249 32.0348 54.5972 32.1626C54.4694 32.2903 54.3976 32.4636 54.3976 32.6443V33.0303C53.5932 33.1881 52.8686 33.6205 52.3477 34.2535C51.8268 34.8865 51.542 35.6808 51.542 36.5006C51.542 37.3203 51.8268 38.1146 52.3477 38.7476C52.8686 39.3806 53.5932 39.813 54.3976 39.9708V44.2769C54.0449 44.1611 53.7281 43.956 53.4779 43.6817V43.4676C53.4779 43.2869 53.4061 43.1136 53.2784 42.9858C53.1506 42.8581 52.9773 42.7863 52.7966 42.7863C52.6159 42.7863 52.4427 42.8581 52.3149 42.9858C52.1871 43.1136 52.1154 43.2869 52.1154 43.4676V44.603C52.1151 44.7244 52.1474 44.8436 52.2088 44.9483C52.2702 45.0531 52.3585 45.1395 52.4645 45.1985C52.5705 45.2576 52.6905 45.2873 52.8118 45.2844C52.9332 45.2815 53.0515 45.2462 53.1546 45.1821C53.5328 45.4275 53.9548 45.5974 54.3975 45.6824V46.1984C54.3975 46.3791 54.4693 46.5524 54.597 46.6802C54.7248 46.8079 54.8981 46.8797 55.0788 46.8797C55.2595 46.8797 55.4327 46.8079 55.5605 46.6802C55.6883 46.5524 55.76 46.3791 55.76 46.1984V45.682C56.5644 45.5242 57.289 45.0918 57.8099 44.4588C58.3307 43.8258 58.6155 43.0315 58.6155 42.2117C58.6155 41.392 58.3307 40.5977 57.8099 39.9647C57.289 39.3317 56.5644 38.8993 55.76 38.7414L55.7602 38.7407ZM52.9047 36.4999C52.9054 36.0428 53.0499 35.5974 53.3179 35.227C53.5858 34.8566 53.9636 34.5799 54.3976 34.4363V38.5628C53.9638 38.4191 53.5862 38.1426 53.3184 37.7723C53.0505 37.4021 52.9059 36.9569 52.9052 36.4999H52.9047ZM55.7602 44.2743V40.1476C56.1945 40.2906 56.5727 40.567 56.8407 40.9375C57.1088 41.308 57.2531 41.7536 57.2531 42.2109C57.2531 42.6682 57.1088 43.1138 56.8407 43.4843C56.5727 43.8547 56.1945 44.1312 55.7602 44.2742V44.2743Z" fill="#262642"/>
<path d="M55.0789 17.8752C43.1989 17.8752 33.5337 27.5404 33.5337 39.4204C33.5337 51.3005 43.1989 60.9657 55.0789 60.9657C66.959 60.9657 76.6242 51.3005 76.6242 39.4204C76.6242 27.5404 66.9595 17.8752 55.0789 17.8752ZM75.2621 39.4209C75.2619 40.3324 75.2003 41.2428 75.0776 42.146H73.807C73.5361 42.1457 73.2763 42.0379 73.0848 41.8463C72.8932 41.6548 72.7854 41.395 72.7851 41.1241V37.7177C72.7854 37.4468 72.8932 37.187 73.0848 36.9954C73.2763 36.8039 73.5361 36.6961 73.807 36.6958H75.0776C75.2003 37.599 75.2619 38.5094 75.2621 39.4209ZM73.807 35.3333C73.1748 35.334 72.5688 35.5854 72.1218 36.0324C71.6747 36.4795 71.4233 37.0855 71.4226 37.7177V41.1241C71.4233 41.7562 71.6747 42.3623 72.1218 42.8093C72.5688 43.2564 73.1748 43.5078 73.807 43.5085H74.8458C74.3298 46.0024 73.3438 48.3752 71.9404 50.5003L71.2126 49.7724C70.765 49.3259 70.1587 49.0752 69.5265 49.0752C68.8943 49.0752 68.2879 49.3259 67.8403 49.7724L65.4313 52.1811C64.9849 52.6287 64.7341 53.2351 64.7341 53.8673C64.7341 54.4995 64.9849 55.1059 65.4313 55.5534L66.1592 56.2811C64.0338 57.6846 61.6607 58.6707 59.1666 59.1868V58.1481C59.1659 57.5159 58.9144 56.9098 58.4674 56.4628C58.0204 56.0158 57.4143 55.7643 56.7821 55.7636H53.3758C52.7436 55.7643 52.1375 56.0158 51.6905 56.4628C51.2435 56.9098 50.992 57.5159 50.9913 58.1481V59.1868C48.4973 58.6706 46.1243 57.6845 43.9991 56.281L44.727 55.5533C45.1735 55.1057 45.4242 54.4994 45.4242 53.8672C45.4242 53.235 45.1735 52.6286 44.727 52.181L42.3187 49.7724C41.8711 49.326 41.2647 49.0753 40.6326 49.0753C40.0004 49.0753 39.394 49.326 38.9464 49.7724L38.2187 50.5002C36.8153 48.3751 35.8292 46.0023 35.3131 43.5085H36.3518C36.984 43.5078 37.59 43.2564 38.037 42.8093C38.4841 42.3623 38.7355 41.7562 38.7362 41.1241V37.7177C38.7355 37.0855 38.4841 36.4795 38.037 36.0324C37.59 35.5854 36.984 35.334 36.3518 35.3333H35.3131C35.8292 32.8392 36.8153 30.4663 38.2188 28.341L38.9465 29.0688C39.3941 29.5153 40.0005 29.766 40.6327 29.766C41.2649 29.766 41.8712 29.5153 42.3188 29.0688L44.7276 26.6602C45.174 26.2126 45.4248 25.6062 45.4248 24.974C45.4248 24.3419 45.174 23.7355 44.7276 23.2879L43.9997 22.5602C46.1248 21.1567 48.4975 20.1704 50.9913 19.654V20.6927C50.992 21.3249 51.2435 21.931 51.6905 22.378C52.1375 22.825 52.7436 23.0764 53.3758 23.0772H56.7821C57.4143 23.0765 58.0204 22.825 58.4674 22.378C58.9144 21.931 59.1659 21.3249 59.1666 20.6927V19.654C61.6607 20.17 64.0338 21.156 66.1593 22.5594L65.4313 23.2872C64.9849 23.7348 64.7341 24.3412 64.7341 24.9734C64.7341 25.6056 64.9849 26.2119 65.4313 26.6595L67.84 29.0682C68.0614 29.2896 68.3243 29.4653 68.6136 29.5851C68.9029 29.7049 69.213 29.7666 69.5261 29.7666C69.8393 29.7666 70.1494 29.7049 70.4387 29.5851C70.728 29.4653 70.9909 29.2896 71.2123 29.0682L71.9401 28.3402C73.3436 30.4657 74.3298 32.839 74.8458 35.3333H73.807ZM34.8967 39.4209C34.8969 38.5094 34.9586 37.599 35.0813 36.6958H36.3518C36.6227 36.6961 36.8825 36.8039 37.074 36.9954C37.2656 37.187 37.3734 37.4468 37.3737 37.7177V41.1241C37.3734 41.395 37.2656 41.6548 37.074 41.8463C36.8825 42.0379 36.6227 42.1457 36.3518 42.146H35.0813C34.9586 41.2428 34.8969 40.3324 34.8967 39.4209ZM71.1404 27.2136L70.2487 28.1053C70.1538 28.2002 70.0412 28.2755 69.9172 28.3268C69.7932 28.3782 69.6603 28.4046 69.5261 28.4046C69.3919 28.4046 69.259 28.3782 69.1351 28.3268C69.0111 28.2755 68.8984 28.2002 68.8035 28.1053L66.3949 25.6967C66.2035 25.5049 66.096 25.245 66.096 24.974C66.096 24.7031 66.2035 24.4432 66.3949 24.2514L67.2866 23.3598C68.7381 24.4657 70.0344 25.7618 71.1405 27.2132L71.1404 27.2136ZM57.804 19.4224V20.6927C57.8037 20.9636 57.696 21.2234 57.5044 21.415C57.3128 21.6065 57.0531 21.7143 56.7821 21.7146H53.3758C53.1048 21.7143 52.8451 21.6065 52.6535 21.415C52.4619 21.2234 52.3542 20.9636 52.3539 20.6927V19.4224C54.1622 19.1762 55.9956 19.1762 57.804 19.4224ZM42.8728 23.3593L43.7644 24.251C43.9557 24.4428 44.0632 24.7027 44.0632 24.9736C44.0632 25.2445 43.9557 25.5044 43.7644 25.6962L41.3557 28.1048C41.1639 28.2962 40.904 28.4036 40.6331 28.4036C40.3621 28.4036 40.1022 28.2962 39.9104 28.1048L39.0187 27.2133C40.1249 25.7617 41.4212 24.4654 42.8728 23.3593ZM39.0188 51.6276L39.9105 50.736C40.1023 50.5447 40.3622 50.4372 40.6332 50.4372C40.9041 50.4372 41.164 50.5447 41.3558 50.736L43.7644 53.1447C43.9557 53.3365 44.0631 53.5964 44.0631 53.8673C44.0631 54.1383 43.9557 54.3982 43.7644 54.59L42.8728 55.4817C41.421 54.3756 40.1245 53.0793 39.0183 51.6276H39.0188ZM52.3539 59.4184V58.1481C52.3542 57.8771 52.4619 57.6174 52.6535 57.4258C52.8451 57.2342 53.1048 57.1265 53.3758 57.1262H56.7821C57.0531 57.1265 57.3128 57.2342 57.5044 57.4258C57.696 57.6174 57.8037 57.8771 57.804 58.1481V59.4184C55.9957 59.6647 54.1622 59.6647 52.3539 59.4184ZM67.2862 55.4814L66.3945 54.5899C66.2032 54.3981 66.0957 54.1382 66.0957 53.8673C66.0957 53.5964 66.2032 53.3365 66.3945 53.1447L68.8033 50.7359C68.9951 50.5446 69.255 50.4372 69.5259 50.4372C69.7968 50.4372 70.0567 50.5446 70.2485 50.7359L71.1402 51.6276C70.0342 53.0791 68.7381 54.3754 67.2867 55.4814H67.2862Z" fill="#262642"/>
</svg>
