<svg width="106" height="81" viewBox="0 0 106 81" fill="none" xmlns="http://www.w3.org/2000/svg">
<path d="M1.272 13.8107C1.60936 13.8107 1.93289 13.6767 2.17144 13.4382C2.40999 13.1996 2.544 12.8761 2.544 12.5387V2.544H12.5387C12.8761 2.544 13.1996 2.40999 13.4382 2.17144C13.6767 1.93289 13.8107 1.60936 13.8107 1.272C13.8107 0.934645 13.6767 0.611107 13.4382 0.372561C13.1996 0.134015 12.8761 0 12.5387 0H1.3498C0.99649 0.0145945 0.661577 0.161491 0.411534 0.411535C0.16149 0.661578 0.0145945 0.99649 0 1.3498V12.5387C0 12.8761 0.134014 13.1996 0.37256 13.4382C0.611106 13.6767 0.934645 13.8107 1.272 13.8107Z" fill="#BDBDC7"/>
<path d="M104.65 0H93.461C93.1236 0 92.8001 0.134015 92.5615 0.372561C92.323 0.611107 92.189 0.934645 92.189 1.272C92.189 1.60936 92.323 1.93289 92.5615 2.17144C92.8001 2.40999 93.1236 2.544 93.461 2.544H103.456V12.5387C103.456 12.8761 103.59 13.1996 103.828 13.4382C104.067 13.6767 104.39 13.8107 104.728 13.8107C105.065 13.8107 105.389 13.6767 105.627 13.4382C105.866 13.1996 106 12.8761 106 12.5387V1.3498C105.985 0.99649 105.838 0.661578 105.588 0.411535C105.338 0.161491 105.003 0.0145945 104.65 0Z" fill="#BDBDC7"/>
<path d="M104.728 66.7493C104.39 66.7493 104.067 66.8833 103.828 67.1218C103.59 67.3604 103.456 67.6839 103.456 68.0213V78.016H93.461C93.1236 78.016 92.8001 78.15 92.5615 78.3886C92.323 78.6271 92.189 78.9507 92.189 79.288C92.189 79.6254 92.323 79.9489 92.5615 80.1874C92.8001 80.426 93.1236 80.56 93.461 80.56H104.65C105.003 80.5454 105.338 80.3985 105.588 80.1485C105.838 79.8984 105.985 79.5635 106 79.2102V68.0213C106 67.6839 105.866 67.3604 105.627 67.1218C105.389 66.8833 105.065 66.7493 104.728 66.7493Z" fill="#BDBDC7"/>
<path d="M1.3498 80.56H12.5387C12.8761 80.56 13.1996 80.426 13.4382 80.1874C13.6767 79.9489 13.8107 79.6254 13.8107 79.288C13.8107 78.9507 13.6767 78.6271 13.4382 78.3886C13.1996 78.15 12.8761 78.016 12.5387 78.016H2.544V68.0213C2.544 67.6839 2.40999 67.3604 2.17144 67.1218C1.93289 66.8833 1.60936 66.7493 1.272 66.7493C0.934645 66.7493 0.611106 66.8833 0.37256 67.1218C0.134014 67.3604 0 67.6839 0 68.0213V79.2102C0.0145945 79.5635 0.16149 79.8984 0.411534 80.1485C0.661577 80.3985 0.99649 80.5454 1.3498 80.56Z" fill="#BDBDC7"/>
<g clip-path="url(#clip0)">
<path d="M70.4627 47.9898V27.1969C70.4612 25.9249 69.4303 24.8935 68.1578 24.892H50.4771V26.4286H68.1578C68.5819 26.4291 68.9256 26.7727 68.9261 27.1969V30.4581H67.5996C67.1754 30.4581 66.8313 30.8023 66.8313 31.2264C66.8313 31.6506 67.1754 31.9947 67.5996 31.9947H68.9261V47.9898C68.9256 48.414 68.5819 48.7576 68.1578 48.7581H50.4771V50.2947H68.1578C69.4303 50.2932 70.4612 49.2623 70.4627 47.9898Z" fill="#FF2911"/>
<path d="M54.9854 42.0576C54.9844 43.4396 55.6831 44.7281 56.8421 45.4814C58.0015 46.2347 59.4626 46.3497 60.7255 45.7875C62.4382 46.5498 64.4495 46.0481 65.6039 44.571C66.7578 43.094 66.7578 41.0207 65.6039 39.5436C64.4495 38.0665 62.4382 37.5649 60.7255 38.3271C59.4626 37.7649 58.001 37.88 56.8421 38.6333C55.6831 39.3866 54.9844 40.675 54.9854 42.0576ZM56.5219 42.0576C56.5234 40.6515 57.6624 39.5126 59.0679 39.5106C59.1094 39.5106 59.1489 39.5151 59.19 39.5171C58.003 41.0027 58.003 43.112 59.19 44.5975C59.1489 44.5995 59.1094 44.6035 59.0679 44.6035C57.6624 44.602 56.5234 43.4631 56.5219 42.0576ZM61.6144 42.0576C61.6144 42.7994 61.2893 43.5041 60.7255 43.9863C60.1613 43.5046 59.8362 42.7994 59.8362 42.0571C59.8362 41.3153 60.1613 40.61 60.7255 40.1278C61.2893 40.6105 61.6139 41.3153 61.6144 42.0576ZM64.9291 42.0576C64.9276 43.4631 63.7887 44.602 62.3827 44.6035C62.3417 44.6035 62.3016 44.5995 62.2611 44.5975C63.4476 43.112 63.4476 41.0027 62.2611 39.5171C62.3016 39.5151 62.3417 39.5106 62.3827 39.5106C63.7882 39.5126 64.9276 40.6515 64.9291 42.0576Z" fill="#FF2911"/>
<path d="M65.5621 31.9947C65.9868 31.9947 66.3304 31.6506 66.3304 31.2264C66.3304 30.8023 65.9868 30.4581 65.5621 30.4581H62.553C62.1288 30.4581 61.7847 30.8023 61.7847 31.2264C61.7847 31.6506 62.1288 31.9947 62.553 31.9947H65.5621Z" fill="#FF2911"/>
<path d="M60.5918 31.9947C61.016 31.9947 61.3601 31.6506 61.3601 31.2264C61.3601 30.8023 61.016 30.4581 60.5918 30.4581H60.0876C59.663 30.4581 59.3193 30.8023 59.3193 31.2264C59.3193 31.6506 59.663 31.9947 60.0876 31.9947H60.5918Z" fill="#FF2911"/>
<path d="M58.0817 31.9947C58.5059 31.9947 58.85 31.6506 58.85 31.2264C58.85 30.8023 58.5059 30.4581 58.0817 30.4581H50.6804C50.2562 30.4581 49.9121 30.8023 49.9121 31.2264C49.9121 31.6506 50.2562 31.9947 50.6804 31.9947H58.0817Z" fill="#FF2911"/>
<path d="M75.2251 21.3817C75.6493 21.3817 75.9934 21.0375 75.9934 20.6134C75.9934 20.1887 75.6493 19.8451 75.2251 19.8451H75.1301C74.7059 19.8451 74.3618 20.1887 74.3618 20.6134C74.3618 21.0375 74.7059 21.3817 75.1301 21.3817H75.2251Z" fill="#FF2911"/>
<path d="M73.4368 19.8451H73.3747C72.9506 19.8451 72.6064 20.1887 72.6064 20.6134C72.6064 21.0375 72.9506 21.3817 73.3747 21.3817H73.4368C73.8614 21.3817 74.2051 21.0375 74.2051 20.6134C74.2051 20.1887 73.8614 19.8451 73.4368 19.8451Z" fill="#FF2911"/>
<path d="M70.9197 19.8451C70.495 19.8451 70.1514 20.1887 70.1514 20.6134C70.1514 21.0375 70.495 21.3817 70.9197 21.3817H70.9487C71.3728 21.3817 71.717 21.0375 71.717 20.6134C71.717 20.1887 71.3728 19.8451 70.9487 19.8451H70.9197Z" fill="#FF2911"/>
<path d="M69.3111 20.6134C69.3111 20.1888 68.9675 19.8451 68.5428 19.8451H61.8408L62.6761 19.0093C62.9672 18.7077 62.9632 18.2285 62.6671 17.9324C62.3705 17.6358 61.8913 17.6318 61.5897 17.9229L59.4429 20.0702C59.1427 20.3698 59.1427 20.8565 59.4429 21.1566L61.5897 23.3034C61.8913 23.5945 62.3705 23.5905 62.6671 23.2939C62.9632 22.9978 62.9672 22.5186 62.6761 22.217L61.8408 21.3817H68.5428C68.9675 21.3817 69.3111 21.0376 69.3111 20.6134Z" fill="#FF2911"/>
<path d="M78.523 54.9465H78.4284C78.0043 54.9465 77.6602 55.2901 77.6602 55.7148C77.6602 56.1389 78.0043 56.4831 78.4284 56.4831H78.523C78.9476 56.4831 79.2913 56.1389 79.2913 55.7148C79.2913 55.2901 78.9476 54.9465 78.523 54.9465Z" fill="#FF2911"/>
<path d="M76.7351 54.9465H76.6731C76.2489 54.9465 75.9048 55.2901 75.9048 55.7148C75.9048 56.1389 76.2489 56.4831 76.6731 56.4831H76.7351C77.1598 56.4831 77.5034 56.1389 77.5034 55.7148C77.5034 55.2901 77.1598 54.9465 76.7351 54.9465Z" fill="#FF2911"/>
<path d="M74.246 54.9465H74.217C73.7929 54.9465 73.4487 55.2901 73.4487 55.7148C73.4487 56.1389 73.7929 56.4831 74.217 56.4831H74.246C74.6707 56.4831 75.0143 56.1389 75.0143 55.7148C75.0143 55.2901 74.6707 54.9465 74.246 54.9465Z" fill="#FF2911"/>
<path d="M71.8409 54.9465H60.8442L61.68 54.1107C61.9731 53.8095 61.9696 53.3289 61.6725 53.0317C61.3754 52.7346 60.8947 52.7311 60.5936 53.0242L58.4468 55.1716C58.1467 55.4712 58.1467 55.9579 58.4468 56.258L60.5936 58.4048C60.8947 58.6979 61.3759 58.6949 61.673 58.3978C61.9701 58.1002 61.9736 57.6195 61.6805 57.3184L60.8447 56.4831H71.8409C72.265 56.4831 72.6092 56.1389 72.6092 55.7148C72.6092 55.2901 72.265 54.9465 71.8409 54.9465Z" fill="#FF2911"/>
<path d="M84.2315 31.5455H84.1369C83.7123 31.5455 83.3687 31.8892 83.3687 32.3138C83.3687 32.738 83.7123 33.0821 84.1369 33.0821H84.2315C84.6556 33.0821 84.9998 32.738 84.9998 32.3138C84.9998 31.8892 84.6556 31.5455 84.2315 31.5455Z" fill="#FF2911"/>
<path d="M82.4436 31.5455H82.3816C81.9569 31.5455 81.6133 31.8892 81.6133 32.3138C81.6133 32.738 81.9569 33.0821 82.3816 33.0821H82.4436C82.8678 33.0821 83.2119 32.738 83.2119 32.3138C83.2119 31.8892 82.8678 31.5455 82.4436 31.5455Z" fill="#FF2911"/>
<path d="M79.955 31.5455H79.9255C79.5014 31.5455 79.1572 31.8892 79.1572 32.3138C79.1572 32.738 79.5014 33.0821 79.9255 33.0821H79.955C80.3792 33.0821 80.7233 32.738 80.7233 32.3138C80.7233 31.8892 80.3792 31.5455 79.955 31.5455Z" fill="#FF2911"/>
<path d="M78.833 32.3139C78.833 31.8892 78.4888 31.5456 78.0647 31.5456H76.5151L77.3504 30.7098C77.6505 30.4096 77.6505 29.9235 77.3504 29.6233C77.0503 29.3232 76.5636 29.3232 76.264 29.6233L74.1172 31.7707C73.8171 32.0703 73.8171 32.557 74.1172 32.8571L76.264 35.0039C76.5636 35.304 77.0503 35.304 77.3504 35.0039C77.6505 34.7043 77.6505 34.2176 77.3504 33.9175L76.5151 33.0822H78.0647C78.4888 33.0822 78.833 32.738 78.833 32.3139Z" fill="#FF2911"/>
<path d="M83.8708 43.246H83.8088C83.3847 43.246 83.0405 43.5897 83.0405 44.0143C83.0405 44.4385 83.3847 44.7826 83.8088 44.7826H83.8713C84.2955 44.7826 84.6396 44.4385 84.6396 44.0143C84.6396 43.5897 84.2955 43.246 83.8713 43.246H83.8708Z" fill="#FF2911"/>
<path d="M81.3823 43.246H81.3533C80.9286 43.246 80.585 43.5897 80.585 44.0143C80.585 44.4385 80.9286 44.7826 81.3533 44.7826H81.3823C81.8064 44.7826 82.1506 44.4385 82.1506 44.0143C82.1506 43.5897 81.8064 43.246 81.3823 43.246Z" fill="#FF2911"/>
<path d="M79.4915 43.246H74.7822L75.6175 42.4102C75.8141 42.2166 75.8921 41.9325 75.8211 41.6659C75.7505 41.3988 75.542 41.1907 75.2754 41.1197C75.0088 41.0492 74.7247 41.1272 74.5311 41.3238L72.3843 43.4711C72.0842 43.7707 72.0842 44.2574 72.3843 44.5575L74.5311 46.7043C74.7247 46.9009 75.0088 46.9789 75.2754 46.9084C75.542 46.8374 75.7505 46.6293 75.8211 46.3627C75.8921 46.0956 75.8141 45.8115 75.6175 45.6179L74.7822 44.7826H79.4915C79.9161 44.7826 80.2598 44.4385 80.2598 44.0143C80.2598 43.5896 79.9161 43.246 79.4915 43.246Z" fill="#FF2911"/>
<path d="M55.2057 61.8326H47.0706V54.0147H49.6455V54.5539C49.6455 54.978 49.9897 55.3222 50.4138 55.3222H52.8553C53.2794 55.3222 53.6235 54.978 53.6235 54.5539V50.2917H52.087V53.7856H51.1821V21.1671H52.087V24.8515H53.6235V20.3988C53.6235 19.9747 53.2794 19.6306 52.8553 19.6306H50.4138C49.9897 19.6306 49.6455 19.9747 49.6455 20.3988V20.9275H26.3587C23.9527 20.93 22.0025 22.8803 22 25.2862V49.656C22.0025 52.0619 23.9527 54.0121 26.3587 54.0147H45.534V61.8326H37.3989C36.9742 61.8326 36.6306 62.1768 36.6306 62.6009C36.6306 63.0251 36.9742 63.3692 37.3989 63.3692H55.2057C55.6298 63.3692 55.9739 63.0251 55.9739 62.6009C55.9739 62.1768 55.6298 61.8326 55.2057 61.8326ZM26.3587 22.4641H49.6455V47.0155H23.5366V25.2857C23.5386 23.7281 24.8011 22.4656 26.3587 22.4641ZM23.5366 49.656V48.5521H49.6455V52.4781H26.3592C24.8011 52.4766 23.5386 51.2141 23.5366 49.656Z" fill="#262642"/>
</g>
<defs>
<clipPath id="clip0">
<rect width="63" height="63" fill="white" transform="translate(22 9)"/>
</clipPath>
</defs>
</svg>
