<svg width="600" height="600" viewBox="0 0 499 274" fill="none" xmlns="http://www.w3.org/2000/svg">
<g clip-path="url(#clip0)">
<g opacity="0.27">
<path opacity="0.27" d="M201.125 196.754L180.256 209.684L181.986 212.474L202.856 199.545L201.125 196.754Z" fill="#FF2911"/>
</g>
<g opacity="0.27">
<path opacity="0.27" d="M193.522 191.763L172.653 204.693L174.383 207.483L195.252 194.554L193.522 191.763Z" fill="#FF2911"/>
</g>
<path opacity="0.27" d="M242.846 247.485H233.403C223.796 247.485 214.353 244.94 206.059 240.18L83.9558 170.408L85.5981 167.535L206.962 236.978C215.256 241.739 224.699 244.284 234.306 244.284H242.025C251.55 244.284 260.829 241.821 269.122 237.142L350.661 191.011L352.304 193.884L269.944 240.426C261.65 245.105 252.371 247.485 242.846 247.485Z" fill="#FF2911"/>
<path opacity="0.27" d="M239.479 239.359H237.098C227.491 239.359 218.047 236.814 209.754 232.053L112.86 176.564L114.502 173.691L210.657 228.688C218.951 233.449 228.394 235.993 238.001 235.993H238.658C248.183 235.993 257.462 233.531 265.756 228.852L335.717 189.287L337.359 192.16L266.577 232.218C258.283 236.896 248.922 239.359 239.479 239.359Z" fill="#FF2911"/>
<path d="M335.634 187.481L337.277 190.354L266.577 230.329C258.283 235.008 249.004 237.471 239.479 237.471H237.098C227.491 237.471 218.047 234.926 209.754 230.165L112.86 174.676L114.502 171.803" stroke="#FF2911" stroke-opacity="0.4" stroke-width="2.00226" stroke-miterlimit="10"/>
<ellipse cx="246.018" cy="173.53" rx="194.887" ry="118.801" fill="url(#paint0_radial)" fill-opacity="0.3"/>
<path d="M349.758 193.391L269.369 238.866C261.322 243.463 252.207 245.843 242.928 245.843H233.649C224.288 245.843 215.092 243.381 206.962 238.784L87.7332 170.49L89.2933 167.699" stroke="#FF2911" stroke-opacity="0.4" stroke-width="2.00226" stroke-miterlimit="10"/>
<path d="M201.953 198.152L181.096 211.121" stroke="#FF2911" stroke-opacity="0.4" stroke-width="2.00226" stroke-miterlimit="10"/>
<path d="M194.317 193.145L173.542 206.032" stroke="#FF2911" stroke-opacity="0.4" stroke-width="2.00226" stroke-miterlimit="10"/>
<path d="M300.571 182.393C300.736 200.287 274.706 215.062 242.435 215.309C210.164 215.555 183.888 201.272 183.723 183.378C183.723 180.669 182.41 164.745 183.559 162.2C189.8 148.081 214.516 150.708 241.86 150.462C267.972 150.216 292.524 144.798 300.079 157.932C301.885 160.969 300.571 179.027 300.571 182.393Z" fill="url(#paint1_linear)"/>
<path d="M242.318 194.219C274.608 193.934 300.655 179.187 300.497 161.28C300.339 143.373 274.035 129.087 241.746 129.372C209.456 129.657 183.409 144.405 183.567 162.312C183.725 180.218 210.029 194.504 242.318 194.219Z" fill="#32324C"/>
<path d="M242.27 190.355C212.299 190.601 187.829 177.878 187.336 161.79C187.336 161.954 187.336 162.036 187.336 162.2C187.5 178.453 212.135 191.422 242.352 191.094C272.57 190.848 296.958 177.468 296.794 161.215C296.794 161.051 296.794 160.969 296.794 160.805C296.465 176.975 272.242 190.109 242.27 190.355Z" fill="#19192D"/>
<path opacity="0.13" d="M241.778 133.471C271.749 133.225 296.219 145.209 296.712 161.298C296.712 161.133 296.712 161.051 296.712 160.887C296.548 144.634 271.913 131.665 241.695 131.993C211.478 132.24 187.09 145.619 187.254 161.872C187.254 162.036 187.254 162.118 187.254 162.283C187.5 146.194 211.724 133.717 241.778 133.471Z" fill="white"/>
<path d="M71.2449 201.245L71.327 212.984L36.4286 233.915L36.2644 221.438L71.2449 201.245Z" fill="#29293F" fill-opacity="0.8"/>
<path d="M1.03735 201.901L1.11947 213.557L36.4284 233.914L36.2642 221.438L1.03735 201.901Z" fill="#0F0F1E"/>
<path d="M1.03735 201.902L36.2642 221.438L71.2447 201.245L35.9357 181.381L1.03735 201.902Z" fill="#32324C"/>
<path opacity="0.37" d="M9.74146 201.738L36.2642 216.513L62.5406 201.328L36.0179 186.388L9.74146 201.738Z" fill="url(#paint2_linear)"/>
<path opacity="0.37" d="M13.1904 201.737L36.2644 214.543L59.092 201.327L36.0181 188.358L13.1904 201.737Z" fill="url(#paint3_linear)"/>
<path d="M69.274 109.967L59.0919 201.327L36.2642 214.543L13.1902 201.737L3.17236 110.542L69.274 109.967Z" fill="url(#paint4_linear)"/>
<path d="M17.186 164.295C17.0566 163.634 16.4095 163.238 15.7623 163.37C15.1152 163.502 14.727 164.163 14.8564 164.823C14.9858 165.484 15.6329 165.88 16.28 165.748C17.0566 165.616 17.4449 164.955 17.186 164.295Z" fill="url(#paint5_linear)"/>
<path d="M36.1322 197.953C35.8018 199.599 34.1497 200.586 32.4977 200.257C30.8456 199.928 29.8543 198.282 30.1848 196.636C30.5152 194.99 32.1673 194.003 33.8193 194.332C35.4714 194.661 36.4627 196.307 36.1322 197.953Z" fill="#D4271C"/>
<path d="M27.5137 181.101C27.214 182.295 26.3147 182.892 25.1158 182.594C23.9168 182.295 23.3173 181.399 23.6171 180.205C23.9168 179.01 24.816 178.413 26.015 178.711C27.214 179.01 27.8134 179.906 27.5137 181.101Z" fill="#FF9E93"/>
<path d="M27.5137 143.782C27.214 144.977 26.3147 145.574 25.1158 145.275C23.9168 144.977 23.3173 144.081 23.6171 142.886C23.9168 141.692 24.816 141.095 26.015 141.393C27.214 141.692 27.8134 142.886 27.5137 143.782Z" fill="#FF9E93"/>
<path opacity="0.37" d="M199.736 158.751C199.572 169.504 218.622 178.123 242.435 177.877C266.166 177.63 285.627 168.765 285.791 157.93C285.955 147.095 266.905 138.558 243.092 138.722C219.361 138.969 199.9 147.916 199.736 158.751Z" fill="url(#paint6_linear)"/>
<path opacity="0.37" d="M198.094 159.572C198.176 171.146 218.54 180.421 243.503 180.175C268.465 179.929 288.583 170.325 288.501 158.751C288.419 147.095 268.055 137.902 243.092 138.148C218.13 138.394 198.012 147.998 198.094 159.572Z" fill="url(#paint7_linear)"/>
<path d="M243.174 143.565C264.195 143.401 281.521 150.378 283.656 159.571C283.82 158.997 283.82 158.34 283.82 157.765C283.738 147.669 265.509 139.707 243.092 139.871C220.675 140.035 202.61 148.408 202.692 158.422C202.692 159.079 202.774 159.653 202.938 160.228C204.909 151.116 222.153 143.811 243.174 143.565Z" fill="url(#paint8_linear)"/>
<path opacity="0.64" d="M193.824 123.7C193.906 136.177 215.83 146.11 242.682 145.863C269.533 145.617 291.293 135.274 291.129 122.798C291.047 110.321 269.122 100.388 242.271 100.635C215.42 100.881 193.742 111.224 193.824 123.7Z" fill="url(#paint9_linear)"/>
<path d="M269.615 8.04391L272.571 8.6185L265.591 4.59636C265.345 4.4322 265.098 4.26803 264.77 4.10386L264.524 3.93969C258.365 0.738393 250.071 1.47715 240.957 6.97681C222.071 18.3866 206.88 46.049 207.126 68.7864C207.208 79.5395 210.739 87.2554 216.487 91.1955L216.569 91.2776C217.144 91.688 217.801 92.0163 218.458 92.3447L225.273 96.3668L224.945 94.0685C229.954 94.3968 235.619 92.8372 241.696 89.2255C260.582 77.8157 275.773 50.1533 275.527 27.4159C275.527 18.9612 273.31 12.3944 269.615 8.04391ZM241.532 70.5923C231.185 76.8307 222.728 71.8236 222.563 59.4288C222.481 47.034 230.775 31.8484 241.121 25.61C251.467 19.3716 259.925 24.3787 260.089 36.7735C260.171 49.1682 251.878 64.3539 241.532 70.5923Z" fill="url(#paint10_linear)" fill-opacity="0.7"/>
<path d="M248.84 11.5739C229.954 22.9836 214.762 50.6461 215.009 73.3835C215.173 96.0388 230.693 105.232 249.579 93.7405C268.465 82.3307 283.656 54.6682 283.41 31.9308C283.245 9.19342 267.726 0.0820403 248.84 11.5739ZM249.415 75.1073C239.068 81.3457 230.61 76.3385 230.446 63.9438C230.364 51.549 238.658 36.3634 249.004 30.125C259.35 23.8865 267.808 28.8937 267.972 41.2885C268.054 53.6832 259.761 68.8689 249.415 75.1073Z" fill="url(#paint11_linear)"/>
<path d="M249.695 18.1115L249.695 18.1115L249.703 18.1069C257.635 13.2702 264.51 12.9778 269.326 15.8106C274.164 18.6557 277.478 24.9742 277.558 34.5689C277.637 44.1461 274.468 54.8733 269.213 64.4525C263.956 74.0342 256.691 82.3238 248.723 87.1186L248.716 87.1232C240.784 91.96 233.909 92.2523 229.092 89.4196C224.255 86.5745 220.94 80.2559 220.861 70.6612C220.781 61.084 223.95 50.3569 229.206 40.7776C234.462 31.1959 241.727 22.9064 249.695 18.1115Z" fill="#600000" stroke="#FF3517" stroke-width="3"/>
<mask id="mask0" mask-type="alpha" maskUnits="userSpaceOnUse" x="234" y="61" width="29" height="18">
<path fill-rule="evenodd" clip-rule="evenodd" d="M235.784 72.1509C235.455 72.3151 235.209 72.6434 235.127 72.9718L234.798 77.6506C234.798 77.9789 235.045 78.1431 235.373 77.9789L261.485 67.3079C261.814 67.1438 262.06 66.8154 262.142 66.4871L262.471 61.8083C262.471 61.4799 262.224 61.3158 261.896 61.4799L235.784 72.1509Z" fill="white"/>
</mask>
<g mask="url(#mask0)">
<path fill-rule="evenodd" clip-rule="evenodd" d="M240.711 59.9208L235.948 61.8908L236.03 60.3312L237.591 59.6745L240.711 59.9208Z" fill="#F41B20"/>
<path fill-rule="evenodd" clip-rule="evenodd" d="M243.913 60.0853L235.866 63.3687L235.948 61.8912L240.711 59.9211L243.913 60.0853Z" fill="#F31A21"/>
<path fill-rule="evenodd" clip-rule="evenodd" d="M247.033 60.3315L235.702 64.9282L235.866 63.3686L243.913 60.0853L247.033 60.3315Z" fill="#F31922"/>
<path fill-rule="evenodd" clip-rule="evenodd" d="M250.154 60.5777L235.62 66.4878L235.702 64.9282L247.033 60.3315L250.154 60.5777Z" fill="#F21823"/>
<path fill-rule="evenodd" clip-rule="evenodd" d="M253.274 60.7413L235.538 68.0468L235.62 66.4872L250.154 60.5771L253.274 60.7413Z" fill="#F11724"/>
<path fill-rule="evenodd" clip-rule="evenodd" d="M256.394 60.988L235.373 69.5248L235.538 68.0473L253.274 60.7418L256.394 60.988Z" fill="#F01725"/>
<path fill-rule="evenodd" clip-rule="evenodd" d="M259.597 61.1517L235.291 71.0839L235.373 69.5243L256.395 60.9875L259.597 61.1517Z" fill="#F01626"/>
<path fill-rule="evenodd" clip-rule="evenodd" d="M262.471 61.4804L235.209 72.6439L235.291 71.0843L259.597 61.1521L262.553 61.3984L262.471 61.4804Z" fill="#EF1527"/>
<path fill-rule="evenodd" clip-rule="evenodd" d="M262.389 63.0404L235.127 74.2039L235.209 72.6443L262.471 61.4808L262.389 63.0404Z" fill="#EE1428"/>
<path fill-rule="evenodd" clip-rule="evenodd" d="M262.306 64.518L234.963 75.6815L235.127 74.204L262.389 63.0405L262.306 64.518Z" fill="#ED1329"/>
<path fill-rule="evenodd" clip-rule="evenodd" d="M262.225 66.0768L234.881 77.2403L234.963 75.6807L262.307 64.5172L262.225 66.0768Z" fill="#ED122A"/>
<path fill-rule="evenodd" clip-rule="evenodd" d="M262.06 67.6364L235.948 78.3074L234.798 78.2253L234.88 77.2403L262.224 66.0768L262.06 67.6364Z" fill="#EC112B"/>
<path fill-rule="evenodd" clip-rule="evenodd" d="M261.978 69.1961L239.069 78.5537L235.948 78.3075L262.06 67.6365L261.978 69.1961Z" fill="#EB102C"/>
<path fill-rule="evenodd" clip-rule="evenodd" d="M261.896 70.6742L242.271 78.7185L239.068 78.5543L261.978 69.1967L261.896 70.6742Z" fill="#EB0F2D"/>
<path fill-rule="evenodd" clip-rule="evenodd" d="M261.814 72.2339L245.391 78.9648L242.271 78.7185L261.896 70.6743L261.814 72.2339Z" fill="#EA0F2E"/>
<path fill-rule="evenodd" clip-rule="evenodd" d="M261.65 73.7936L248.511 79.129L245.391 78.9649L261.814 72.2339L261.65 73.7936Z" fill="#EA0E2F"/>
<path fill-rule="evenodd" clip-rule="evenodd" d="M261.568 75.3528L251.632 79.3749L248.511 79.1287L261.65 73.7932L261.568 75.3528Z" fill="#E90D30"/>
<path fill-rule="evenodd" clip-rule="evenodd" d="M261.486 76.8298L254.835 79.6207L251.632 79.3744L261.568 75.3523L261.486 76.8298Z" fill="#E80D30"/>
<path fill-rule="evenodd" clip-rule="evenodd" d="M261.321 78.3896L257.954 79.785L254.834 79.6208L261.485 76.83L261.321 78.3896Z" fill="#E80C31"/>
</g>
<mask id="mask1" mask-type="alpha" maskUnits="userSpaceOnUse" x="236" y="27" width="29" height="34">
<path fill-rule="evenodd" clip-rule="evenodd" d="M259.022 29.3854C257.708 29.8779 256.641 31.4375 256.559 32.7509L255.82 43.6681C255.573 47.6903 253.11 50.5632 249.908 51.8766C246.705 53.1899 244.488 52.2049 244.734 48.1828L245.473 37.2655C245.556 35.9522 244.57 35.2955 243.338 35.788L240.136 37.1014C238.822 37.5939 237.755 39.1535 237.673 40.4668L236.934 50.9737C236.605 55.3241 237.673 58.2792 240.054 59.6746C242.435 61.07 245.556 60.988 249.415 59.3463C253.274 57.7867 256.559 55.2421 259.269 51.7945C261.978 48.347 263.456 44.4069 263.785 40.0564L264.524 29.4675C264.606 28.1542 263.621 27.4975 262.389 27.99L259.022 29.3854Z" fill="white"/>
</mask>
<g mask="url(#mask1)">
<path fill-rule="evenodd" clip-rule="evenodd" d="M262.635 27.497L237.754 37.6755L238.575 25.8553L262.635 27.497Z" fill="#FF2911"/>
<path fill-rule="evenodd" clip-rule="evenodd" d="M264.441 28.2358L237.672 39.2351L237.754 37.6755L262.635 27.497L264.524 27.6612L264.441 28.2358Z" fill="#FF2911"/>
<path fill-rule="evenodd" clip-rule="evenodd" d="M264.359 29.7952L237.59 40.7124L237.672 39.2349L264.442 28.2356L264.359 29.7952Z" fill="#FE2812"/>
<path fill-rule="evenodd" clip-rule="evenodd" d="M264.277 31.2728L237.508 42.2721L237.59 40.7125L264.359 29.7953L264.277 31.2728Z" fill="#FD2713"/>
<path fill-rule="evenodd" clip-rule="evenodd" d="M264.195 32.832L237.344 43.7492L237.508 42.2717L264.277 31.2724L264.195 32.832Z" fill="#FC2615"/>
<path fill-rule="evenodd" clip-rule="evenodd" d="M264.031 34.3922L237.261 45.3094L237.344 43.7498L264.195 32.8326L264.031 34.3922Z" fill="#FC2516"/>
<path fill-rule="evenodd" clip-rule="evenodd" d="M263.949 35.8697L237.18 46.8691L237.262 45.3095L264.031 34.3922L263.949 35.8697Z" fill="#FB2417"/>
<path fill-rule="evenodd" clip-rule="evenodd" d="M263.867 37.4289L237.097 48.3462L237.18 46.8686L263.949 35.8693L263.867 37.4289Z" fill="#FA2318"/>
<path fill-rule="evenodd" clip-rule="evenodd" d="M263.785 38.9065L236.933 49.9059L237.098 48.3463L263.867 37.429L263.785 38.9065Z" fill="#F92219"/>
<path fill-rule="evenodd" clip-rule="evenodd" d="M263.621 40.4668L236.852 51.384L236.934 49.9065L263.785 38.9072L263.621 40.4668Z" fill="#F8201A"/>
<path fill-rule="evenodd" clip-rule="evenodd" d="M263.538 41.9433L236.769 52.9427L236.851 51.3831L263.621 40.4658L263.538 41.9433Z" fill="#F71F1C"/>
<path fill-rule="evenodd" clip-rule="evenodd" d="M263.456 43.5035L236.687 54.4208L236.769 52.9432L263.538 41.9439L263.456 43.5035Z" fill="#F71E1D"/>
<path fill-rule="evenodd" clip-rule="evenodd" d="M263.292 45.0632L236.523 55.9804L236.687 54.4208L263.456 43.5036L263.292 45.0632Z" fill="#F61D1E"/>
<path fill-rule="evenodd" clip-rule="evenodd" d="M263.21 46.5408L236.44 57.5401L236.523 55.9805L263.292 45.0633L263.21 46.5408Z" fill="#F51C1F"/>
<path fill-rule="evenodd" clip-rule="evenodd" d="M263.128 48.1005L236.359 59.0177L236.441 57.5402L263.21 46.5409L263.128 48.1005Z" fill="#F41B20"/>
<path fill-rule="evenodd" clip-rule="evenodd" d="M263.046 49.5776L236.194 60.5769L236.359 59.0173L263.128 48.1001L263.046 49.5776Z" fill="#F31A21"/>
<path fill-rule="evenodd" clip-rule="evenodd" d="M262.881 51.1368L238.986 60.9049L236.194 60.7407V60.5765L263.046 49.5772L262.881 51.1368Z" fill="#F31922"/>
<path fill-rule="evenodd" clip-rule="evenodd" d="M262.8 52.697L242.107 61.0696L238.987 60.9054L262.882 51.1374L262.8 52.697Z" fill="#F21823"/>
<path fill-rule="evenodd" clip-rule="evenodd" d="M262.717 54.1746L245.227 61.3159L242.107 61.0697L262.799 52.6971L262.717 54.1746Z" fill="#F11724"/>
<path fill-rule="evenodd" clip-rule="evenodd" d="M262.635 55.7343L248.347 61.5623L245.227 61.316L262.717 54.1747L262.635 55.7343Z" fill="#F01725"/>
<path fill-rule="evenodd" clip-rule="evenodd" d="M262.471 57.2113L251.468 61.726L248.347 61.5618L262.635 55.7338L262.471 57.2113Z" fill="#F01626"/>
<path fill-rule="evenodd" clip-rule="evenodd" d="M262.389 58.7711L254.588 61.9724L251.468 61.7261L262.471 57.2115L262.389 58.7711Z" fill="#EF1527"/>
<path fill-rule="evenodd" clip-rule="evenodd" d="M262.307 60.2486L257.708 62.1366L254.588 61.9724L262.389 58.7711L262.307 60.2486Z" fill="#EE1428"/>
<path fill-rule="evenodd" clip-rule="evenodd" d="M262.225 61.8089L260.747 62.3835L257.708 62.1372L262.307 60.2493L262.225 61.8089Z" fill="#ED1329"/>
</g>
<path d="M261.896 109.665L259.843 111.142L259.925 111.224L261.896 109.747V109.665Z" fill="url(#paint12_linear)"/>
<path opacity="0.36" d="M215.666 122.88L211.807 120.581L211.725 107.776L215.584 110.075L215.666 122.88Z" fill="url(#paint13_linear)"/>
<path opacity="0.36" d="M215.502 105.561L211.643 103.262L211.396 72.5626L215.256 74.861L215.502 105.561Z" fill="url(#paint14_linear)"/>
<path d="M219.608 108.023L218.294 107.284L218.212 96.8594L219.526 97.5982L219.608 108.023Z" fill="url(#paint15_linear)"/>
<path opacity="0.36" d="M226.751 129.447L222.892 127.148V123.044L226.751 125.261V129.447Z" fill="url(#paint16_linear)"/>
<path opacity="0.36" d="M226.669 121.485L222.892 119.269L222.81 115.082L226.669 117.381V121.485Z" fill="url(#paint17_linear)"/>
<path opacity="0.36" d="M226.587 113.605L222.81 111.306L222.728 107.202L226.587 109.501V113.605Z" fill="url(#paint18_linear)"/>
<path opacity="0.36" d="M214.024 135.932L208.769 132.813L208.687 127.149L213.942 130.268L214.024 135.932Z" fill="url(#paint19_linear)"/>
<path d="M219.854 114.508L218.129 113.44V111.553L219.854 112.62V114.508Z" fill="url(#paint20_linear)"/>
<path d="M219.936 118.202L218.129 117.135V115.165L219.936 116.232V118.202Z" fill="url(#paint21_linear)"/>
<path d="M261.322 93.2479C261.404 101.456 267.07 111.471 274.049 115.493C276.266 116.806 278.401 117.299 280.208 117.134L280.126 117.955L282.589 116.478C282.835 116.396 283.082 116.232 283.246 116.067C285.299 114.59 286.53 111.799 286.53 107.859C286.448 99.6505 280.782 89.6362 273.803 85.614C270.436 83.644 267.48 83.4798 265.263 84.629L265.181 84.7111C265.099 84.7932 265.017 84.7932 264.935 84.8753L262.389 86.3528L263.456 86.1065C262.061 87.7482 261.322 90.1287 261.322 93.2479ZM267.07 96.5313C267.07 92.0166 270.108 90.1287 273.885 92.345C277.662 94.5612 280.783 99.9788 280.865 104.493C280.865 109.008 277.826 110.896 274.049 108.68C270.19 106.463 267.07 101.046 267.07 96.5313Z" fill="url(#paint22_linear)"/>
<path d="M258.529 94.9717C258.612 103.18 264.277 113.194 271.257 117.217C278.237 121.239 283.738 117.873 283.738 109.583C283.656 101.374 277.99 91.36 271.011 87.3378C264.031 83.2336 258.447 86.6811 258.529 94.9717ZM264.195 98.255C264.195 93.7404 267.234 91.8525 271.011 94.0687C274.788 96.285 277.908 101.703 277.99 106.217C277.99 110.732 274.952 112.62 271.175 110.404C267.398 108.187 264.277 102.77 264.195 98.255Z" fill="url(#paint23_linear)"/>
<path d="M271.011 89.2252C277.087 92.7548 282.014 101.456 282.096 108.597C282.178 115.821 277.333 118.776 271.257 115.246C265.181 111.716 260.254 103.015 260.172 95.8741C260.09 88.6506 264.934 85.6956 271.011 89.2252Z" fill="url(#paint24_radial)"/>
<path d="M271.011 89.2252C277.087 92.7548 282.014 101.456 282.096 108.597C282.178 115.821 277.333 118.776 271.257 115.246C265.181 111.716 260.254 103.015 260.172 95.8741C260.09 88.6506 264.934 85.6956 271.011 89.2252Z" fill="url(#paint25_linear)"/>
<mask id="mask2" mask-type="alpha" maskUnits="userSpaceOnUse" x="265" y="106" width="12" height="9">
<path fill-rule="evenodd" clip-rule="evenodd" d="M265.345 106.135C265.18 106.053 265.098 106.135 265.098 106.299L265.263 108.516C265.263 108.68 265.427 108.844 265.509 108.926L276.02 114.015C276.184 114.097 276.266 114.015 276.266 113.851L276.102 111.635C276.102 111.471 275.937 111.306 275.855 111.224L265.345 106.135Z" fill="white"/>
</mask>
<g mask="url(#mask2)">
<path fill-rule="evenodd" clip-rule="evenodd" d="M273.884 105.479L275.772 106.464V105.725L275.116 105.397L273.884 105.479Z" fill="#F41B20"/>
<path fill-rule="evenodd" clip-rule="evenodd" d="M272.652 105.561L275.855 107.12L275.773 106.464L273.884 105.479L272.652 105.561Z" fill="#F31A21"/>
<path fill-rule="evenodd" clip-rule="evenodd" d="M271.339 105.643L275.937 107.859L275.855 107.12L272.652 105.561L271.339 105.643Z" fill="#F31922"/>
<path fill-rule="evenodd" clip-rule="evenodd" d="M270.107 105.726L275.937 108.598V107.86L271.338 105.643L270.107 105.726Z" fill="#F21823"/>
<path fill-rule="evenodd" clip-rule="evenodd" d="M268.875 105.808L276.019 109.337L275.937 108.598L270.106 105.725L268.875 105.808Z" fill="#F11724"/>
<path fill-rule="evenodd" clip-rule="evenodd" d="M267.561 105.972L276.019 110.076V109.337L268.875 105.808L267.561 105.972Z" fill="#F01725"/>
<path fill-rule="evenodd" clip-rule="evenodd" d="M266.329 106.053L276.101 110.732L276.019 110.075L267.561 105.971L266.329 106.053Z" fill="#F01626"/>
<path fill-rule="evenodd" clip-rule="evenodd" d="M265.098 106.135L276.183 111.471L276.101 110.732L266.33 106.053L265.098 106.135Z" fill="#EF1527"/>
<path fill-rule="evenodd" clip-rule="evenodd" d="M265.18 106.875L276.183 112.21V111.471L265.098 106.136L265.18 106.875Z" fill="#EE1428"/>
<path fill-rule="evenodd" clip-rule="evenodd" d="M265.262 107.613L276.265 112.949L276.183 112.21L265.18 106.874L265.262 107.613Z" fill="#ED1329"/>
<path fill-rule="evenodd" clip-rule="evenodd" d="M265.262 108.269L276.265 113.605V112.948L265.262 107.612V108.269Z" fill="#ED122A"/>
<path fill-rule="evenodd" clip-rule="evenodd" d="M265.344 109.009L275.855 114.098H276.348L276.265 113.605L265.262 108.27L265.344 109.009Z" fill="#EC112B"/>
<path fill-rule="evenodd" clip-rule="evenodd" d="M265.344 109.747L274.623 114.18L275.855 114.098L265.344 109.008V109.747Z" fill="#EB102C"/>
<path fill-rule="evenodd" clip-rule="evenodd" d="M265.426 110.486L273.309 114.262L274.623 114.18L265.344 109.747L265.426 110.486Z" fill="#EB0F2D"/>
<path fill-rule="evenodd" clip-rule="evenodd" d="M265.509 111.143L272.078 114.344L273.309 114.262L265.427 110.486L265.509 111.143Z" fill="#EA0F2E"/>
<path fill-rule="evenodd" clip-rule="evenodd" d="M265.509 111.881L270.846 114.426L272.078 114.344L265.509 111.143V111.881Z" fill="#EA0E2F"/>
<path fill-rule="evenodd" clip-rule="evenodd" d="M265.591 112.62L269.532 114.59L270.846 114.426L265.509 111.881L265.591 112.62Z" fill="#E90D30"/>
<path fill-rule="evenodd" clip-rule="evenodd" d="M265.591 113.359L268.301 114.672L269.532 114.59L265.591 112.62V113.359Z" fill="#E80D30"/>
<path fill-rule="evenodd" clip-rule="evenodd" d="M265.673 114.015L267.069 114.754L268.301 114.672L265.591 113.359L265.673 114.015Z" fill="#E80C31"/>
<path fill-rule="evenodd" clip-rule="evenodd" d="M267.069 114.755L265.673 114.016L265.755 114.837L267.069 114.755Z" fill="#E80C31"/>
</g>
<mask id="mask3" mask-type="alpha" maskUnits="userSpaceOnUse" x="264" y="92" width="12" height="16">
<path fill-rule="evenodd" clip-rule="evenodd" d="M265.099 92.1809C264.606 91.9346 264.195 92.2629 264.195 92.8375L264.524 97.7626C264.688 99.8147 265.263 101.621 266.412 103.262C267.48 104.904 268.794 106.053 270.436 106.792C271.996 107.531 273.228 107.613 274.213 106.956C275.116 106.299 275.527 104.986 275.445 102.934L275.116 98.0089C275.034 97.3522 274.624 96.6955 274.131 96.4493L272.817 95.7926C272.325 95.5463 271.914 95.8747 271.914 96.4493L272.242 101.538C272.407 103.426 271.503 103.837 270.19 103.262C268.876 102.606 267.89 101.292 267.726 99.4043L267.398 94.3971C267.316 93.7405 266.905 93.0838 266.412 92.8375L265.099 92.1809Z" fill="white"/>
</mask>
<g mask="url(#mask3)">
<path fill-rule="evenodd" clip-rule="evenodd" d="M264.935 91.9342L274.952 96.7772L274.542 91.2775L264.935 91.9342Z" fill="#FF2911"/>
<path fill-rule="evenodd" clip-rule="evenodd" d="M264.196 92.2624L275.035 97.5158L274.952 96.777L264.935 91.934H264.196V92.2624Z" fill="#FF2911"/>
<path fill-rule="evenodd" clip-rule="evenodd" d="M264.278 93.0015L275.035 98.1728V97.5162L264.196 92.2628L264.278 93.0015Z" fill="#FE2812"/>
<path fill-rule="evenodd" clip-rule="evenodd" d="M264.278 93.6585L275.117 98.9119L275.034 98.1732L264.278 93.0018V93.6585Z" fill="#FD2713"/>
<path fill-rule="evenodd" clip-rule="evenodd" d="M264.36 94.3966L275.117 99.65V98.9113L264.278 93.6578L264.36 94.3966Z" fill="#FC2615"/>
<path fill-rule="evenodd" clip-rule="evenodd" d="M264.359 95.1357L275.198 100.307L275.116 99.6503L264.359 94.3969V95.1357Z" fill="#FC2516"/>
<path fill-rule="evenodd" clip-rule="evenodd" d="M264.441 95.7921L275.281 101.046L275.198 100.307L264.359 95.1354L264.441 95.7921Z" fill="#FB2417"/>
<path fill-rule="evenodd" clip-rule="evenodd" d="M264.524 96.5302L275.281 101.784V101.045L264.442 95.7914L264.524 96.5302Z" fill="#FA2318"/>
<path fill-rule="evenodd" clip-rule="evenodd" d="M264.524 97.2698L275.363 102.441L275.281 101.784L264.524 96.531V97.2698Z" fill="#F92219"/>
<path fill-rule="evenodd" clip-rule="evenodd" d="M264.606 97.9268L275.363 103.18V102.441L264.524 97.2701L264.606 97.9268Z" fill="#F8201A"/>
<path fill-rule="evenodd" clip-rule="evenodd" d="M264.606 98.6653L275.445 103.919L275.363 103.18L264.606 97.9266V98.6653Z" fill="#F71F1C"/>
<path fill-rule="evenodd" clip-rule="evenodd" d="M264.688 99.4044L275.527 104.658L275.445 103.919L264.606 98.6656L264.688 99.4044Z" fill="#F71E1D"/>
<path fill-rule="evenodd" clip-rule="evenodd" d="M264.77 100.06L275.527 105.314V104.657L264.688 99.4037L264.77 100.06Z" fill="#F61D1E"/>
<path fill-rule="evenodd" clip-rule="evenodd" d="M264.77 100.799L275.609 106.053L275.527 105.314L264.77 100.061V100.799Z" fill="#F51C1F"/>
<path fill-rule="evenodd" clip-rule="evenodd" d="M264.852 101.538L275.609 106.792V106.053L264.77 100.8L264.852 101.538Z" fill="#F41B20"/>
<path fill-rule="evenodd" clip-rule="evenodd" d="M264.852 102.277L275.691 107.448L275.609 106.792L264.852 101.538V102.277Z" fill="#F31A21"/>
<path fill-rule="evenodd" clip-rule="evenodd" d="M264.934 102.934L274.542 107.613L275.691 107.531V107.449L264.852 102.277L264.934 102.934Z" fill="#F31922"/>
<path fill-rule="evenodd" clip-rule="evenodd" d="M265.017 103.672L273.31 107.694L274.542 107.612L264.935 102.933L265.017 103.672Z" fill="#F21823"/>
<path fill-rule="evenodd" clip-rule="evenodd" d="M265.017 104.411L272.078 107.777L273.31 107.694L265.017 103.672V104.411Z" fill="#F11724"/>
<path fill-rule="evenodd" clip-rule="evenodd" d="M265.099 105.068L270.847 107.858L272.078 107.776L265.017 104.411L265.099 105.068Z" fill="#F01725"/>
<path fill-rule="evenodd" clip-rule="evenodd" d="M265.098 105.806L269.615 107.94L270.846 107.858L265.098 105.067V105.806Z" fill="#F01626"/>
<path fill-rule="evenodd" clip-rule="evenodd" d="M265.18 106.545L268.301 108.022L269.615 107.94L265.098 105.806L265.18 106.545Z" fill="#EF1527"/>
<path fill-rule="evenodd" clip-rule="evenodd" d="M265.181 107.202L267.069 108.105L268.301 108.023L265.181 106.546V107.202Z" fill="#EE1428"/>
<path fill-rule="evenodd" clip-rule="evenodd" d="M265.263 107.941L265.838 108.187L267.069 108.105L265.181 107.202L265.263 107.941Z" fill="#ED1329"/>
</g>
<path d="M272.16 117.38L273.721 116.395L273.639 104.001L272.078 104.904L272.16 117.38Z" fill="url(#paint26_linear)"/>
<path d="M283.492 103.098L285.298 101.949L285.216 100.061L283.492 101.128V103.098Z" fill="url(#paint27_linear)"/>
<path opacity="0.36" d="M277.17 157.356L280.372 155.386L280.208 144.797L277.087 146.767L277.17 157.356Z" fill="url(#paint28_linear)"/>
<path opacity="0.36" d="M277.087 142.909L280.208 141.021L279.797 91.0316L276.595 93.0016L277.087 142.909Z" fill="url(#paint29_linear)"/>
<path d="M264.196 168.437L265.428 167.698L265.345 157.274L264.114 158.094L264.196 168.437Z" fill="url(#paint30_linear)"/>
<path d="M273.721 145.043L274.788 144.386L274.706 135.767L273.639 136.424L273.721 145.043Z" fill="url(#paint31_linear)"/>
<path opacity="0.35" d="M268.055 163.019L271.175 161.049V157.601L268.055 159.571V163.019Z" fill="url(#paint32_linear)"/>
<path opacity="0.35" d="M267.973 156.452L271.175 154.482L271.093 151.035L267.973 153.005V156.452Z" fill="url(#paint33_linear)"/>
<path opacity="0.35" d="M267.973 149.804L271.093 147.834V144.386L267.891 146.356L267.973 149.804Z" fill="url(#paint34_linear)"/>
<path opacity="0.36" d="M267.89 143.237L271.011 141.267L270.847 115.575L267.644 117.545L267.89 143.237Z" fill="url(#paint35_linear)"/>
<path d="M273.556 150.461L275.034 149.558V147.998L273.556 148.901V150.461Z" fill="url(#paint36_linear)"/>
<path d="M273.556 153.497L275.034 152.594V151.035L273.556 151.938V153.497Z" fill="url(#paint37_linear)"/>
<path d="M273.639 156.535L275.034 155.632V154.073L273.556 154.976L273.639 156.535Z" fill="url(#paint38_linear)"/>
<path opacity="0.35" d="M269.287 102.605L270.354 101.948L270.272 93.3293L269.205 93.986L269.287 102.605Z" fill="url(#paint39_linear)"/>
<path d="M269.122 108.023L270.6 107.12V105.561L269.122 106.463V108.023Z" fill="url(#paint40_linear)"/>
<path d="M269.205 111.059L270.6 110.156V108.597L269.205 109.5V111.059Z" fill="url(#paint41_linear)"/>
<path d="M269.205 114.097L270.683 113.194V111.553L269.205 112.455V114.097Z" fill="url(#paint42_linear)"/>
<path d="M258.283 88.7334L259.351 87.9946L259.269 79.3757L258.201 80.0324L258.283 88.7334Z" fill="url(#paint43_linear)"/>
<path d="M258.119 94.0686L259.597 93.1656V91.606L258.119 92.5089V94.0686Z" fill="url(#paint44_linear)"/>
<path d="M258.119 97.1058L259.597 96.2029V94.6433L258.119 95.5462V97.1058Z" fill="url(#paint45_linear)"/>
<path d="M258.201 100.142L259.597 99.2392V97.6796L258.119 98.5825L258.201 100.142Z" fill="url(#paint46_linear)"/>
<path d="M256.066 112.866L256.723 112.456L256.641 106.874L255.984 107.284L256.066 112.866Z" fill="url(#paint47_linear)"/>
<path d="M255.902 116.396L256.887 115.821V114.754L255.902 115.329V116.396Z" fill="url(#paint48_linear)"/>
<path d="M255.984 118.366L256.887 117.791V116.724L255.984 117.299V118.366Z" fill="url(#paint49_linear)"/>
<path d="M255.984 120.336L256.887 119.761V118.694L255.984 119.269V120.336Z" fill="url(#paint50_linear)"/>
<path d="M256.148 127.969L256.887 127.476L256.805 121.894L256.148 122.305V127.969Z" fill="url(#paint51_linear)"/>
<path d="M256.066 131.417L257.052 130.842L256.97 129.775L256.066 130.432V131.417Z" fill="url(#paint52_linear)"/>
<path d="M256.066 133.387L257.052 132.812V131.745L256.066 132.319V133.387Z" fill="url(#paint53_linear)"/>
<path d="M256.066 135.357L257.052 134.782V133.715L256.066 134.29V135.357Z" fill="url(#paint54_linear)"/>
<path d="M256.313 142.991L256.97 142.498V136.917L256.231 137.409L256.313 142.991Z" fill="url(#paint55_linear)"/>
<path d="M256.231 146.439L257.134 145.864V144.879L256.231 145.454V146.439Z" fill="url(#paint56_linear)"/>
<path d="M256.231 148.408L257.134 147.833V146.766L256.231 147.423V148.408Z" fill="url(#paint57_linear)"/>
<path d="M256.231 150.378L257.216 149.804L257.134 148.737L256.231 149.311V150.378Z" fill="url(#paint58_linear)"/>
<path d="M283.656 157.848C283.739 167.863 265.673 176.153 243.339 176.399C221.004 176.564 202.774 168.601 202.692 158.587L173.295 50.4818L307.634 49.2505L283.656 157.848Z" fill="url(#paint59_linear)"/>
<path d="M216.405 67.3912L217.309 165.728C217.226 165.728 218.048 100.8 216.405 67.3912Z" fill="url(#paint60_linear)"/>
<path opacity="0.35" d="M263.621 69.1145L264.524 167.452C264.524 167.452 265.345 102.523 263.621 69.1145Z" fill="url(#paint61_linear)"/>
<path d="M272.489 46.5414L273.228 131.171C273.228 131.171 274.213 79.8677 272.489 46.5414Z" fill="url(#paint62_linear)"/>
<path d="M175.348 157.767L175.512 173.527L128.297 201.928L128.133 185.101L175.348 157.767Z" fill="#29293F"/>
<path d="M80.4248 158.588L80.5069 174.43L128.297 201.928L128.133 185.101L80.4248 158.588Z" fill="#0F0F1E"/>
<path d="M80.4248 158.587L128.133 185.1L175.348 157.766L127.64 130.843L80.4248 158.587Z" fill="#32324C"/>
<path d="M191.278 205.95L191.361 214.323L166.48 229.262L166.398 220.397L191.278 205.95Z" fill="#29293F"/>
<path d="M141.271 206.443L141.353 214.733L166.48 229.262L166.398 220.397L141.271 206.443Z" fill="#0F0F1E"/>
<path d="M141.271 206.443L166.398 220.397L191.278 205.95L166.151 191.832L141.271 206.443Z" fill="#32324C"/>
<path d="M338.426 201.518L338.508 209.891L313.628 224.83L313.546 215.965L338.426 201.518Z" fill="#29293F"/>
<path d="M288.419 202.01L288.501 210.301L313.628 224.83L313.546 215.965L288.419 202.01Z" fill="#0F0F1E"/>
<path d="M288.419 202.01L313.546 215.965L338.426 201.518L313.299 187.399L288.419 202.01Z" fill="#32324C"/>
<path opacity="0.37" d="M92.1672 158.424L128.051 178.37L163.606 157.849L127.723 137.574L92.1672 158.424Z" fill="url(#paint63_linear)"/>
<path opacity="0.37" d="M96.7651 158.341L128.051 175.743L159.007 157.848L127.722 140.2L96.7651 158.341Z" fill="url(#paint64_linear)"/>
<path opacity="0.48" d="M94.7947 136.835L127.887 155.222L160.732 136.26L127.558 117.545L94.7947 136.835Z" fill="url(#paint65_linear)"/>
<path opacity="0.18" d="M94.7947 136.835L127.887 155.222L160.732 136.26L127.558 117.545L94.7947 136.835Z" fill="url(#paint66_linear)"/>
<path d="M172.72 34.0655L159.007 157.685L128.05 175.579L96.765 158.259L83.2983 34.8863L172.72 34.0655Z" fill="url(#paint67_linear)"/>
<path d="M144.227 40.1398L146.116 40.4681L141.6 37.8414C141.435 37.7593 141.271 37.6773 141.107 37.5131L140.943 37.431C137.001 35.3789 131.664 35.8714 125.752 39.401C113.599 46.7886 103.827 64.601 103.992 79.1299C104.074 86.1071 106.373 91.0322 109.986 93.5768H110.068C110.479 93.823 110.889 94.0693 111.3 94.2335L115.652 96.7781L115.405 95.3006C118.608 95.5468 122.303 94.5618 126.244 92.1814C138.397 84.7938 148.169 66.9814 148.005 52.4525C148.005 47.1991 146.609 42.9307 144.227 40.1398ZM126.162 80.3612C119.511 84.3833 114.009 81.182 114.009 73.2198C113.927 65.2576 119.265 55.4896 125.916 51.4674C132.567 47.4453 138.069 50.6466 138.069 58.6088C138.151 66.6531 132.813 76.3391 126.162 80.3612Z" fill="url(#paint68_linear)" fill-opacity="0.7"/>
<path d="M130.843 42.438C118.69 49.8256 108.918 67.638 109.082 82.1669C109.247 96.778 119.182 102.606 131.335 95.3004C143.488 87.9128 153.26 70.1005 153.095 55.5716C153.013 40.8784 143.077 35.0504 130.843 42.438ZM131.253 83.3161C124.602 87.3382 119.1 84.137 119.1 76.1748C119.018 68.2126 124.356 58.4445 131.007 54.4224C137.658 50.4002 143.16 53.6015 143.16 61.5637C143.242 69.5259 137.904 79.294 131.253 83.3161Z" fill="url(#paint69_linear)"/>
<path d="M130.843 42.6022C118.69 49.9898 108.918 67.8021 109.082 82.3311C109.247 96.86 119.182 102.77 131.335 95.4646C143.488 88.077 153.26 70.2646 153.095 55.7357C152.931 41.2067 143.077 35.2966 130.843 42.6022ZM131.253 83.5623C124.602 87.5845 119.1 84.3832 119.1 76.421C119.018 68.4588 124.356 58.6907 131.007 54.6686C137.658 50.6464 143.16 53.8477 143.16 61.8099C143.16 69.7721 137.904 79.5402 131.253 83.5623Z" fill="url(#paint70_linear)"/>
<path d="M148.722 57.2131V57.2228L148.722 57.2325C148.8 63.2759 146.802 70.0809 143.456 76.1818C140.109 82.2847 135.491 87.5385 130.477 90.5691C125.458 93.6029 121.25 93.7114 118.382 92.0267C115.497 90.3315 113.413 86.4981 113.374 80.4333C113.335 74.386 115.354 67.578 118.711 61.476C122.069 55.3717 126.687 50.1177 131.701 47.0871C136.721 44.0526 140.928 43.9457 143.784 45.6285C146.656 47.3207 148.722 51.1494 148.722 57.2131Z" fill="#600000" stroke="#FF3517" stroke-width="3"/>
<path d="M411.918 161.05L412 178.123L361.007 208.823L360.843 190.6L411.918 161.05Z" fill="#29293F"/>
<path d="M309.276 161.953L309.44 179.026L361.008 208.823L360.843 190.6L309.276 161.953Z" fill="#0F0F1E"/>
<path d="M309.276 161.953L360.843 190.6L411.918 161.05L360.269 131.992L309.276 161.953Z" fill="#32324C"/>
<path d="M486.214 200.208L486.296 211.946L451.397 232.878L451.233 220.401L486.214 200.208Z" fill="#29293F"/>
<path d="M416.006 200.864L416.088 212.52L451.397 232.877L451.233 220.4L416.006 200.864Z" fill="#0F0F1E"/>
<path d="M416.006 200.865L451.233 220.401L486.214 200.208L450.905 180.344L416.006 200.865Z" fill="#32324C"/>
<path opacity="0.37" d="M424.71 200.701L451.233 215.476L477.51 200.29L450.987 185.351L424.71 200.701Z" fill="url(#paint71_linear)"/>
<path opacity="0.37" d="M428.159 200.7L451.233 213.505L474.061 200.29L450.987 187.32L428.159 200.7Z" fill="url(#paint72_linear)"/>
<path d="M484.243 108.93L474.061 200.29L451.233 213.505L428.159 200.7L418.141 109.504L484.243 108.93Z" fill="url(#paint73_linear)"/>
<path d="M432.155 163.257C432.025 162.597 431.378 162.201 430.731 162.333C430.084 162.465 429.696 163.125 429.825 163.786C429.955 164.446 430.602 164.842 431.249 164.71C432.025 164.578 432.414 163.918 432.155 163.257Z" fill="url(#paint74_linear)"/>
<path d="M451.101 196.915C450.771 198.561 449.118 199.549 447.466 199.22C445.814 198.891 444.823 197.245 445.154 195.599C445.484 193.953 447.136 192.965 448.788 193.294C450.44 193.624 451.431 195.269 451.101 196.915Z" fill="#D4271C"/>
<path d="M442.483 180.063C442.183 181.258 441.284 181.855 440.085 181.556C438.886 181.258 438.286 180.362 438.586 179.167C438.886 177.973 439.785 177.375 440.984 177.674C442.183 177.973 442.782 178.869 442.483 180.063Z" fill="#FF9E93"/>
<path d="M442.483 142.745C442.183 143.939 441.284 144.537 440.085 144.238C438.886 143.939 438.286 143.043 438.586 141.849C438.886 140.654 439.785 140.057 440.984 140.356C442.183 140.654 442.782 141.849 442.483 142.745Z" fill="#FF9E93"/>
<mask id="mask4" mask-type="alpha" maskUnits="userSpaceOnUse" x="123" y="73" width="16" height="12">
<path fill-rule="evenodd" clip-rule="evenodd" d="M123.781 81.1007C123.616 81.1828 123.452 81.429 123.452 81.5932V84.302C123.452 84.4661 123.616 84.5482 123.781 84.4661L138.479 77.2427C138.643 77.1606 138.807 76.9144 138.807 76.7502V74.0414C138.807 73.8772 138.643 73.7951 138.479 73.8772L123.781 81.1007Z" fill="white"/>
</mask>
<g mask="url(#mask4)">
<path fill-rule="evenodd" clip-rule="evenodd" d="M124.273 73.7949L123.452 74.2053V73.7949H124.273Z" fill="#F51C1F"/>
<path fill-rule="evenodd" clip-rule="evenodd" d="M126.162 73.7949L123.452 75.1082V74.2053L124.273 73.7949H126.162Z" fill="#F41B20"/>
<path fill-rule="evenodd" clip-rule="evenodd" d="M127.968 73.7949L123.452 76.0111V75.1082L126.162 73.7949H127.968Z" fill="#F31A21"/>
<path fill-rule="evenodd" clip-rule="evenodd" d="M129.775 73.7949L123.452 76.9141V76.0112L127.968 73.7949H129.775Z" fill="#F31922"/>
<path fill-rule="evenodd" clip-rule="evenodd" d="M131.581 73.7949L123.452 77.7349V76.9141L129.775 73.7949H131.581Z" fill="#F21823"/>
<path fill-rule="evenodd" clip-rule="evenodd" d="M133.47 73.7949L123.452 78.6378V77.7349L131.581 73.7949H133.47Z" fill="#F11724"/>
<path fill-rule="evenodd" clip-rule="evenodd" d="M135.277 73.7949L123.452 79.5408V78.6378L133.47 73.7949H135.277Z" fill="#F01725"/>
<path fill-rule="evenodd" clip-rule="evenodd" d="M137.083 73.7949L123.452 80.4437V79.5408L135.277 73.7949H137.083Z" fill="#F01626"/>
<path fill-rule="evenodd" clip-rule="evenodd" d="M138.807 73.7949L123.452 81.3466V80.4437L137.083 73.7949H138.807Z" fill="#EF1527"/>
<path fill-rule="evenodd" clip-rule="evenodd" d="M138.807 74.6978L123.452 82.2496V81.3466L138.807 73.7949V74.6978Z" fill="#EE1428"/>
<path fill-rule="evenodd" clip-rule="evenodd" d="M138.807 75.6005L123.452 83.1523V82.2493L138.807 74.6976V75.6005Z" fill="#ED1329"/>
<path fill-rule="evenodd" clip-rule="evenodd" d="M138.807 76.5042L123.452 84.056V83.1531L138.807 75.6013V76.5042Z" fill="#ED122A"/>
<path fill-rule="evenodd" clip-rule="evenodd" d="M138.807 77.4069L124.109 84.6303H123.452V84.0557L138.807 76.504V77.4069Z" fill="#EC112B"/>
<path fill-rule="evenodd" clip-rule="evenodd" d="M138.807 78.3095L125.915 84.6301H124.109L138.807 77.4066V78.3095Z" fill="#EB102C"/>
<path fill-rule="evenodd" clip-rule="evenodd" d="M138.807 79.2127L127.722 84.6303H125.916L138.807 78.3098V79.2127Z" fill="#EB0F2D"/>
<path fill-rule="evenodd" clip-rule="evenodd" d="M138.807 80.1159L129.611 84.6306H127.722L138.807 79.213V80.1159Z" fill="#EA0F2E"/>
<path fill-rule="evenodd" clip-rule="evenodd" d="M138.808 80.936L131.417 84.6298H129.611L138.808 80.1152V80.936Z" fill="#EA0E2F"/>
<path fill-rule="evenodd" clip-rule="evenodd" d="M138.807 81.8398L133.224 84.6306H131.417L138.807 80.9368V81.8398Z" fill="#E90D30"/>
<path fill-rule="evenodd" clip-rule="evenodd" d="M138.807 82.7419L135.03 84.6299H133.223L138.807 81.839V82.7419Z" fill="#E80D30"/>
<path fill-rule="evenodd" clip-rule="evenodd" d="M138.808 83.6451L136.837 84.6301H135.03L138.808 82.7422V83.6451Z" fill="#E80C31"/>
<path fill-rule="evenodd" clip-rule="evenodd" d="M136.837 84.6304L138.807 83.6454V84.6304H136.837Z" fill="#E80C31"/>
</g>
<mask id="mask5" mask-type="alpha" maskUnits="userSpaceOnUse" x="123" y="54" width="16" height="21">
<path fill-rule="evenodd" clip-rule="evenodd" d="M135.524 55.4078C134.785 55.7362 134.21 56.7212 134.21 57.4599V63.7805C134.21 66.1609 132.897 67.8847 131.09 68.7876C129.284 69.6905 127.97 69.198 127.97 66.8176V60.4971C127.97 59.7583 127.395 59.3479 126.656 59.7583L124.849 60.6612C124.11 60.9896 123.536 61.9746 123.536 62.7134V68.8697C123.536 71.4143 124.275 73.056 125.671 73.7948C127.067 74.4514 128.873 74.2873 131.09 73.2202C133.307 72.1531 135.032 70.5935 136.51 68.4593C137.906 66.3251 138.645 64.0267 138.645 61.4821V55.3258C138.645 54.587 138.07 54.2587 137.331 54.587L135.524 55.4078Z" fill="white"/>
</mask>
<g mask="url(#mask5)">
<path fill-rule="evenodd" clip-rule="evenodd" d="M137.494 54.176L123.534 60.989V54.176H137.494Z" fill="#FF2911"/>
<path fill-rule="evenodd" clip-rule="evenodd" d="M138.643 54.5044L123.534 61.892V60.989L137.494 54.176H138.643V54.5044Z" fill="#FF2911"/>
<path fill-rule="evenodd" clip-rule="evenodd" d="M138.643 55.4071L123.534 62.7947V61.8918L138.643 54.5042V55.4071Z" fill="#FE2812"/>
<path fill-rule="evenodd" clip-rule="evenodd" d="M138.643 56.3098L123.534 63.6974V62.7945L138.643 55.4069V56.3098Z" fill="#FD2713"/>
<path fill-rule="evenodd" clip-rule="evenodd" d="M138.643 57.1308L123.534 64.5184V63.6976L138.643 56.31V57.1308Z" fill="#FC2615"/>
<path fill-rule="evenodd" clip-rule="evenodd" d="M138.643 58.0335L123.534 65.4212V64.5182L138.643 57.1306V58.0335Z" fill="#FC2516"/>
<path fill-rule="evenodd" clip-rule="evenodd" d="M138.643 58.9363L123.534 66.3239V65.4209L138.643 58.0333V58.9363Z" fill="#FB2417"/>
<path fill-rule="evenodd" clip-rule="evenodd" d="M138.643 59.8395L123.534 67.2271V66.3241L138.643 58.9365V59.8395Z" fill="#FA2318"/>
<path fill-rule="evenodd" clip-rule="evenodd" d="M138.643 60.7426L123.534 68.1302V67.2273L138.643 59.8397V60.7426Z" fill="#F92219"/>
<path fill-rule="evenodd" clip-rule="evenodd" d="M138.643 61.5632L123.534 69.0329V68.13L138.643 60.7424V61.5632Z" fill="#F8201A"/>
<path fill-rule="evenodd" clip-rule="evenodd" d="M138.643 62.4664L123.534 69.854V69.0332L138.643 61.5635V62.4664Z" fill="#F71F1C"/>
<path fill-rule="evenodd" clip-rule="evenodd" d="M138.643 63.3696L123.534 70.7572V69.8543L138.643 62.4667V63.3696Z" fill="#F71E1D"/>
<path fill-rule="evenodd" clip-rule="evenodd" d="M138.643 64.2723L123.534 71.6599V70.7569L138.643 63.3693V64.2723Z" fill="#F61D1E"/>
<path fill-rule="evenodd" clip-rule="evenodd" d="M138.643 65.1754L123.534 72.5631V71.6601L138.643 64.2725V65.1754Z" fill="#F51C1F"/>
<path fill-rule="evenodd" clip-rule="evenodd" d="M138.643 65.9955L123.534 73.4652V72.5623L138.643 65.1747V65.9955Z" fill="#F41B20"/>
<path fill-rule="evenodd" clip-rule="evenodd" d="M138.643 66.8982L123.534 74.2858V73.465L138.643 65.9953V66.8982Z" fill="#F31A21"/>
<path fill-rule="evenodd" clip-rule="evenodd" d="M138.643 67.8009L125.176 74.3677H123.534V74.2856L138.643 66.898V67.8009Z" fill="#F31922"/>
<path fill-rule="evenodd" clip-rule="evenodd" d="M138.643 68.7046L126.983 74.3685H125.176L138.643 67.8017V68.7046Z" fill="#F21823"/>
<path fill-rule="evenodd" clip-rule="evenodd" d="M138.643 69.6073L128.79 74.3683H126.983L138.643 68.7044V69.6073Z" fill="#F11724"/>
<path fill-rule="evenodd" clip-rule="evenodd" d="M138.643 70.4284L130.596 74.3684H128.79L138.643 69.6075V70.4284Z" fill="#F01725"/>
<path fill-rule="evenodd" clip-rule="evenodd" d="M138.643 71.3311L132.402 74.3682H130.596L138.643 70.4282V71.3311Z" fill="#F01626"/>
<path fill-rule="evenodd" clip-rule="evenodd" d="M138.643 72.2343L134.209 74.3685H132.403L138.643 71.3314V72.2343Z" fill="#EF1527"/>
<path fill-rule="evenodd" clip-rule="evenodd" d="M138.643 73.1375L136.015 74.3688H134.209L138.643 72.2346V73.1375Z" fill="#EE1428"/>
<path fill-rule="evenodd" clip-rule="evenodd" d="M138.643 74.0401L137.822 74.3685H136.015L138.643 73.1372V74.0401Z" fill="#ED1329"/>
<path fill-rule="evenodd" clip-rule="evenodd" d="M137.822 74.3683L138.643 74.0399V74.3683H137.822Z" fill="#ED122A"/>
</g>
<path opacity="0.37" d="M324.713 161.05L360.597 180.997L396.152 160.475L360.269 140.283L324.713 161.05Z" fill="url(#paint75_linear)"/>
<path opacity="0.37" d="M329.394 161.05L360.597 178.37L391.554 160.476L360.268 142.91L329.394 161.05Z" fill="url(#paint76_linear)"/>
<path opacity="0.48" d="M327.341 139.461L360.433 157.848L393.278 138.887L360.104 120.172L327.341 139.461Z" fill="url(#paint77_linear)"/>
<path opacity="0.18" d="M327.341 139.461L360.433 157.848L393.278 138.887L360.104 120.172L327.341 139.461Z" fill="url(#paint78_linear)"/>
<path d="M405.267 36.692L391.554 160.311L360.597 178.206L329.394 160.886L315.845 37.5128L405.267 36.692Z" fill="url(#paint79_linear)"/>
<path d="M376.773 42.7658L378.662 43.0941L374.146 40.4674C373.982 40.3853 373.817 40.3032 373.653 40.1391L373.489 40.057C369.547 38.0049 364.21 38.4974 358.298 42.027C346.145 49.4146 336.373 67.2269 336.538 81.7559C336.62 88.7331 338.919 93.6581 342.532 96.2028H342.614C343.025 96.449 343.435 96.6953 343.846 96.8594L348.198 99.4041L347.951 97.9265C351.154 98.1728 354.849 97.1878 358.791 94.8073C370.943 87.4197 380.715 69.6074 380.551 55.0784C380.633 49.825 379.155 45.5566 376.773 42.7658ZM358.708 82.9872C352.057 87.0093 346.556 83.808 346.556 75.8458C346.473 67.8836 351.811 58.1156 358.462 54.0934C365.113 50.0713 370.615 53.2726 370.615 61.2348C370.779 69.2791 365.442 78.965 358.708 82.9872Z" fill="url(#paint80_linear)" fill-opacity="0.7"/>
<path d="M363.471 45.065C351.318 52.4526 341.547 70.2649 341.711 84.7939C341.875 99.4049 351.811 105.233 363.964 97.9274C376.116 90.5398 385.888 72.7275 385.724 58.1985C385.56 43.5054 375.624 37.6774 363.471 45.065ZM363.799 85.9431C357.148 89.9652 351.647 86.7639 351.647 78.8017C351.564 70.8395 356.902 61.0715 363.553 57.0493C370.204 53.0272 375.706 56.2285 375.706 64.1907C375.788 72.1529 370.451 81.9209 363.799 85.9431Z" fill="url(#paint81_linear)"/>
<path d="M363.471 45.2291C351.318 52.6167 341.547 70.4291 341.711 84.958C341.875 99.487 351.811 105.397 363.964 98.0915C376.116 90.7039 385.888 72.8916 385.724 58.3626C385.56 43.8337 375.624 37.9236 363.471 45.2291ZM363.799 86.1893C357.148 90.2114 351.647 87.0101 351.647 79.0479C351.564 71.0857 356.902 61.3177 363.553 57.2955C370.204 53.2734 375.706 56.4747 375.706 64.4369C375.706 72.3991 370.451 82.1671 363.799 86.1893Z" fill="url(#paint82_linear)"/>
<path d="M346.003 83.0604L346.002 83.0507C345.924 77.0073 347.922 70.2023 351.268 64.1014C354.615 57.9985 359.233 52.7447 364.247 49.7141C369.266 46.6803 373.474 46.5718 376.342 48.2564C379.227 49.9516 381.311 53.785 381.35 59.8498L381.35 59.8595C381.428 65.9029 379.43 72.7079 376.084 78.8088C372.737 84.9117 368.119 90.1655 363.105 93.1961C358.086 96.2299 353.878 96.3384 351.01 94.6537C348.125 92.9585 346.042 89.1252 346.003 83.0604Z" fill="#600000" stroke="#FF3517" stroke-width="3"/>
<mask id="mask6" mask-type="alpha" maskUnits="userSpaceOnUse" x="355" y="76" width="17" height="12">
<path fill-rule="evenodd" clip-rule="evenodd" d="M356.327 83.7271C356.163 83.8092 355.999 84.0554 355.999 84.2196V86.9284C355.999 87.0925 356.163 87.1746 356.327 87.0925L371.026 79.8691C371.19 79.787 371.354 79.5408 371.354 79.3766V76.6678C371.354 76.5036 371.19 76.4216 371.026 76.5036L356.327 83.7271Z" fill="white"/>
</mask>
<g mask="url(#mask6)">
<path fill-rule="evenodd" clip-rule="evenodd" d="M356.902 76.4208L355.999 76.8312V76.4208H356.902Z" fill="#F51C1F"/>
<path fill-rule="evenodd" clip-rule="evenodd" d="M358.709 76.4208L355.999 77.7341V76.8312L356.902 76.4208H358.709Z" fill="#F41B20"/>
<path fill-rule="evenodd" clip-rule="evenodd" d="M360.515 76.4208L355.999 78.6371V77.7341L358.709 76.4208H360.515Z" fill="#F31A21"/>
<path fill-rule="evenodd" clip-rule="evenodd" d="M362.322 76.4208L355.999 79.54V78.6371L360.515 76.4208H362.322Z" fill="#F31922"/>
<path fill-rule="evenodd" clip-rule="evenodd" d="M364.128 76.4208L355.999 80.4429V79.54L362.322 76.4208H364.128Z" fill="#F21823"/>
<path fill-rule="evenodd" clip-rule="evenodd" d="M366.017 76.4208L355.999 81.2638V80.4429L364.128 76.4208H366.017Z" fill="#F11724"/>
<path fill-rule="evenodd" clip-rule="evenodd" d="M367.823 76.4208L355.999 82.1667V81.2637L366.017 76.4208H367.823Z" fill="#F01725"/>
<path fill-rule="evenodd" clip-rule="evenodd" d="M369.63 76.4208L355.999 83.0696V82.1667L367.823 76.4208H369.63Z" fill="#F01626"/>
<path fill-rule="evenodd" clip-rule="evenodd" d="M371.354 76.4208L355.999 83.9725V83.0696L369.63 76.4208H371.354Z" fill="#EF1527"/>
<path fill-rule="evenodd" clip-rule="evenodd" d="M371.354 77.3237L355.999 84.8755V83.9725L371.354 76.4208V77.3237Z" fill="#EE1428"/>
<path fill-rule="evenodd" clip-rule="evenodd" d="M371.354 78.227L355.999 85.7787V84.8758L371.354 77.324V78.227Z" fill="#ED1329"/>
<path fill-rule="evenodd" clip-rule="evenodd" d="M371.354 79.1301L355.999 86.6819V85.7789L371.354 78.2272V79.1301Z" fill="#ED122A"/>
<path fill-rule="evenodd" clip-rule="evenodd" d="M371.354 80.0328L356.656 87.2562H355.999V86.6816L371.354 79.1299V80.0328Z" fill="#EC112B"/>
<path fill-rule="evenodd" clip-rule="evenodd" d="M371.354 80.9355L358.462 87.256H356.656L371.354 80.0325V80.9355Z" fill="#EB102C"/>
<path fill-rule="evenodd" clip-rule="evenodd" d="M371.354 81.8377L360.269 87.2553H358.462L371.354 80.9348V81.8377Z" fill="#EB0F2D"/>
<path fill-rule="evenodd" clip-rule="evenodd" d="M371.354 82.7414L362.157 87.256H360.269L371.354 81.8384V82.7414Z" fill="#EA0F2E"/>
<path fill-rule="evenodd" clip-rule="evenodd" d="M371.354 83.644L363.964 87.2557H362.157L371.354 82.7411V83.644Z" fill="#EA0E2F"/>
<path fill-rule="evenodd" clip-rule="evenodd" d="M371.354 84.4651L365.77 87.256H363.964L371.354 83.6443V84.4651Z" fill="#E90D30"/>
<path fill-rule="evenodd" clip-rule="evenodd" d="M371.354 85.3678L367.577 87.2558H365.77L371.354 84.4649V85.3678Z" fill="#E80D30"/>
<path fill-rule="evenodd" clip-rule="evenodd" d="M371.354 86.2715L369.466 87.2565H367.577L371.354 85.3686V86.2715Z" fill="#E80C31"/>
<path fill-rule="evenodd" clip-rule="evenodd" d="M369.466 87.2563L371.354 86.2713V87.2563H369.466Z" fill="#E80C31"/>
</g>
<mask id="mask7" mask-type="alpha" maskUnits="userSpaceOnUse" x="356" y="57" width="16" height="20">
<path fill-rule="evenodd" clip-rule="evenodd" d="M368.071 58.0337C367.332 58.3621 366.757 59.3471 366.757 60.0859V66.4064C366.757 68.7868 365.443 70.5106 363.636 71.4135C361.83 72.3164 360.516 71.8239 360.516 69.4435V63.123C360.516 62.3842 359.941 61.9738 359.202 62.3842L357.396 63.2871C356.657 63.6155 356.082 64.6005 356.082 65.3393V71.4135C356.082 73.9581 356.821 75.5998 358.217 76.3386C359.613 76.9953 361.419 76.8311 363.636 75.764C365.854 74.6969 367.578 73.1373 369.056 71.0031C370.452 68.8689 371.191 66.5705 371.191 64.0259V57.8696C371.191 57.1308 370.616 56.8025 369.877 57.1308L368.071 58.0337Z" fill="white"/>
</mask>
<g mask="url(#mask7)">
<path fill-rule="evenodd" clip-rule="evenodd" d="M370.122 56.8015L356.081 63.6145V56.8015H370.122Z" fill="#FF2911"/>
<path fill-rule="evenodd" clip-rule="evenodd" d="M371.19 57.1298L356.081 64.5174V63.6145L370.122 56.8015H371.19V57.1298Z" fill="#FF2911"/>
<path fill-rule="evenodd" clip-rule="evenodd" d="M371.19 58.034L356.082 65.4216V64.5187L371.19 57.1311V58.034Z" fill="#FE2812"/>
<path fill-rule="evenodd" clip-rule="evenodd" d="M371.19 58.9372L356.081 66.3248V65.4218L371.19 58.0342V58.9372Z" fill="#FD2713"/>
<path fill-rule="evenodd" clip-rule="evenodd" d="M371.19 59.7578L356.081 67.2275V66.3245L371.19 58.937V59.7578Z" fill="#FC2615"/>
<path fill-rule="evenodd" clip-rule="evenodd" d="M371.19 60.661L356.081 68.0486V67.2277L371.19 59.7581V60.661Z" fill="#FC2516"/>
<path fill-rule="evenodd" clip-rule="evenodd" d="M371.19 61.5637L356.081 68.9513V68.0484L371.19 60.6608V61.5637Z" fill="#FB2417"/>
<path fill-rule="evenodd" clip-rule="evenodd" d="M371.19 62.4663L356.081 69.8539V68.951L371.19 61.5634V62.4663Z" fill="#FA2318"/>
<path fill-rule="evenodd" clip-rule="evenodd" d="M371.19 63.37L356.081 70.7576V69.8547L371.19 62.4671V63.37Z" fill="#F92219"/>
<path fill-rule="evenodd" clip-rule="evenodd" d="M371.19 64.2727L356.081 71.6603V70.7574L371.19 63.3698V64.2727Z" fill="#F8201A"/>
<path fill-rule="evenodd" clip-rule="evenodd" d="M371.19 65.0933L356.081 72.4809V71.6601L371.19 64.2725V65.0933Z" fill="#F71F1C"/>
<path fill-rule="evenodd" clip-rule="evenodd" d="M371.19 65.996L356.081 73.3836V72.4807L371.19 65.0931V65.996Z" fill="#F71E1D"/>
<path fill-rule="evenodd" clip-rule="evenodd" d="M371.19 66.8997L356.081 74.2873V73.3844L371.19 65.9968V66.8997Z" fill="#F61D1E"/>
<path fill-rule="evenodd" clip-rule="evenodd" d="M371.19 67.8019L356.081 75.1895V74.2866L371.19 66.899V67.8019Z" fill="#F51C1F"/>
<path fill-rule="evenodd" clip-rule="evenodd" d="M371.19 68.7046L356.081 76.0922V75.1892L371.19 67.8016V68.7046Z" fill="#F41B20"/>
<path fill-rule="evenodd" clip-rule="evenodd" d="M371.19 69.5257L356.081 76.9133V76.0924L371.19 68.7048V69.5257Z" fill="#F31A21"/>
<path fill-rule="evenodd" clip-rule="evenodd" d="M371.19 70.4284L357.723 77.0772H356.081V76.9131L371.19 69.5255V70.4284Z" fill="#F31922"/>
<path fill-rule="evenodd" clip-rule="evenodd" d="M371.19 71.3316L359.53 77.0775H357.723L371.19 70.4286V71.3316Z" fill="#F21823"/>
<path fill-rule="evenodd" clip-rule="evenodd" d="M371.19 72.2347L361.337 77.0777H359.53L371.19 71.3318V72.2347Z" fill="#F11724"/>
<path fill-rule="evenodd" clip-rule="evenodd" d="M371.19 73.1374L363.143 77.0775H361.336L371.19 72.2345V73.1374Z" fill="#F01725"/>
<path fill-rule="evenodd" clip-rule="evenodd" d="M371.19 73.958L364.949 77.0772H363.143L371.19 73.1371V73.958Z" fill="#F01626"/>
<path fill-rule="evenodd" clip-rule="evenodd" d="M371.19 74.8612L366.756 77.0775H364.949L371.19 73.9583V74.8612Z" fill="#EF1527"/>
<path fill-rule="evenodd" clip-rule="evenodd" d="M371.19 75.7639L368.562 77.0772H366.756L371.19 74.861V75.7639Z" fill="#EE1428"/>
<path fill-rule="evenodd" clip-rule="evenodd" d="M371.19 76.6676L370.369 77.078H368.562L371.19 75.7646V76.6676Z" fill="#ED1329"/>
<path fill-rule="evenodd" clip-rule="evenodd" d="M370.369 77.0778L371.19 76.6674V77.0778H370.369Z" fill="#ED122A"/>
</g>
<path d="M336.231 16.997C336.231 18.4539 335.013 19.4252 333.796 19.4252C332.336 19.4252 331.362 18.2111 331.362 16.997C331.362 15.783 332.579 14.5689 333.796 14.5689C335.013 14.5689 336.231 15.5402 336.231 16.997Z" fill="url(#paint83_linear)"/>
<path opacity="0.3" d="M333.1 49.8321C333.1 51.218 332.057 51.9109 331.014 51.9109C329.623 51.9109 328.927 50.8715 328.927 49.8321C328.927 48.4462 329.971 47.7533 331.014 47.7533C332.057 47.7533 333.1 48.7927 333.1 49.8321Z" fill="#FF9E93"/>
<path opacity="0.2" d="M414.533 106.43C414.533 107.618 413.639 108.509 412.447 108.509C411.254 108.509 410.36 107.618 410.36 106.43C410.36 105.242 411.254 104.351 412.447 104.351C413.639 104.351 414.533 105.242 414.533 106.43Z" fill="#E82818"/>
<path opacity="0.2" d="M183.682 50.5868C183.682 51.2806 183.16 51.8009 182.465 51.8009C181.769 51.8009 181.248 51.2806 181.248 50.5868C181.248 49.8931 181.769 49.3727 182.465 49.3727C183.16 49.3727 183.682 49.8931 183.682 50.5868Z" fill="#E82818"/>
<path opacity="0.2" d="M95.9023 63.6939C96.7185 63.6939 97.3801 63.0245 97.3801 62.1988C97.3801 61.3731 96.7185 60.7038 95.9023 60.7038C95.0862 60.7038 94.4246 61.3731 94.4246 62.1988C94.4246 63.0245 95.0862 63.6939 95.9023 63.6939Z" fill="#FF9E93"/>
<path opacity="0.2" d="M186.782 15.1311C187.599 15.1311 188.26 14.4617 188.26 13.636C188.26 12.8103 187.599 12.141 186.782 12.141C185.966 12.141 185.305 12.8103 185.305 13.636C185.305 14.4617 185.966 15.1311 186.782 15.1311Z" fill="#FF9E93"/>
<path opacity="0.2" d="M171.365 61.266C172.182 61.266 172.843 60.5966 172.843 59.7709C172.843 58.9452 172.182 58.2759 171.365 58.2759C170.549 58.2759 169.888 58.9452 169.888 59.7709C169.888 60.5966 170.549 61.266 171.365 61.266Z" fill="#FF9E93"/>
<path d="M180.516 20.9035C180.646 21.5639 181.293 21.9601 181.94 21.8281C182.587 21.696 182.975 21.0356 182.846 20.3751C182.717 19.7147 182.069 19.3185 181.422 19.4505C180.646 19.5826 180.258 20.243 180.516 20.9035Z" fill="url(#paint84_linear)"/>
<path opacity="0.2" d="M98.5804 27.7699C98.9499 28.5174 99.6888 28.8911 100.428 28.8911C101.167 28.5174 101.536 27.7699 101.536 27.0223C101.167 26.2748 100.428 25.9011 99.6888 25.9011C98.9499 26.2748 98.211 27.0223 98.5804 27.7699Z" fill="#FF9E93"/>
<path d="M167.867 124.667C168.207 126.364 169.91 127.381 171.612 127.042C173.315 126.703 174.336 125.007 173.996 123.31C173.655 121.614 171.953 120.596 170.25 120.936C168.548 121.275 167.526 122.971 167.867 124.667Z" fill="url(#paint85_linear)"/>
<path d="M234.878 238.345C235.275 240.327 237.262 241.516 239.248 241.119C241.234 240.723 242.426 238.742 242.029 236.76C241.631 234.779 239.645 233.59 237.659 233.987C235.673 234.383 234.481 236.364 234.878 238.345Z" fill="url(#paint86_linear)"/>
<path d="M197.552 235.918C197.95 237.899 199.936 239.088 201.922 238.692C203.909 238.296 205.1 236.314 204.703 234.333C204.306 232.352 202.32 231.163 200.333 231.559C198.347 231.956 197.155 233.937 197.552 235.918Z" fill="url(#paint87_linear)"/>
<path d="M300.604 219.731C301.001 221.712 302.987 222.901 304.974 222.504C306.96 222.108 308.152 220.127 307.754 218.146C307.357 216.164 305.371 214.976 303.385 215.372C301.398 215.768 300.206 217.749 300.604 219.731Z" fill="url(#paint88_linear)"/>
<path d="M236.467 237.994C236.688 239.095 237.791 239.755 238.895 239.535C239.998 239.315 240.66 238.214 240.439 237.113C240.219 236.013 239.115 235.352 238.012 235.572C236.908 235.793 236.246 236.893 236.467 237.994Z" fill="#FF2911"/>
<path d="M199.141 235.565C199.362 236.666 200.465 237.326 201.569 237.106C202.672 236.886 203.334 235.785 203.114 234.684C202.893 233.584 201.79 232.923 200.686 233.143C199.583 233.364 198.92 234.464 199.141 235.565Z" fill="#FF2911"/>
<path d="M302.193 219.378C302.413 220.478 303.517 221.139 304.62 220.919C305.724 220.698 306.386 219.598 306.165 218.497C305.945 217.396 304.841 216.736 303.738 216.956C302.634 217.176 301.972 218.277 302.193 219.378Z" fill="#FF2911"/>
<path opacity="0.9" d="M176.748 107.3C177.057 108.531 177.983 109.147 179.219 108.839C180.455 108.531 181.072 107.608 180.764 106.377C180.455 105.146 179.528 104.53 178.292 104.838C177.057 105.146 176.439 106.069 176.748 107.3Z" fill="url(#paint89_linear)"/>
<path opacity="0.9" d="M410.07 59.4899C410.07 58.2758 411.085 57.4664 412.099 57.4664C413.316 57.4664 414.127 58.4781 414.127 59.4899C414.127 60.5016 413.113 61.5133 412.099 61.5133C411.085 61.5133 410.07 60.5016 410.07 59.4899Z" fill="url(#paint90_linear)"/>
<path d="M91.9907 45.7308C91.9907 44.9214 91.3821 44.5167 90.7735 44.5167C89.9621 44.5167 89.5564 45.1237 89.5564 45.7308C89.5564 46.5401 90.165 46.9448 90.7735 46.9448C91.3821 46.9448 91.9907 46.3378 91.9907 45.7308Z" fill="url(#paint91_linear)"/>
<path opacity="0.3" d="M342.838 6.12613C342.838 7.51201 341.794 8.20496 340.751 8.20496C339.36 8.20496 338.665 7.16554 338.665 6.12613C338.665 4.74024 339.708 4.0473 340.751 4.0473C341.794 4.0473 342.838 5.08672 342.838 6.12613Z" fill="#FF9E93"/>
<path opacity="0.2" d="M405.202 92.6748C405.202 93.3686 404.68 93.8889 403.984 93.8889C403.289 93.8889 402.767 93.3686 402.767 92.6748C402.767 91.9811 403.289 91.4608 403.984 91.4608C404.68 91.6342 405.202 92.1545 405.202 92.6748Z" fill="#FF9E93"/>
<path opacity="0.2" d="M197.476 73.249C197.476 73.9427 196.955 74.4631 196.259 74.4631C195.564 74.4631 195.042 73.9427 195.042 73.249C195.042 72.5552 195.564 72.0349 196.259 72.0349C196.955 72.2084 197.476 72.7287 197.476 73.249Z" fill="#FF9E93"/>
<path opacity="0.2" d="M175.423 27.2717C176.239 27.2717 176.901 26.6023 176.901 25.7767C176.901 24.951 176.239 24.2816 175.423 24.2816C174.607 24.2816 173.945 24.951 173.945 25.7767C173.945 26.6023 174.607 27.2717 175.423 27.2717Z" fill="#E82818"/>
<path opacity="0.2" d="M215.994 20.7974C216.81 20.7974 217.472 20.128 217.472 19.3024C217.472 18.4767 216.81 17.8073 215.994 17.8073C215.178 17.8073 214.516 18.4767 214.516 19.3024C214.516 20.128 215.178 20.7974 215.994 20.7974Z" fill="#E82818"/>
<path d="M178.027 38.7104C178.16 39.3708 178.822 39.767 179.484 39.635C180.146 39.5029 180.543 38.8424 180.411 38.182C180.278 37.5216 179.616 37.1253 178.954 37.2574C178.292 37.3895 177.895 38.0499 178.027 38.7104Z" fill="url(#paint92_linear)"/>
<path opacity="0.9" d="M172.368 51.1264C172.548 50.4075 173.089 50.048 173.809 50.2278C174.53 50.4075 174.891 50.9467 174.71 51.6656C174.53 52.3846 173.99 52.744 173.269 52.5643C172.548 52.3846 172.188 51.6656 172.368 51.1264Z" fill="url(#paint93_linear)"/>
<path d="M398.71 128.174C398.71 130.292 400.481 131.705 402.253 131.705C404.379 131.705 405.796 129.939 405.796 128.174C405.796 126.409 404.025 124.644 402.253 124.644C400.481 124.644 398.71 126.056 398.71 128.174Z" fill="url(#paint94_linear)"/>
<path opacity="0.3" d="M94.5404 137.234C94.5404 138.579 95.5528 139.251 96.5651 139.251C97.9149 139.251 98.5898 138.243 98.5898 137.234C98.5898 135.889 97.5775 135.217 96.5651 135.217C95.5528 135.217 94.5404 136.226 94.5404 137.234Z" fill="#FF9E93"/>
<path opacity="0.2" d="M394.653 147.706C394.653 148.858 395.52 149.723 396.677 149.723C397.834 149.723 398.702 148.858 398.702 147.706C398.702 146.553 397.834 145.688 396.677 145.688C395.52 145.688 394.653 146.553 394.653 147.706Z" fill="#E82818"/>
<path opacity="0.2" d="M397.898 44.1048C397.898 45.2575 398.766 46.122 399.923 46.122C401.08 46.122 401.948 45.2575 401.948 44.1048C401.948 42.9521 401.08 42.0876 399.923 42.0876C398.766 42.0876 397.898 42.9521 397.898 44.1048Z" fill="#E82818"/>
<path opacity="0.2" d="M103.767 125.15C102.975 125.15 102.333 124.5 102.333 123.699C102.333 122.898 102.975 122.248 103.767 122.248C104.559 122.248 105.201 122.898 105.201 123.699C105.201 124.5 104.559 125.15 103.767 125.15Z" fill="#FF9E93"/>
<path opacity="0.2" d="M96.6805 163.476C95.8886 163.476 95.2466 162.827 95.2466 162.025C95.2466 161.224 95.8886 160.575 96.6805 160.575C97.4725 160.575 98.1145 161.224 98.1145 162.025C98.1145 162.827 97.4725 163.476 96.6805 163.476Z" fill="#FF9E93"/>
<path opacity="0.2" d="M118.266 101.367C117.907 102.092 117.19 102.455 116.474 102.455C115.757 102.092 115.398 101.367 115.398 100.642C115.757 99.9163 116.474 99.5536 117.19 99.5536C117.907 99.9163 118.624 100.642 118.266 101.367Z" fill="#FF9E93"/>
<path opacity="0.9" d="M335.419 36.4221C335.419 37.3934 336.23 38.0409 337.041 38.0409C338.015 38.0409 338.664 37.2315 338.664 36.4221C338.664 35.6127 337.853 34.8033 337.041 34.8033C336.23 34.8033 335.419 35.6127 335.419 36.4221Z" fill="url(#paint95_linear)"/>
<path opacity="0.9" d="M406.824 141.237C406.824 142.451 407.838 143.261 408.853 143.261C410.07 143.261 410.881 142.249 410.881 141.237C410.881 140.225 409.867 139.214 408.853 139.214C407.838 139.214 406.824 140.225 406.824 141.237Z" fill="url(#paint96_linear)"/>
<path opacity="0.3" d="M402.84 116.14C402.84 117.485 403.853 118.157 404.865 118.157C406.215 118.157 406.89 117.149 406.89 116.14C406.89 114.795 405.877 114.123 404.865 114.123C403.853 114.123 402.84 115.132 402.84 116.14Z" fill="#E82818"/>
<path opacity="0.3" d="M103.177 149.481C103.177 150.825 104.189 151.498 105.201 151.498C106.551 151.498 107.226 150.489 107.226 149.481C107.226 148.136 106.214 147.463 105.201 147.463C104.189 147.463 103.177 148.472 103.177 149.481Z" fill="#FF9E93"/>
<path opacity="0.2" d="M98.4816 108.855C98.4816 110.008 99.3493 110.872 100.506 110.872C101.663 110.872 102.531 110.008 102.531 108.855C102.531 107.702 101.663 106.838 100.506 106.838C99.3493 107.126 98.4816 107.991 98.4816 108.855Z" fill="#FF9E93"/>
<path opacity="0.2" d="M389.764 127.614C388.972 127.614 388.33 126.964 388.33 126.163C388.33 125.362 388.972 124.712 389.764 124.712C390.556 124.712 391.198 125.362 391.198 126.163C391.198 126.964 390.556 127.614 389.764 127.614Z" fill="#E82818"/>
<path opacity="0.2" d="M414.919 87.0771C414.127 87.0771 413.485 86.4276 413.485 85.6263C413.485 84.8251 414.127 84.1756 414.919 84.1756C415.711 84.1756 416.353 84.8251 416.353 85.6263C416.353 86.4276 415.711 87.0771 414.919 87.0771Z" fill="#E82818"/>
<path d="M107.365 42.0528C107.144 40.9521 106.041 40.2917 104.938 40.5118C103.834 40.732 103.172 41.8327 103.393 42.9334C103.613 44.0341 104.717 44.6945 105.82 44.4744C106.924 44.2542 107.586 43.1535 107.365 42.0528Z" fill="url(#paint97_linear)"/>
</g>
<defs>
<radialGradient id="paint0_radial" cx="0" cy="0" r="1" gradientUnits="userSpaceOnUse" gradientTransform="translate(246.018 173.53) rotate(90) scale(118.801 194.887)">
<stop stop-color="#FF0000"/>
<stop offset="0.916667" stop-color="#FF0000" stop-opacity="0"/>
</radialGradient>
<linearGradient id="paint1_linear" x1="179.315" y1="182.982" x2="349.025" y2="181.484" gradientUnits="userSpaceOnUse">
<stop stop-color="#32324C"/>
<stop offset="0.6231" stop-color="#19192C"/>
<stop offset="0.9861" stop-color="#0F0F1E"/>
</linearGradient>
<linearGradient id="paint2_linear" x1="9.747" y1="201.685" x2="62.5023" y2="201.219" gradientUnits="userSpaceOnUse">
<stop stop-color="#F9993A"/>
<stop offset="0.1488" stop-color="#F7983E" stop-opacity="0.9403"/>
<stop offset="0.3015" stop-color="#F3954A" stop-opacity="0.8789"/>
<stop offset="0.456" stop-color="#EB8F5F" stop-opacity="0.8169"/>
<stop offset="0.6119" stop-color="#E0887C" stop-opacity="0.7543"/>
<stop offset="0.7688" stop-color="#D27EA1" stop-opacity="0.6913"/>
<stop offset="0.9244" stop-color="#C172CE" stop-opacity="0.6288"/>
<stop offset="0.9962" stop-color="#B86CE5" stop-opacity="0.6"/>
</linearGradient>
<linearGradient id="paint3_linear" x1="13.152" y1="201.654" x2="59.0978" y2="201.249" gradientUnits="userSpaceOnUse">
<stop stop-color="#F9993A"/>
<stop offset="0.1488" stop-color="#F7983E" stop-opacity="0.9403"/>
<stop offset="0.3015" stop-color="#F3954A" stop-opacity="0.8789"/>
<stop offset="0.456" stop-color="#EB8F5F" stop-opacity="0.8169"/>
<stop offset="0.6119" stop-color="#E0887C" stop-opacity="0.7543"/>
<stop offset="0.7688" stop-color="#D27EA1" stop-opacity="0.6913"/>
<stop offset="0.9244" stop-color="#C172CE" stop-opacity="0.6288"/>
<stop offset="0.9962" stop-color="#B86CE5" stop-opacity="0.6"/>
</linearGradient>
<linearGradient id="paint4_linear" x1="38.8067" y1="209.16" x2="36.3393" y2="114.945" gradientUnits="userSpaceOnUse">
<stop stop-color="#FF2911" stop-opacity="0.64"/>
<stop offset="0.8351" stop-color="#FF2911" stop-opacity="0"/>
</linearGradient>
<linearGradient id="paint5_linear" x1="15.389" y1="160.902" x2="16.5734" y2="169.143" gradientUnits="userSpaceOnUse">
<stop stop-color="#FF2911" stop-opacity="0.64"/>
<stop offset="0.8351" stop-color="#FF2911" stop-opacity="0"/>
</linearGradient>
<linearGradient id="paint6_linear" x1="199.745" y1="158.728" x2="331.839" y2="160.982" gradientUnits="userSpaceOnUse">
<stop stop-color="#F9993A"/>
<stop offset="0.1488" stop-color="#F7983E" stop-opacity="0.9403"/>
<stop offset="0.3015" stop-color="#F3954A" stop-opacity="0.8789"/>
<stop offset="0.456" stop-color="#EB8F5F" stop-opacity="0.8169"/>
<stop offset="0.6119" stop-color="#E0887C" stop-opacity="0.7543"/>
<stop offset="0.7688" stop-color="#D27EA1" stop-opacity="0.6913"/>
<stop offset="0.9244" stop-color="#C172CE" stop-opacity="0.6288"/>
<stop offset="0.9962" stop-color="#B86CE5" stop-opacity="0.6"/>
</linearGradient>
<linearGradient id="paint7_linear" x1="198.074" y1="159.169" x2="288.495" y2="159.169" gradientUnits="userSpaceOnUse">
<stop stop-color="#F9993A"/>
<stop offset="0.1488" stop-color="#F7983E" stop-opacity="0.9403"/>
<stop offset="0.3015" stop-color="#F3954A" stop-opacity="0.8789"/>
<stop offset="0.456" stop-color="#EB8F5F" stop-opacity="0.8169"/>
<stop offset="0.6119" stop-color="#E0887C" stop-opacity="0.7543"/>
<stop offset="0.7688" stop-color="#D27EA1" stop-opacity="0.6913"/>
<stop offset="0.9244" stop-color="#C172CE" stop-opacity="0.6288"/>
<stop offset="0.9962" stop-color="#B86CE5" stop-opacity="0.6"/>
</linearGradient>
<linearGradient id="paint8_linear" x1="202.661" y1="150.312" x2="283.739" y2="149.596" gradientUnits="userSpaceOnUse">
<stop stop-color="#FF2911" stop-opacity="0.64"/>
<stop offset="0.8351" stop-color="#FF2911" stop-opacity="0"/>
</linearGradient>
<linearGradient id="paint9_linear" x1="193.844" y1="123.689" x2="284.973" y2="122.884" gradientUnits="userSpaceOnUse">
<stop stop-color="#F9993A"/>
<stop offset="0.1165" stop-color="#F69741"/>
<stop offset="0.282" stop-color="#EF9253"/>
<stop offset="0.4767" stop-color="#E48A72"/>
<stop offset="0.6937" stop-color="#D47F9C"/>
<stop offset="0.9264" stop-color="#BF71D2"/>
<stop offset="1" stop-color="#B86CE5"/>
</linearGradient>
<linearGradient id="paint10_linear" x1="206.92" y1="49.492" x2="275.751" y2="48.8987" gradientUnits="userSpaceOnUse">
<stop stop-color="#FF2911"/>
<stop offset="0.3993" stop-color="#F51C1F"/>
<stop offset="1" stop-color="#E80C31"/>
</linearGradient>
<linearGradient id="paint11_linear" x1="214.803" y1="52.9311" x2="283.634" y2="52.3234" gradientUnits="userSpaceOnUse">
<stop stop-color="#FF2911"/>
<stop offset="0.3993" stop-color="#F51C1F"/>
<stop offset="1" stop-color="#E80C31"/>
</linearGradient>
<linearGradient id="paint12_linear" x1="259.884" y1="110.445" x2="261.869" y2="110.445" gradientUnits="userSpaceOnUse">
<stop stop-color="#FF2911"/>
<stop offset="0.3846" stop-color="#FC5923"/>
<stop offset="0.794" stop-color="#FA8734"/>
<stop offset="1" stop-color="#F9993A"/>
</linearGradient>
<linearGradient id="paint13_linear" x1="213.752" y1="122.109" x2="221.778" y2="108.619" gradientUnits="userSpaceOnUse">
<stop stop-color="#FF2911"/>
<stop offset="0.3846" stop-color="#FC5923"/>
<stop offset="0.794" stop-color="#FA8734"/>
<stop offset="1" stop-color="#F9993A"/>
</linearGradient>
<linearGradient id="paint14_linear" x1="211.412" y1="89.0396" x2="215.519" y2="89.0396" gradientUnits="userSpaceOnUse">
<stop stop-color="#FF2911"/>
<stop offset="0.3846" stop-color="#FC5923"/>
<stop offset="0.794" stop-color="#FA8734"/>
<stop offset="1" stop-color="#F9993A"/>
</linearGradient>
<linearGradient id="paint15_linear" x1="218.947" y1="107.962" x2="225.485" y2="96.9713" gradientUnits="userSpaceOnUse">
<stop stop-color="#F9993A"/>
<stop offset="0.9861" stop-color="#F9993A" stop-opacity="0"/>
</linearGradient>
<linearGradient id="paint16_linear" x1="224.839" y1="128.42" x2="228.367" y2="122.49" gradientUnits="userSpaceOnUse">
<stop stop-color="#FF2911"/>
<stop offset="0.3846" stop-color="#FC5923"/>
<stop offset="0.794" stop-color="#FA8734"/>
<stop offset="1" stop-color="#F9993A"/>
</linearGradient>
<linearGradient id="paint17_linear" x1="224.769" y1="120.503" x2="228.297" y2="114.573" gradientUnits="userSpaceOnUse">
<stop stop-color="#FF2911"/>
<stop offset="0.3846" stop-color="#FC5923"/>
<stop offset="0.794" stop-color="#FA8734"/>
<stop offset="1" stop-color="#F9993A"/>
</linearGradient>
<linearGradient id="paint18_linear" x1="224.699" y1="112.587" x2="228.227" y2="106.657" gradientUnits="userSpaceOnUse">
<stop stop-color="#FF2911"/>
<stop offset="0.3846" stop-color="#FC5923"/>
<stop offset="0.794" stop-color="#FA8734"/>
<stop offset="1" stop-color="#F9993A"/>
</linearGradient>
<linearGradient id="paint19_linear" x1="211.378" y1="134.554" x2="216.185" y2="126.472" gradientUnits="userSpaceOnUse">
<stop stop-color="#FF2911"/>
<stop offset="0.3846" stop-color="#FC5923"/>
<stop offset="0.794" stop-color="#FA8734"/>
<stop offset="1" stop-color="#F9993A"/>
</linearGradient>
<linearGradient id="paint20_linear" x1="219" y1="114.04" x2="220.629" y2="111.302" gradientUnits="userSpaceOnUse">
<stop stop-color="#F9993A"/>
<stop offset="0.9861" stop-color="#F9993A" stop-opacity="0"/>
</linearGradient>
<linearGradient id="paint21_linear" x1="219.032" y1="117.683" x2="220.661" y2="114.945" gradientUnits="userSpaceOnUse">
<stop stop-color="#F9993A"/>
<stop offset="0.9861" stop-color="#F9993A" stop-opacity="0"/>
</linearGradient>
<linearGradient id="paint22_linear" x1="261.356" y1="100.938" x2="286.502" y2="100.938" gradientUnits="userSpaceOnUse">
<stop stop-color="#32324C"/>
<stop offset="0.4857" stop-color="#24243B"/>
<stop offset="0.9861" stop-color="#19192D"/>
</linearGradient>
<linearGradient id="paint23_linear" x1="258.532" y1="102.237" x2="283.677" y2="102.237" gradientUnits="userSpaceOnUse">
<stop stop-color="#FF2911"/>
<stop offset="0.3846" stop-color="#FC5923"/>
<stop offset="0.794" stop-color="#FA8734"/>
<stop offset="1" stop-color="#F9993A"/>
</linearGradient>
<radialGradient id="paint24_radial" cx="0" cy="0" r="1" gradientUnits="userSpaceOnUse" gradientTransform="translate(280.702 92.3581) rotate(171.029) scale(21.2393 29.0024)">
<stop stop-color="#3500BE"/>
<stop offset="0.2718" stop-color="#3200B8"/>
<stop offset="0.6363" stop-color="#2A00A7"/>
<stop offset="1" stop-color="#1F008F"/>
</radialGradient>
<linearGradient id="paint25_linear" x1="260.144" y1="102.236" x2="282.065" y2="102.236" gradientUnits="userSpaceOnUse">
<stop stop-color="#32324C"/>
<stop offset="0.4857" stop-color="#24243B"/>
<stop offset="0.9861" stop-color="#19192D"/>
</linearGradient>
<linearGradient id="paint26_linear" x1="273.028" y1="117.249" x2="264.968" y2="104.229" gradientUnits="userSpaceOnUse">
<stop stop-color="#F9993A"/>
<stop offset="0.9861" stop-color="#F9993A" stop-opacity="0"/>
</linearGradient>
<linearGradient id="paint27_linear" x1="284.454" y1="102.529" x2="282.778" y2="99.8209" gradientUnits="userSpaceOnUse">
<stop stop-color="#F9993A"/>
<stop offset="0.9861" stop-color="#F9993A" stop-opacity="0"/>
</linearGradient>
<linearGradient id="paint28_linear" x1="278.797" y1="156.696" x2="271.922" y2="145.59" gradientUnits="userSpaceOnUse">
<stop stop-color="#FF2911"/>
<stop offset="0.3846" stop-color="#FC5923"/>
<stop offset="0.794" stop-color="#FA8734"/>
<stop offset="1" stop-color="#F9993A"/>
</linearGradient>
<linearGradient id="paint29_linear" x1="278.681" y1="143.599" x2="246.35" y2="91.3725" gradientUnits="userSpaceOnUse">
<stop stop-color="#FF2911"/>
<stop offset="0.3846" stop-color="#FC5923"/>
<stop offset="0.794" stop-color="#FA8734"/>
<stop offset="1" stop-color="#F9993A"/>
</linearGradient>
<linearGradient id="paint30_linear" x1="264.858" y1="168.368" x2="258.151" y2="157.535" gradientUnits="userSpaceOnUse">
<stop stop-color="#FFB9FF"/>
<stop offset="0.1034" stop-color="#E4A5F2" stop-opacity="0.8951"/>
<stop offset="0.4242" stop-color="#9569CC" stop-opacity="0.5699"/>
<stop offset="0.6883" stop-color="#5A3DB0" stop-opacity="0.302"/>
<stop offset="0.8826" stop-color="#37229F" stop-opacity="0.105"/>
<stop offset="0.9861" stop-color="#291898" stop-opacity="0"/>
</linearGradient>
<linearGradient id="paint31_linear" x1="274.267" y1="145.001" x2="268.666" y2="135.954" gradientUnits="userSpaceOnUse">
<stop stop-color="#F9993A"/>
<stop offset="0.9861" stop-color="#F9993A" stop-opacity="0"/>
</linearGradient>
<linearGradient id="paint32_linear" x1="269.665" y1="162.107" x2="266.643" y2="157.226" gradientUnits="userSpaceOnUse">
<stop stop-color="#9000D9"/>
<stop offset="0.00843201" stop-color="#9001D9" stop-opacity="0.9914"/>
<stop offset="0.4662" stop-color="#A63BE0" stop-opacity="0.5272"/>
<stop offset="0.8053" stop-color="#B35EE3" stop-opacity="0.1834"/>
<stop offset="0.9861" stop-color="#B86CE5" stop-opacity="0"/>
</linearGradient>
<linearGradient id="paint33_linear" x1="269.607" y1="155.52" x2="266.585" y2="150.639" gradientUnits="userSpaceOnUse">
<stop stop-color="#9000D9"/>
<stop offset="0.00843201" stop-color="#9001D9" stop-opacity="0.9914"/>
<stop offset="0.4662" stop-color="#A63BE0" stop-opacity="0.5272"/>
<stop offset="0.8053" stop-color="#B35EE3" stop-opacity="0.1834"/>
<stop offset="0.9861" stop-color="#B86CE5" stop-opacity="0"/>
</linearGradient>
<linearGradient id="paint34_linear" x1="269.549" y1="148.933" x2="266.527" y2="144.052" gradientUnits="userSpaceOnUse">
<stop stop-color="#9000D9"/>
<stop offset="0.00843201" stop-color="#9001D9" stop-opacity="0.9914"/>
<stop offset="0.4662" stop-color="#A63BE0" stop-opacity="0.5272"/>
<stop offset="0.8053" stop-color="#B35EE3" stop-opacity="0.1834"/>
<stop offset="0.9861" stop-color="#B86CE5" stop-opacity="0"/>
</linearGradient>
<linearGradient id="paint35_linear" x1="269.497" y1="143.088" x2="246.966" y2="106.692" gradientUnits="userSpaceOnUse">
<stop stop-color="#FF2911"/>
<stop offset="0.3846" stop-color="#FC5923"/>
<stop offset="0.794" stop-color="#FA8734"/>
<stop offset="1" stop-color="#F9993A"/>
</linearGradient>
<linearGradient id="paint36_linear" x1="274.312" y1="150.058" x2="272.917" y2="147.805" gradientUnits="userSpaceOnUse">
<stop stop-color="#F9993A"/>
<stop offset="0.9861" stop-color="#F9993A" stop-opacity="0"/>
</linearGradient>
<linearGradient id="paint37_linear" x1="274.339" y1="153.089" x2="272.943" y2="150.835" gradientUnits="userSpaceOnUse">
<stop stop-color="#F9993A"/>
<stop offset="0.9861" stop-color="#F9993A" stop-opacity="0"/>
</linearGradient>
<linearGradient id="paint38_linear" x1="274.365" y1="156.121" x2="272.97" y2="153.867" gradientUnits="userSpaceOnUse">
<stop stop-color="#F9993A"/>
<stop offset="0.9861" stop-color="#F9993A" stop-opacity="0"/>
</linearGradient>
<linearGradient id="paint39_linear" x1="269.873" y1="102.531" x2="264.271" y2="93.4829" gradientUnits="userSpaceOnUse">
<stop stop-color="#9000D9"/>
<stop offset="0.00843201" stop-color="#9001D9" stop-opacity="0.9914"/>
<stop offset="0.4662" stop-color="#A63BE0" stop-opacity="0.5272"/>
<stop offset="0.8053" stop-color="#B35EE3" stop-opacity="0.1834"/>
<stop offset="0.9861" stop-color="#B86CE5" stop-opacity="0"/>
</linearGradient>
<linearGradient id="paint40_linear" x1="269.917" y1="107.588" x2="268.522" y2="105.335" gradientUnits="userSpaceOnUse">
<stop stop-color="#F9993A"/>
<stop offset="0.9861" stop-color="#F9993A" stop-opacity="0"/>
</linearGradient>
<linearGradient id="paint41_linear" x1="269.944" y1="110.619" x2="268.549" y2="108.365" gradientUnits="userSpaceOnUse">
<stop stop-color="#F9993A"/>
<stop offset="0.9861" stop-color="#F9993A" stop-opacity="0"/>
</linearGradient>
<linearGradient id="paint42_linear" x1="269.971" y1="113.65" x2="268.575" y2="111.396" gradientUnits="userSpaceOnUse">
<stop stop-color="#F9993A"/>
<stop offset="0.9861" stop-color="#F9993A" stop-opacity="0"/>
</linearGradient>
<linearGradient id="paint43_linear" x1="258.835" y1="88.6159" x2="253.234" y2="79.5678" gradientUnits="userSpaceOnUse">
<stop stop-color="#FF2911"/>
<stop offset="0.3846" stop-color="#FC5923"/>
<stop offset="0.794" stop-color="#FA8734"/>
<stop offset="1" stop-color="#F9993A"/>
</linearGradient>
<linearGradient id="paint44_linear" x1="258.879" y1="93.6725" x2="257.484" y2="91.4187" gradientUnits="userSpaceOnUse">
<stop stop-color="#F9993A"/>
<stop offset="0.9861" stop-color="#F9993A" stop-opacity="0"/>
</linearGradient>
<linearGradient id="paint45_linear" x1="258.906" y1="96.7036" x2="257.511" y2="94.4498" gradientUnits="userSpaceOnUse">
<stop stop-color="#FF2911"/>
<stop offset="0.3846" stop-color="#FC5923"/>
<stop offset="0.794" stop-color="#FA8734"/>
<stop offset="1" stop-color="#F9993A"/>
</linearGradient>
<linearGradient id="paint46_linear" x1="258.933" y1="99.7338" x2="257.537" y2="97.48" gradientUnits="userSpaceOnUse">
<stop stop-color="#FF2911"/>
<stop offset="0.3846" stop-color="#FC5923"/>
<stop offset="0.794" stop-color="#FA8734"/>
<stop offset="1" stop-color="#F9993A"/>
</linearGradient>
<linearGradient id="paint47_linear" x1="256.413" y1="112.837" x2="252.792" y2="106.988" gradientUnits="userSpaceOnUse">
<stop stop-color="#FF2911"/>
<stop offset="0.3846" stop-color="#FC5923"/>
<stop offset="0.794" stop-color="#FA8734"/>
<stop offset="1" stop-color="#F9993A"/>
</linearGradient>
<linearGradient id="paint48_linear" x1="256.442" y1="116.106" x2="255.54" y2="114.649" gradientUnits="userSpaceOnUse">
<stop stop-color="#F9993A"/>
<stop offset="0.9861" stop-color="#F9993A" stop-opacity="0"/>
</linearGradient>
<linearGradient id="paint49_linear" x1="256.459" y1="118.065" x2="255.557" y2="116.608" gradientUnits="userSpaceOnUse">
<stop stop-color="#F9993A"/>
<stop offset="0.9861" stop-color="#F9993A" stop-opacity="0"/>
</linearGradient>
<linearGradient id="paint50_linear" x1="256.476" y1="120.024" x2="255.575" y2="118.567" gradientUnits="userSpaceOnUse">
<stop stop-color="#FF2911"/>
<stop offset="0.3846" stop-color="#FC5923"/>
<stop offset="0.794" stop-color="#FA8734"/>
<stop offset="1" stop-color="#F9993A"/>
</linearGradient>
<linearGradient id="paint51_linear" x1="256.546" y1="127.867" x2="252.925" y2="122.019" gradientUnits="userSpaceOnUse">
<stop stop-color="#FF2911"/>
<stop offset="0.3846" stop-color="#FC5923"/>
<stop offset="0.794" stop-color="#FA8734"/>
<stop offset="1" stop-color="#F9993A"/>
</linearGradient>
<linearGradient id="paint52_linear" x1="256.575" y1="131.137" x2="255.673" y2="129.68" gradientUnits="userSpaceOnUse">
<stop stop-color="#F9993A"/>
<stop offset="0.9861" stop-color="#F9993A" stop-opacity="0"/>
</linearGradient>
<linearGradient id="paint53_linear" x1="256.592" y1="133.096" x2="255.69" y2="131.639" gradientUnits="userSpaceOnUse">
<stop stop-color="#FF2911"/>
<stop offset="0.3846" stop-color="#FC5923"/>
<stop offset="0.794" stop-color="#FA8734"/>
<stop offset="1" stop-color="#F9993A"/>
</linearGradient>
<linearGradient id="paint54_linear" x1="256.61" y1="135.056" x2="255.708" y2="133.599" gradientUnits="userSpaceOnUse">
<stop stop-color="#FF2911"/>
<stop offset="0.3846" stop-color="#FC5923"/>
<stop offset="0.794" stop-color="#FA8734"/>
<stop offset="1" stop-color="#F9993A"/>
</linearGradient>
<linearGradient id="paint55_linear" x1="256.679" y1="142.9" x2="253.058" y2="137.051" gradientUnits="userSpaceOnUse">
<stop stop-color="#FF2911"/>
<stop offset="0.3846" stop-color="#FC5923"/>
<stop offset="0.794" stop-color="#FA8734"/>
<stop offset="1" stop-color="#F9993A"/>
</linearGradient>
<linearGradient id="paint56_linear" x1="256.708" y1="146.169" x2="255.806" y2="144.712" gradientUnits="userSpaceOnUse">
<stop stop-color="#F9993A"/>
<stop offset="0.9861" stop-color="#F9993A" stop-opacity="0"/>
</linearGradient>
<linearGradient id="paint57_linear" x1="256.725" y1="148.127" x2="255.823" y2="146.67" gradientUnits="userSpaceOnUse">
<stop stop-color="#FF2911"/>
<stop offset="0.3846" stop-color="#FC5923"/>
<stop offset="0.794" stop-color="#FA8734"/>
<stop offset="1" stop-color="#F9993A"/>
</linearGradient>
<linearGradient id="paint58_linear" x1="256.742" y1="150.087" x2="255.84" y2="148.63" gradientUnits="userSpaceOnUse">
<stop stop-color="#FF2911"/>
<stop offset="0.3846" stop-color="#FC5923"/>
<stop offset="0.794" stop-color="#FA8734"/>
<stop offset="1" stop-color="#F9993A"/>
</linearGradient>
<linearGradient id="paint59_linear" x1="241.61" y1="180.65" x2="240.313" y2="33.6076" gradientUnits="userSpaceOnUse">
<stop stop-color="#FF2911" stop-opacity="0.64"/>
<stop offset="0.8351" stop-color="#FF2911" stop-opacity="0"/>
</linearGradient>
<linearGradient id="paint60_linear" x1="216.827" y1="116.569" x2="217.447" y2="116.564" gradientUnits="userSpaceOnUse">
<stop stop-color="#F9993A"/>
<stop offset="0.9861" stop-color="#F9993A" stop-opacity="0"/>
</linearGradient>
<linearGradient id="paint61_linear" x1="264.079" y1="118.289" x2="264.699" y2="118.284" gradientUnits="userSpaceOnUse">
<stop stop-color="#9000D9"/>
<stop offset="0.00843201" stop-color="#9001D9" stop-opacity="0.9914"/>
<stop offset="0.4662" stop-color="#A63BE0" stop-opacity="0.5272"/>
<stop offset="0.8053" stop-color="#B35EE3" stop-opacity="0.1834"/>
<stop offset="0.9861" stop-color="#B86CE5" stop-opacity="0"/>
</linearGradient>
<linearGradient id="paint62_linear" x1="272.9" y1="88.8505" x2="273.521" y2="88.845" gradientUnits="userSpaceOnUse">
<stop stop-color="#FF2911"/>
<stop offset="0.3846" stop-color="#FC5923"/>
<stop offset="0.794" stop-color="#FA8734"/>
<stop offset="1" stop-color="#F9993A"/>
</linearGradient>
<linearGradient id="paint63_linear" x1="92.1933" y1="158.309" x2="163.58" y2="157.679" gradientUnits="userSpaceOnUse">
<stop stop-color="#F9993A"/>
<stop offset="0.1488" stop-color="#F7983E" stop-opacity="0.9403"/>
<stop offset="0.3015" stop-color="#F3954A" stop-opacity="0.8789"/>
<stop offset="0.456" stop-color="#EB8F5F" stop-opacity="0.8169"/>
<stop offset="0.6119" stop-color="#E0887C" stop-opacity="0.7543"/>
<stop offset="0.7688" stop-color="#D27EA1" stop-opacity="0.6913"/>
<stop offset="0.9244" stop-color="#C172CE" stop-opacity="0.6288"/>
<stop offset="0.9962" stop-color="#B86CE5" stop-opacity="0.6"/>
</linearGradient>
<linearGradient id="paint64_linear" x1="96.8" y1="158.268" x2="158.972" y2="157.719" gradientUnits="userSpaceOnUse">
<stop stop-color="#F9993A"/>
<stop offset="0.1488" stop-color="#F7983E" stop-opacity="0.9403"/>
<stop offset="0.3015" stop-color="#F3954A" stop-opacity="0.8789"/>
<stop offset="0.456" stop-color="#EB8F5F" stop-opacity="0.8169"/>
<stop offset="0.6119" stop-color="#E0887C" stop-opacity="0.7543"/>
<stop offset="0.7688" stop-color="#D27EA1" stop-opacity="0.6913"/>
<stop offset="0.9244" stop-color="#C172CE" stop-opacity="0.6288"/>
<stop offset="0.9962" stop-color="#B86CE5" stop-opacity="0.6"/>
</linearGradient>
<linearGradient id="paint65_linear" x1="94.7567" y1="136.691" x2="160.722" y2="136.109" gradientUnits="userSpaceOnUse">
<stop stop-color="#F9993A"/>
<stop offset="0.1165" stop-color="#F69741"/>
<stop offset="0.282" stop-color="#EF9253"/>
<stop offset="0.4767" stop-color="#E48A72"/>
<stop offset="0.6937" stop-color="#D47F9C"/>
<stop offset="0.9264" stop-color="#BF71D2"/>
<stop offset="1" stop-color="#B86CE5"/>
</linearGradient>
<linearGradient id="paint66_linear" x1="94.7567" y1="136.691" x2="160.722" y2="136.109" gradientUnits="userSpaceOnUse">
<stop stop-color="#FF2911"/>
<stop offset="0.3993" stop-color="#F51C1F"/>
<stop offset="1" stop-color="#E80C31"/>
</linearGradient>
<linearGradient id="paint67_linear" x1="131.515" y1="168.319" x2="128.176" y2="40.8302" gradientUnits="userSpaceOnUse">
<stop stop-color="#FF2911" stop-opacity="0.64"/>
<stop offset="0.8351" stop-color="#FF2911" stop-opacity="0"/>
</linearGradient>
<linearGradient id="paint68_linear" x1="103.859" y1="66.6842" x2="148.149" y2="66.3016" gradientUnits="userSpaceOnUse">
<stop stop-color="#FF2911"/>
<stop offset="0.3993" stop-color="#F51C1F"/>
<stop offset="1" stop-color="#E80C31"/>
</linearGradient>
<linearGradient id="paint69_linear" x1="108.97" y1="69.0355" x2="153.262" y2="68.6445" gradientUnits="userSpaceOnUse">
<stop stop-color="#FF0DFF"/>
<stop offset="0.5289" stop-color="#F4FFFF"/>
<stop offset="0.6031" stop-color="#F5FAFF"/>
<stop offset="0.6971" stop-color="#F6EAFF"/>
<stop offset="0.8019" stop-color="#F8D0FF"/>
<stop offset="0.9136" stop-color="#FCACFF"/>
<stop offset="1" stop-color="#FF8BFF"/>
</linearGradient>
<linearGradient id="paint70_linear" x1="108.976" y1="69.2636" x2="153.268" y2="68.8725" gradientUnits="userSpaceOnUse">
<stop stop-color="#FF2911"/>
<stop offset="0.3993" stop-color="#F51C1F"/>
<stop offset="1" stop-color="#E80C31"/>
</linearGradient>
<linearGradient id="paint71_linear" x1="424.716" y1="200.647" x2="477.471" y2="200.182" gradientUnits="userSpaceOnUse">
<stop stop-color="#F9993A"/>
<stop offset="0.1488" stop-color="#F7983E" stop-opacity="0.9403"/>
<stop offset="0.3015" stop-color="#F3954A" stop-opacity="0.8789"/>
<stop offset="0.456" stop-color="#EB8F5F" stop-opacity="0.8169"/>
<stop offset="0.6119" stop-color="#E0887C" stop-opacity="0.7543"/>
<stop offset="0.7688" stop-color="#D27EA1" stop-opacity="0.6913"/>
<stop offset="0.9244" stop-color="#C172CE" stop-opacity="0.6288"/>
<stop offset="0.9962" stop-color="#B86CE5" stop-opacity="0.6"/>
</linearGradient>
<linearGradient id="paint72_linear" x1="428.121" y1="200.617" x2="474.067" y2="200.211" gradientUnits="userSpaceOnUse">
<stop stop-color="#F9993A"/>
<stop offset="0.1488" stop-color="#F7983E" stop-opacity="0.9403"/>
<stop offset="0.3015" stop-color="#F3954A" stop-opacity="0.8789"/>
<stop offset="0.456" stop-color="#EB8F5F" stop-opacity="0.8169"/>
<stop offset="0.6119" stop-color="#E0887C" stop-opacity="0.7543"/>
<stop offset="0.7688" stop-color="#D27EA1" stop-opacity="0.6913"/>
<stop offset="0.9244" stop-color="#C172CE" stop-opacity="0.6288"/>
<stop offset="0.9962" stop-color="#B86CE5" stop-opacity="0.6"/>
</linearGradient>
<linearGradient id="paint73_linear" x1="453.775" y1="208.123" x2="451.308" y2="113.907" gradientUnits="userSpaceOnUse">
<stop stop-color="#FF2911" stop-opacity="0.64"/>
<stop offset="0.8351" stop-color="#FF2911" stop-opacity="0"/>
</linearGradient>
<linearGradient id="paint74_linear" x1="430.358" y1="159.864" x2="431.542" y2="168.106" gradientUnits="userSpaceOnUse">
<stop stop-color="#FF2911" stop-opacity="0.64"/>
<stop offset="0.8351" stop-color="#FF2911" stop-opacity="0"/>
</linearGradient>
<linearGradient id="paint75_linear" x1="324.763" y1="160.943" x2="396.15" y2="160.313" gradientUnits="userSpaceOnUse">
<stop stop-color="#F9993A"/>
<stop offset="0.1488" stop-color="#F7983E" stop-opacity="0.9403"/>
<stop offset="0.3015" stop-color="#F3954A" stop-opacity="0.8789"/>
<stop offset="0.456" stop-color="#EB8F5F" stop-opacity="0.8169"/>
<stop offset="0.6119" stop-color="#E0887C" stop-opacity="0.7543"/>
<stop offset="0.7688" stop-color="#D27EA1" stop-opacity="0.6913"/>
<stop offset="0.9244" stop-color="#C172CE" stop-opacity="0.6288"/>
<stop offset="0.9962" stop-color="#B86CE5" stop-opacity="0.6"/>
</linearGradient>
<linearGradient id="paint76_linear" x1="329.37" y1="160.903" x2="391.542" y2="160.354" gradientUnits="userSpaceOnUse">
<stop stop-color="#F9993A"/>
<stop offset="0.1488" stop-color="#F7983E" stop-opacity="0.9403"/>
<stop offset="0.3015" stop-color="#F3954A" stop-opacity="0.8789"/>
<stop offset="0.456" stop-color="#EB8F5F" stop-opacity="0.8169"/>
<stop offset="0.6119" stop-color="#E0887C" stop-opacity="0.7543"/>
<stop offset="0.7688" stop-color="#D27EA1" stop-opacity="0.6913"/>
<stop offset="0.9244" stop-color="#C172CE" stop-opacity="0.6288"/>
<stop offset="0.9962" stop-color="#B86CE5" stop-opacity="0.6"/>
</linearGradient>
<linearGradient id="paint77_linear" x1="327.327" y1="139.325" x2="393.292" y2="138.743" gradientUnits="userSpaceOnUse">
<stop stop-color="#F9993A"/>
<stop offset="0.1165" stop-color="#F69741"/>
<stop offset="0.282" stop-color="#EF9253"/>
<stop offset="0.4767" stop-color="#E48A72"/>
<stop offset="0.6937" stop-color="#D47F9C"/>
<stop offset="0.9264" stop-color="#BF71D2"/>
<stop offset="1" stop-color="#B86CE5"/>
</linearGradient>
<linearGradient id="paint78_linear" x1="327.327" y1="139.325" x2="393.292" y2="138.743" gradientUnits="userSpaceOnUse">
<stop stop-color="#FF2911"/>
<stop offset="0.3993" stop-color="#F51C1F"/>
<stop offset="1" stop-color="#E80C31"/>
</linearGradient>
<linearGradient id="paint79_linear" x1="364.085" y1="170.953" x2="360.746" y2="43.4641" gradientUnits="userSpaceOnUse">
<stop stop-color="#FF2911" stop-opacity="0.64"/>
<stop offset="0.8351" stop-color="#FF2911" stop-opacity="0"/>
</linearGradient>
<linearGradient id="paint80_linear" x1="336.405" y1="69.3102" x2="380.696" y2="68.9276" gradientUnits="userSpaceOnUse">
<stop stop-color="#FF2911"/>
<stop offset="0.3993" stop-color="#F51C1F"/>
<stop offset="1" stop-color="#E80C31"/>
</linearGradient>
<linearGradient id="paint81_linear" x1="341.54" y1="71.6699" x2="385.832" y2="71.2789" gradientUnits="userSpaceOnUse">
<stop stop-color="#FF0DFF"/>
<stop offset="0.5289" stop-color="#F4FFFF"/>
<stop offset="0.6031" stop-color="#F5FAFF"/>
<stop offset="0.6971" stop-color="#F6EAFF"/>
<stop offset="0.8019" stop-color="#F8D0FF"/>
<stop offset="0.9136" stop-color="#FCACFF"/>
<stop offset="1" stop-color="#FF8BFF"/>
</linearGradient>
<linearGradient id="paint82_linear" x1="341.537" y1="71.8977" x2="385.829" y2="71.5067" gradientUnits="userSpaceOnUse">
<stop stop-color="#FF2911"/>
<stop offset="0.3993" stop-color="#F51C1F"/>
<stop offset="1" stop-color="#E80C31"/>
</linearGradient>
<linearGradient id="paint83_linear" x1="335.116" y1="24.3114" x2="332.747" y2="7.8282" gradientUnits="userSpaceOnUse">
<stop stop-color="#FF2911" stop-opacity="0.64"/>
<stop offset="0.8351" stop-color="#FF2911" stop-opacity="0"/>
</linearGradient>
<linearGradient id="paint84_linear" x1="182.313" y1="24.2965" x2="181.129" y2="16.0549" gradientUnits="userSpaceOnUse">
<stop stop-color="#FF2911" stop-opacity="0.64"/>
<stop offset="0.8351" stop-color="#FF2911" stop-opacity="0"/>
</linearGradient>
<linearGradient id="paint85_linear" x1="172.627" y1="133.382" x2="169.589" y2="112.213" gradientUnits="userSpaceOnUse">
<stop stop-color="#FF2911" stop-opacity="0.64"/>
<stop offset="0.8351" stop-color="#FF2911" stop-opacity="0"/>
</linearGradient>
<linearGradient id="paint86_linear" x1="240.433" y1="248.524" x2="236.879" y2="223.8" gradientUnits="userSpaceOnUse">
<stop stop-color="#FF2911" stop-opacity="0.64"/>
<stop offset="0.8351" stop-color="#FF2911" stop-opacity="0"/>
</linearGradient>
<linearGradient id="paint87_linear" x1="203.107" y1="246.097" x2="199.554" y2="221.372" gradientUnits="userSpaceOnUse">
<stop stop-color="#FF2911" stop-opacity="0.64"/>
<stop offset="0.8351" stop-color="#FF2911" stop-opacity="0"/>
</linearGradient>
<linearGradient id="paint88_linear" x1="306.158" y1="229.91" x2="302.605" y2="205.185" gradientUnits="userSpaceOnUse">
<stop stop-color="#FF2911" stop-opacity="0.64"/>
<stop offset="0.8351" stop-color="#FF2911" stop-opacity="0"/>
</linearGradient>
<linearGradient id="paint89_linear" x1="182.754" y1="117.867" x2="176.57" y2="98.7928" gradientUnits="userSpaceOnUse">
<stop stop-color="#FF9E93"/>
<stop offset="1" stop-color="#FF9E93" stop-opacity="0"/>
</linearGradient>
<linearGradient id="paint90_linear" x1="408.212" y1="48.7553" x2="414.237" y2="67.3172" gradientUnits="userSpaceOnUse">
<stop stop-color="#FF9E93"/>
<stop offset="1" stop-color="#FF9E93" stop-opacity="0"/>
</linearGradient>
<linearGradient id="paint91_linear" x1="91.4332" y1="42.0736" x2="90.2488" y2="50.3152" gradientUnits="userSpaceOnUse">
<stop stop-color="#FF2911" stop-opacity="0.64"/>
<stop offset="0.8351" stop-color="#FF2911" stop-opacity="0"/>
</linearGradient>
<linearGradient id="paint92_linear" x1="179.879" y1="42.1034" x2="178.694" y2="33.8618" gradientUnits="userSpaceOnUse">
<stop stop-color="#FF2911" stop-opacity="0.64"/>
<stop offset="0.8351" stop-color="#FF2911" stop-opacity="0"/>
</linearGradient>
<linearGradient id="paint93_linear" x1="175.871" y1="44.9553" x2="172.257" y2="56.0925" gradientUnits="userSpaceOnUse">
<stop stop-color="#FF9E93"/>
<stop offset="1" stop-color="#FF9E93" stop-opacity="0"/>
</linearGradient>
<linearGradient id="paint94_linear" x1="400.332" y1="138.808" x2="403.773" y2="114.843" gradientUnits="userSpaceOnUse">
<stop stop-color="#FF2911" stop-opacity="0.64"/>
<stop offset="0.8351" stop-color="#FF2911" stop-opacity="0"/>
</linearGradient>
<linearGradient id="paint95_linear" x1="333.932" y1="45.0098" x2="338.752" y2="30.1602" gradientUnits="userSpaceOnUse">
<stop stop-color="#FF9E93"/>
<stop offset="1" stop-color="#FF9E93" stop-opacity="0"/>
</linearGradient>
<linearGradient id="paint96_linear" x1="404.966" y1="151.972" x2="410.99" y2="133.41" gradientUnits="userSpaceOnUse">
<stop stop-color="#FF9E93"/>
<stop offset="1" stop-color="#FF9E93" stop-opacity="0"/>
</linearGradient>
<linearGradient id="paint97_linear" x1="104.279" y1="36.3978" x2="106.253" y2="50.1338" gradientUnits="userSpaceOnUse">
<stop stop-color="#FF2911" stop-opacity="0.64"/>
<stop offset="0.8351" stop-color="#FF2911" stop-opacity="0"/>
</linearGradient>
<clipPath id="clip0">
<rect width="499" height="273.879" fill="white"/>
</clipPath>
</defs>
</svg>
