<svg width="36" height="36" viewBox="0 0 36 36" fill="none" xmlns="http://www.w3.org/2000/svg">
<path d="M29.25 36H6.75C3.02175 36 0 32.9782 0 29.25V6.75C0 3.02175 3.02175 0 6.75 0H29.25C32.9782 0 36 3.02175 36 6.75V29.25C36 32.9782 32.9782 36 29.25 36Z" fill="#FF2911" fill-opacity="0.3"/>
<path d="M12.0004 14.0625C12.0004 12.0982 13.599 10.4996 15.5632 10.4996H22.4134C22.1659 9.63675 21.3784 9 20.4379 9H11.8125C10.6751 9 9.75037 9.92475 9.75037 11.0621V22.6868C9.75037 23.8253 10.6751 24.75 11.8125 24.75H12.0004V14.0625Z" fill="#FF5441"/>
<path d="M24.1875 12.0005H15.5621C14.4248 12.0005 13.5 12.9252 13.5 14.0626V24.938C13.5 26.0754 14.4248 27.0001 15.5621 27.0001H24.1875C25.3249 27.0001 26.2496 26.0754 26.2496 24.938V14.0626C26.2496 12.9252 25.3249 12.0005 24.1875 12.0005V12.0005ZM22.6879 24.7501H17.0629C16.7524 24.7501 16.5004 24.4981 16.5004 24.1876C16.5004 23.8771 16.7524 23.6251 17.0629 23.6251H22.6879C22.9984 23.6251 23.2504 23.8771 23.2504 24.1876C23.2504 24.4981 22.9984 24.7501 22.6879 24.7501ZM22.6879 21.7497H17.0629C16.7524 21.7497 16.5004 21.4977 16.5004 21.1872C16.5004 20.8767 16.7524 20.6247 17.0629 20.6247H22.6879C22.9984 20.6247 23.2504 20.8767 23.2504 21.1872C23.2504 21.4977 22.9984 21.7497 22.6879 21.7497ZM22.6879 19.1251H17.0629C16.7524 19.1251 16.5004 18.8731 16.5004 18.5626C16.5004 18.2521 16.7524 18.0001 17.0629 18.0001H22.6879C22.9984 18.0001 23.2504 18.2521 23.2504 18.5626C23.2504 18.8731 22.9984 19.1251 22.6879 19.1251ZM22.6879 16.1247H17.0629C16.7524 16.1247 16.5004 15.8727 16.5004 15.5622C16.5004 15.2517 16.7524 14.9997 17.0629 14.9997H22.6879C22.9984 14.9997 23.2504 15.2517 23.2504 15.5622C23.2504 15.8727 22.9984 16.1247 22.6879 16.1247Z" fill="#FF6857"/>
</svg>
