<svg xmlns="http://www.w3.org/2000/svg" xmlns:xlink="http://www.w3.org/1999/xlink" width="14px" height="14px" viewBox="0 0 14 14" version="1.1">
    <!-- Generator: Sketch 54.1 (76490) - https://sketchapp.com -->
    <title>instagram</title>
    <desc>Created with Sketch.</desc>
    <g id="Design" stroke="none" stroke-width="1" fill="none" fill-rule="evenodd">
        <g id="Web-01-Copy-Finish" transform="translate(-1384.000000, -436.000000)" fill="#FFFFFF" fill-rule="nonzero">
            <g id="social" transform="translate(1342.000000, 198.000000)">
                <g id="Facebook" transform="translate(0.000000, 98.000000)">
                    <g id="Group-5" transform="translate(0.000000, 98.000000)">
                        <g id="instagram" transform="translate(42.000000, 42.000000)">
                            <path d="M13.9644179,4.11605085 C13.9972218,4.86270469 14,5.10062115 14,7.00138882 C14,8.90215649 13.9917723,9.14007295 13.9589684,9.88672679 C13.9261645,10.630603 13.8057411,11.1393404 13.6334939,11.5851533 C13.2696591,12.5259222 12.5256409,13.2697984 11.5845857,13.6335638 C11.1414659,13.8058849 10.6299601,13.9261786 9.88594193,13.9589762 C9.13914562,13.9918807 8.90118376,14 7.00005341,14 C5.09892306,14 4.86085438,13.9918807 4.11416489,13.9589762 C3.37003993,13.9261786 2.8613123,13.8058849 2.41541432,13.6335638 C1.95038963,13.4585718 1.52639653,13.1823024 1.17623892,12.8267631 C0.820631808,12.4766723 0.544416524,12.0555377 0.366612965,11.5851533 C0.194258922,11.1420112 0.0738354989,10.630603 0.0410315904,9.88672679 C0.00822768186,9.14007295 4.17443857e-14,8.90215649 4.17443857e-14,7.00138882 C4.17443857e-14,5.10062115 0.00822768186,4.86270469 0.0438097573,4.11327321 C0.0766136658,3.36939701 0.19693027,2.86076643 0.369284313,2.41495352 C0.544416524,1.95001754 0.820631808,1.52610533 1.17623892,1.17601453 C1.52639653,0.817697615 1.94761146,0.544205865 2.41819248,0.366436227 C2.8613123,0.194221862 3.37281809,0.073821413 4.11683623,0.0410237626 C4.86363254,0.00822611223 5.1015944,1.40865097e-12 7.00272476,1.40865097e-12 C8.90385511,1.40865097e-12 9.14181697,0.00822611223 9.89139145,0.0438013995 C10.6354096,0.0765990499 11.144244,0.196892701 11.5900352,0.369213863 C12.0550599,0.544205865 12.479053,0.820475252 12.8292106,1.17601453 C13.1875959,1.52610533 13.4611398,1.94723991 13.6389434,2.41762436 C13.8112974,2.86076643 13.931614,3.37217465 13.9644179,4.11605085 Z M12.7034445,9.83202844 C12.7362484,9.09360071 12.7444761,8.87480731 12.7444761,7.00683729 C12.7444761,5.13886728 12.7362484,4.91740304 12.7034445,4.17897531 C12.6733119,3.49791677 12.5584448,3.12603207 12.4627044,2.87988949 C12.3505087,2.57627093 12.1727051,2.30277918 11.9401928,2.07575967 C11.7159081,1.84329168 11.439586,1.66552204 11.1360164,1.5534545 C10.8898268,1.45773239 10.5205425,1.34288722 9.83668266,1.3127604 C9.10078538,1.27996275 8.87927888,1.27173664 7.00817427,1.27173664 C5.13995465,1.27173664 4.91834133,1.27996275 4.1797727,1.3127604 C3.49869103,1.34288722 3.12662855,1.45773239 2.88043901,1.5534545 C2.57676251,1.66552204 2.30321858,1.84329168 2.07626256,2.07575967 C1.84097205,2.30010834 1.66316849,2.57627093 1.55097275,2.87988949 C1.45523237,3.12603207 1.34036529,3.49524593 1.31033954,4.17897531 C1.27742882,4.9146254 1.26930795,5.13886728 1.26930795,7.00683729 C1.26930795,8.87480731 1.27742882,9.09637835 1.31033954,9.83480608 C1.34036529,10.5157578 1.45523237,10.8877493 1.55097275,11.1338919 C1.66316849,11.4374037 1.84097205,11.7108954 2.0734844,11.9379149 C2.29776906,12.1703829 2.57409116,12.3481525 2.87766084,12.4603269 C3.12385038,12.556049 3.4931347,12.6708942 4.17699454,12.7009142 C4.91289182,12.7338186 5.13717648,12.7419379 7.00550292,12.7419379 C8.87382937,12.7419379 9.09533587,12.7338186 9.83390449,12.7009142 C10.515093,12.6708942 10.8870486,12.556049 11.1332382,12.4603269 C11.7432625,12.2250813 12.2274139,11.7410222 12.4627044,11.1311143 C12.5584448,10.8849717 12.6733119,10.5157578 12.7034445,9.83202844 Z M7.00272476,3.4049723 C8.98869646,3.4049723 10.5998275,5.01579599 10.5998275,7.00138882 C10.5998275,8.98698165 8.98869646,10.5978053 7.00272476,10.5978053 C5.01685987,10.5978053 3.405622,8.98698165 3.405622,7.00138882 C3.405622,5.01579599 5.01685987,3.4049723 7.00272476,3.4049723 Z M7.00272476,9.33429481 C8.29115942,9.33429481 9.33607589,8.28957768 9.33607589,7.00138882 C9.33607589,5.71319995 8.29115942,4.66848283 7.00272476,4.66848283 C5.71439691,4.66848283 4.66937362,5.71319995 4.66937362,7.00138882 C4.66937362,8.28957768 5.71439691,9.33429481 7.00272476,9.33429481 Z M11.5819143,3.26277795 C11.5819143,3.72643193 11.2058983,4.10237626 10.742049,4.10237626 C10.2783065,4.10237626 9.90229048,3.72643193 9.90229048,3.26277795 C9.90229048,2.79901714 10.2783065,2.42317963 10.742049,2.42317963 C11.2058983,2.42317963 11.5819143,2.79901714 11.5819143,3.26277795 Z"/>
                        </g>
                    </g>
                </g>
            </g>
        </g>
    </g>
</svg>
